<?xml version="1.0" encoding="UTF-8"?>
<svg version="1.1" xmlns="http://www.w3.org/2000/svg" width="3125" height="2188">
<path d="M0 0 C1031.25 0 2062.5 0 3125 0 C3125 722.04 3125 1444.08 3125 2188 C2093.75 2188 1062.5 2188 0 2188 C0 1465.96 0 743.92 0 0 Z " fill="#00943F" transform="translate(0,0)"/>
<path d="M0 0 C2.01953305 0.78531854 3.75694054 1.68014587 5.60205078 2.81567383 C6.64570801 3.45436401 6.64570801 3.45436401 7.71044922 4.10595703 C8.45842773 4.57219482 9.20640625 5.03843262 9.97705078 5.51879883 C10.76885742 6.00759521 11.56066406 6.4963916 12.37646484 7 C19.05956157 11.14779024 25.65883802 15.42141989 32.24194336 19.72558594 C38.3548509 23.72228455 44.49860064 27.6669628 50.66455078 31.58129883 C58.54887208 36.58767172 66.42434113 41.60744454 74.28955078 46.64379883 C75.84996094 47.64286255 75.84996094 47.64286255 77.44189453 48.66210938 C81.68268996 51.37764338 85.92312326 54.09374259 90.16357422 56.80981445 C101.98831243 64.38316536 113.81892699 71.9468665 125.66918945 79.48022461 C133.6769656 84.57287347 141.66930055 89.68947905 149.66064453 94.80786133 C156.42563689 99.13946336 163.19798346 103.45926206 169.97705078 107.76879883 C183.05848902 116.08570997 196.11020945 124.4489403 209.16357422 132.80981445 C220.09284025 139.80964526 231.02456466 146.80534013 241.97705078 153.76879883 C255.05843959 162.0857882 268.11020908 170.44894006 281.16357422 178.80981445 C292.98831243 186.38316536 304.81892699 193.9468665 316.66918945 201.48022461 C324.6769656 206.57287347 332.66930055 211.68947905 340.66064453 216.80786133 C347.42563689 221.13946336 354.19798346 225.45926206 360.97705078 229.76879883 C374.05848902 238.08570997 387.11020945 246.4489403 400.16357422 254.80981445 C411.98831243 262.38316536 423.81892699 269.9468665 435.66918945 277.48022461 C443.6769656 282.57287347 451.66930055 287.68947905 459.66064453 292.80786133 C466.42563689 297.13946336 473.19798346 301.45926206 479.97705078 305.76879883 C493.05848902 314.08570997 506.11020945 322.4489403 519.16357422 330.80981445 C530.98831243 338.38316536 542.81892699 345.9468665 554.66918945 353.48022461 C562.6769656 358.57287347 570.66930055 363.68947905 578.66064453 368.80786133 C585.42563689 373.13946336 592.19798346 377.45926206 598.97705078 381.76879883 C612.05848902 390.08570997 625.11020945 398.4489403 638.16357422 406.80981445 C649.09284025 413.80964526 660.02456466 420.80534013 670.97705078 427.76879883 C684.05843959 436.0857882 697.11020908 444.44894006 710.16357422 452.80981445 C721.98831243 460.38316536 733.81892699 467.9468665 745.66918945 475.48022461 C753.6769656 480.57287347 761.66930055 485.68947905 769.66064453 490.80786133 C776.42563689 495.13946336 783.19798346 499.45926206 789.97705078 503.76879883 C803.05848902 512.08570997 816.11020945 520.4489403 829.16357422 528.80981445 C840.98831243 536.38316536 852.81892699 543.9468665 864.66918945 551.48022461 C872.6769656 556.57287347 880.66930055 561.68947905 888.66064453 566.80786133 C895.42563689 571.13946336 902.19798346 575.45926206 908.97705078 579.76879883 C922.05848902 588.08570997 935.11020945 596.4489403 948.16357422 604.80981445 C959.98831243 612.38316536 971.81892699 619.9468665 983.66918945 627.48022461 C991.6769656 632.57287347 999.66930055 637.68947905 1007.66064453 642.80786133 C1014.42563689 647.13946336 1021.19798346 651.45926206 1027.97705078 655.76879883 C1041.05848902 664.08570997 1054.11020945 672.4489403 1067.16357422 680.80981445 C1078.09284025 687.80964526 1089.02456466 694.80534013 1099.97705078 701.76879883 C1113.05843959 710.0857882 1126.11020908 718.44894006 1139.16357422 726.80981445 C1150.98831243 734.38316536 1162.81892699 741.9468665 1174.66918945 749.48022461 C1182.6769656 754.57287347 1190.66930055 759.68947905 1198.66064453 764.80786133 C1205.42563689 769.13946336 1212.19798346 773.45926206 1218.97705078 777.76879883 C1226.7560001 782.71449586 1234.52610667 787.67379697 1242.28955078 792.64379883 C1243.32587646 793.30718262 1244.36220215 793.97056641 1245.42993164 794.65405273 C1250.80638574 798.09641387 1256.18143 801.54096143 1261.55517578 804.98754883 C1262.6331543 805.67848633 1263.71113281 806.36942383 1264.82177734 807.08129883 C1266.94140284 808.43991766 1269.06055558 809.79927438 1271.17919922 811.15942383 C1275.79774934 814.11908427 1280.42439728 817.05952566 1285.10205078 819.92504883 C1285.86122803 820.39120605 1286.62040527 820.85736328 1287.40258789 821.33764648 C1288.78479628 822.18247853 1290.17080682 823.02113458 1291.5612793 823.85229492 C1293.06666975 824.77178929 1294.52818824 825.76258431 1295.97705078 826.76879883 C1295.97705078 827.42879883 1295.97705078 828.08879883 1295.97705078 828.76879883 C1294.04370117 830.19824219 1294.04370117 830.19824219 1291.32470703 831.85864258 C1290.32938965 832.47231689 1289.33407227 833.08599121 1288.30859375 833.71826172 C1287.22980957 834.37431396 1286.15102539 835.03036621 1285.03955078 835.70629883 C1282.81363726 837.07763512 1280.5883792 838.4500359 1278.36376953 839.82348633 C1277.26726074 840.49863281 1276.17075195 841.1737793 1275.04101562 841.86938477 C1271.11076391 844.30582766 1267.22414894 846.80379214 1263.35205078 849.33129883 C1257.08477081 853.41189501 1250.78969782 857.44622025 1244.47705078 861.45629883 C1236.46717257 866.54513381 1228.46786063 871.65007139 1220.47705078 876.76879883 C1211.75627919 882.35445571 1203.02540008 887.92383948 1194.28564453 893.47973633 C1187.34102781 897.89631272 1180.40744557 902.32994474 1173.47705078 906.76879883 C1165.65144782 911.78102551 1157.81962937 916.78317482 1149.97705078 921.76879883 C1137.96006725 929.40895142 1125.96824722 937.08825927 1113.97705078 944.76879883 C1101.08817314 953.02431653 1088.19486131 961.27243802 1075.27832031 969.48461914 C1064.1621572 976.55473043 1053.07057064 983.66323447 1041.97705078 990.76879883 C1029.09039802 999.02289146 1016.1996667 1007.27015572 1003.28491211 1015.48022461 C996.34051686 1019.89660263 989.40719851 1024.33010298 982.47705078 1028.76879883 C974.65144782 1033.78102551 966.81962937 1038.78317482 958.97705078 1043.76879883 C946.96006725 1051.40895142 934.96824722 1059.08825927 922.97705078 1066.76879883 C910.09039802 1075.02289146 897.1996667 1083.27015572 884.28491211 1091.48022461 C877.34051686 1095.89660263 870.40719851 1100.33010298 863.47705078 1104.76879883 C855.65144782 1109.78102551 847.81962937 1114.78317482 839.97705078 1119.76879883 C827.96006725 1127.40895142 815.96824722 1135.08825927 803.97705078 1142.76879883 C791.09039802 1151.02289146 778.1996667 1159.27015572 765.28491211 1167.48022461 C758.34051686 1171.89660263 751.40719851 1176.33010298 744.47705078 1180.76879883 C736.65144782 1185.78102551 728.81962937 1190.78317482 720.97705078 1195.76879883 C708.96006725 1203.40895142 696.96824722 1211.08825927 684.97705078 1218.76879883 C672.08817314 1227.02431653 659.19486131 1235.27243802 646.27832031 1243.48461914 C635.1621572 1250.55473043 624.07057064 1257.66323447 612.97705078 1264.76879883 C600.09039802 1273.02289146 587.1996667 1281.27015572 574.28491211 1289.48022461 C567.34051686 1293.89660263 560.40719851 1298.33010298 553.47705078 1302.76879883 C545.65144782 1307.78102551 537.81962937 1312.78317482 529.97705078 1317.76879883 C517.96006725 1325.40895142 505.96824722 1333.08825927 493.97705078 1340.76879883 C481.09039802 1349.02289146 468.1996667 1357.27015572 455.28491211 1365.48022461 C448.34051686 1369.89660263 441.40719851 1374.33010298 434.47705078 1378.76879883 C426.65144782 1383.78102551 418.81962937 1388.78317482 410.97705078 1393.76879883 C398.96006725 1401.40895142 386.96824722 1409.08825927 374.97705078 1416.76879883 C362.09039802 1425.02289146 349.1996667 1433.27015572 336.28491211 1441.48022461 C329.34051686 1445.89660263 322.40719851 1450.33010298 315.47705078 1454.76879883 C307.65144782 1459.78102551 299.81962937 1464.78317482 291.97705078 1469.76879883 C279.96006725 1477.40895142 267.96824722 1485.08825927 255.97705078 1492.76879883 C243.08817314 1501.02431653 230.19486131 1509.27243802 217.27832031 1517.48461914 C206.1621572 1524.55473043 195.07057064 1531.66323447 183.97705078 1538.76879883 C171.09039802 1547.02289146 158.1996667 1555.27015572 145.28491211 1563.48022461 C138.34051686 1567.89660263 131.40719851 1572.33010298 124.47705078 1576.76879883 C116.65144782 1581.78102551 108.81962937 1586.78317482 100.97705078 1591.76879883 C88.96006725 1599.40895142 76.96824722 1607.08825927 64.97705078 1614.76879883 C60.74811598 1617.47749443 56.51899241 1620.18589465 52.28955078 1622.89379883 C51.25660889 1623.55516846 50.22366699 1624.21653809 49.15942383 1624.89794922 C44.14833192 1628.10490598 39.13438912 1631.30724426 34.11376953 1634.49926758 C33.173479 1635.09715088 32.23318848 1635.69503418 31.2644043 1636.31103516 C29.43128799 1637.47525749 27.597168 1638.63790124 25.76196289 1639.79882812 C21.46292575 1642.52356997 17.19221642 1645.27890271 12.96923828 1648.12036133 C12.18742187 1648.64202881 11.40560547 1649.16369629 10.60009766 1649.70117188 C9.14365088 1650.67630159 7.69391474 1651.66156061 6.25244141 1652.65869141 C1.50632856 1655.82455898 1.50632856 1655.82455898 -0.91625977 1655.56933594 C-3.5234421 1654.57861269 -5.7061168 1653.26621277 -8.06591797 1651.77661133 C-9.04834473 1651.15971436 -10.03077148 1650.54281738 -11.04296875 1649.90722656 C-12.0882373 1649.24279541 -13.13350586 1648.57836426 -14.21044922 1647.89379883 C-15.83249268 1646.87104858 -15.83249268 1646.87104858 -17.48730469 1645.82763672 C-24.93210193 1641.12394376 -32.33713698 1636.36064196 -39.71826172 1631.55786133 C-44.63186505 1628.36551091 -49.57698726 1625.2231973 -54.52294922 1622.08129883 C-62.53282743 1616.99246384 -70.53213937 1611.88752627 -78.52294922 1606.76879883 C-86.34851829 1601.75651943 -94.18037082 1596.75442271 -102.02294922 1591.76879883 C-115.10438746 1583.45188768 -128.15610788 1575.08865736 -141.20947266 1566.7277832 C-153.03421086 1559.1544323 -164.86482542 1551.59073116 -176.71508789 1544.05737305 C-184.72286404 1538.96472419 -192.71519898 1533.84811861 -200.70654297 1528.72973633 C-207.47153533 1524.3981343 -214.24388189 1520.0783356 -221.02294922 1515.76879883 C-234.10438746 1507.45188768 -247.15610788 1499.08865736 -260.20947266 1490.7277832 C-271.13873868 1483.7279524 -282.0704631 1476.73225752 -293.02294922 1469.76879883 C-306.10433803 1461.45180945 -319.15610752 1453.08865759 -332.20947266 1444.7277832 C-344.03421086 1437.1544323 -355.86482542 1429.59073116 -367.71508789 1422.05737305 C-375.72286404 1416.96472419 -383.71519898 1411.84811861 -391.70654297 1406.72973633 C-398.47153533 1402.3981343 -405.24388189 1398.0783356 -412.02294922 1393.76879883 C-425.10438746 1385.45188768 -438.15610788 1377.08865736 -451.20947266 1368.7277832 C-463.03421086 1361.1544323 -474.86482542 1353.59073116 -486.71508789 1346.05737305 C-494.72286404 1340.96472419 -502.71519898 1335.84811861 -510.70654297 1330.72973633 C-517.47153533 1326.3981343 -524.24388189 1322.0783356 -531.02294922 1317.76879883 C-544.10438746 1309.45188768 -557.15610788 1301.08865736 -570.20947266 1292.7277832 C-582.03421086 1285.1544323 -593.86482542 1277.59073116 -605.71508789 1270.05737305 C-613.72286404 1264.96472419 -621.71519898 1259.84811861 -629.70654297 1254.72973633 C-636.47153533 1250.3981343 -643.24388189 1246.0783356 -650.02294922 1241.76879883 C-663.10438746 1233.45188768 -676.15610788 1225.08865736 -689.20947266 1216.7277832 C-700.13873868 1209.7279524 -711.0704631 1202.73225752 -722.02294922 1195.76879883 C-735.10433803 1187.45180945 -748.15610752 1179.08865759 -761.20947266 1170.7277832 C-773.03421086 1163.1544323 -784.86482542 1155.59073116 -796.71508789 1148.05737305 C-804.72286404 1142.96472419 -812.71519898 1137.84811861 -820.70654297 1132.72973633 C-827.47153533 1128.3981343 -834.24388189 1124.0783356 -841.02294922 1119.76879883 C-854.10438746 1111.45188768 -867.15610788 1103.08865736 -880.20947266 1094.7277832 C-892.03421086 1087.1544323 -903.86482542 1079.59073116 -915.71508789 1072.05737305 C-923.72286404 1066.96472419 -931.71519898 1061.84811861 -939.70654297 1056.72973633 C-946.47153533 1052.3981343 -953.24388189 1048.0783356 -960.02294922 1043.76879883 C-973.10438746 1035.45188768 -986.15610788 1027.08865736 -999.20947266 1018.7277832 C-1010.13873868 1011.7279524 -1021.0704631 1004.73225752 -1032.02294922 997.76879883 C-1045.10433803 989.45180945 -1058.15610752 981.08865759 -1071.20947266 972.7277832 C-1083.03421086 965.1544323 -1094.86482542 957.59073116 -1106.71508789 950.05737305 C-1114.72286404 944.96472419 -1122.71519898 939.84811861 -1130.70654297 934.72973633 C-1137.47153533 930.3981343 -1144.24388189 926.0783356 -1151.02294922 921.76879883 C-1164.10438746 913.45188768 -1177.15610788 905.08865736 -1190.20947266 896.7277832 C-1202.03421086 889.1544323 -1213.86482542 881.59073116 -1225.71508789 874.05737305 C-1232.65948346 869.64099483 -1239.59274441 865.20740595 -1246.52294922 860.76879883 C-1254.53883008 855.6360124 -1262.5576313 850.50789938 -1270.58544922 845.39379883 C-1271.48086426 844.82242188 -1272.3762793 844.25104492 -1273.29882812 843.66235352 C-1277.49554021 840.98967382 -1281.7035774 838.34052442 -1285.94873047 835.74536133 C-1286.70404053 835.28178223 -1287.45935059 834.81820312 -1288.23754883 834.34057617 C-1289.63939128 833.48290016 -1291.04496431 832.63128095 -1292.45483398 831.78686523 C-1294.01132278 830.8339466 -1295.52320296 829.8087375 -1297.02294922 828.76879883 C-1297.02294922 828.10879883 -1297.02294922 827.44879883 -1297.02294922 826.76879883 C-1294.47000351 825.07608483 -1291.91312828 823.50311714 -1289.27294922 821.95629883 C-1282.51783905 817.91680746 -1275.85580216 813.77094459 -1269.27294922 809.45629883 C-1262.32273035 804.90966638 -1255.34719941 800.40751484 -1248.33544922 795.95629883 C-1240.38743691 790.91008746 -1232.45034918 785.84733708 -1224.52294922 780.76879883 C-1216.69740161 775.75648606 -1208.8655275 770.75442264 -1201.02294922 765.76879883 C-1189.00596569 758.12864624 -1177.01414566 750.44933838 -1165.02294922 742.76879883 C-1152.13629646 734.51470619 -1139.24556514 726.26744194 -1126.33081055 718.05737305 C-1119.3864153 713.64099503 -1112.45309695 709.20749467 -1105.52294922 704.76879883 C-1097.69734626 699.75657215 -1089.86552781 694.75442283 -1082.02294922 689.76879883 C-1070.00596569 682.12864624 -1058.01414566 674.44933838 -1046.02294922 666.76879883 C-1033.13407158 658.51328112 -1020.24075974 650.26515964 -1007.32421875 642.05297852 C-996.20805564 634.98286723 -985.11646907 627.87436319 -974.02294922 620.76879883 C-961.13629646 612.51470619 -948.24556514 604.26744194 -935.33081055 596.05737305 C-928.3864153 591.64099503 -921.45309695 587.20749467 -914.52294922 582.76879883 C-906.69734626 577.75657215 -898.86552781 572.75442283 -891.02294922 567.76879883 C-879.00596569 560.12864624 -867.01414566 552.44933838 -855.02294922 544.76879883 C-842.13629646 536.51470619 -829.24556514 528.26744194 -816.33081055 520.05737305 C-809.3864153 515.64099503 -802.45309695 511.20749467 -795.52294922 506.76879883 C-787.69734626 501.75657215 -779.86552781 496.75442283 -772.02294922 491.76879883 C-760.00596569 484.12864624 -748.01414566 476.44933838 -736.02294922 468.76879883 C-723.13407158 460.51328112 -710.24075974 452.26515964 -697.32421875 444.05297852 C-686.20805564 436.98286723 -675.11646907 429.87436319 -664.02294922 422.76879883 C-651.13629646 414.51470619 -638.24556514 406.26744194 -625.33081055 398.05737305 C-618.3864153 393.64099503 -611.45309695 389.20749467 -604.52294922 384.76879883 C-596.69734626 379.75657215 -588.86552781 374.75442283 -581.02294922 369.76879883 C-569.00596569 362.12864624 -557.01414566 354.44933838 -545.02294922 346.76879883 C-532.13629646 338.51470619 -519.24556514 330.26744194 -506.33081055 322.05737305 C-499.3864153 317.64099503 -492.45309695 313.20749467 -485.52294922 308.76879883 C-477.69734626 303.75657215 -469.86552781 298.75442283 -462.02294922 293.76879883 C-450.00596569 286.12864624 -438.01414566 278.44933838 -426.02294922 270.76879883 C-413.13629646 262.51470619 -400.24556514 254.26744194 -387.33081055 246.05737305 C-380.3864153 241.64099503 -373.45309695 237.20749467 -366.52294922 232.76879883 C-358.69734626 227.75657215 -350.86552781 222.75442283 -343.02294922 217.76879883 C-331.00596569 210.12864624 -319.01414566 202.44933838 -307.02294922 194.76879883 C-294.13407158 186.51328112 -281.24075974 178.26515964 -268.32421875 170.05297852 C-257.20805564 162.98286723 -246.11646907 155.87436319 -235.02294922 148.76879883 C-222.13629646 140.51470619 -209.24556514 132.26744194 -196.33081055 124.05737305 C-189.3864153 119.64099503 -182.45309695 115.20749467 -175.52294922 110.76879883 C-167.69734626 105.75657215 -159.86552781 100.75442283 -152.02294922 95.76879883 C-140.00596569 88.12864624 -128.01414566 80.44933838 -116.02294922 72.76879883 C-103.13629646 64.51470619 -90.24556514 56.26744194 -77.33081055 48.05737305 C-69.32663746 42.9670156 -61.33758218 37.85320202 -53.3503418 32.73632812 C-48.32292803 29.51674259 -43.2928361 26.30160003 -38.25341797 23.10083008 C-37.33028809 22.51438721 -36.4071582 21.92794434 -35.45605469 21.32373047 C-33.6448311 20.17428153 -31.83267569 19.0262994 -30.01953125 17.87988281 C-25.42303601 14.9659053 -20.8643398 12.00766175 -16.34716797 8.97192383 C-14.97395386 8.05576294 -14.97395386 8.05576294 -13.57299805 7.12109375 C-11.82995125 5.95487343 -10.09369998 4.7784114 -8.36547852 3.59033203 C-7.20205933 2.81435669 -7.20205933 2.81435669 -6.01513672 2.02270508 C-4.9997583 1.33156616 -4.9997583 1.33156616 -3.96386719 0.62646484 C-2.02294922 -0.23120117 -2.02294922 -0.23120117 0 0 Z " fill="#FECA00" transform="translate(1563.02294921875,266.231201171875)"/>
<path d="M0 0 C3.98042801 0.4170714 7.96728816 0.74167951 11.95581055 1.07066345 C23.96952082 2.06642911 35.91373014 3.39970067 47.86767578 4.95214844 C50.88021895 5.34259959 53.89385524 5.72361797 56.90771484 6.10375977 C67.55657594 7.46186561 78.13273076 9.00975823 88.68579102 10.9770813 C91.24763079 11.45101894 93.81174661 11.91103877 96.37646484 12.36914062 C121.69274332 16.89334045 146.93588543 21.56406227 171.98583984 27.40258789 C173.72438232 27.80670898 173.72438232 27.80670898 175.49804688 28.21899414 C186.99545539 30.90556229 198.47617053 33.66050819 209.85546875 36.81469727 C212.3900859 37.51414238 214.92838394 38.19961727 217.46630859 38.88696289 C232.7956637 43.0727384 247.92077338 47.77905463 263.0112915 52.75286865 C265.05848698 53.42649221 267.10675351 54.09677303 269.15527344 54.76635742 C325.68864785 73.2588672 380.64278472 94.86051663 434.09960938 121.00219727 C437.59568529 122.69848313 441.11226574 124.34782097 444.63354492 125.9909668 C454.9307403 130.80238077 464.9927651 135.98981693 474.98583984 141.40258789 C476.05092773 141.97895996 477.11601563 142.55533203 478.21337891 143.14916992 C496.0523806 152.83226645 513.59854181 162.92648086 530.98583984 173.40258789 C532.00436035 174.01376465 533.02288086 174.62494141 534.07226562 175.25463867 C547.5654453 183.35667278 560.85622569 191.72417714 573.98583984 200.40258789 C574.66582031 200.85085938 575.34580078 201.29913086 576.04638672 201.76098633 C591.96494935 212.26469324 607.58095495 223.15970187 622.98583984 234.40258789 C623.76362793 234.96880859 624.54141602 235.5350293 625.34277344 236.1184082 C642.01980386 248.27023741 658.28327217 260.8943037 674.24169922 273.97436523 C675.81492908 275.26263437 677.39232232 276.54581514 678.97021484 277.82836914 C690.24737481 287.00328397 701.37599702 296.39503036 712.30126953 305.98706055 C714.00336985 307.45321862 714.00336985 307.45321862 715.99072266 308.84545898 C716.64137695 309.33224121 717.29203125 309.81902344 717.96240234 310.32055664 C718.56391113 310.7448999 719.16541992 311.16924316 719.78515625 311.60644531 C720.98583984 313.40258789 720.98583984 313.40258789 720.80493164 316.69018555 C720.03022206 320.2014326 719.09075478 323.49066508 717.90380859 326.88305664 C717.25714233 328.73133057 717.25714233 328.73133057 716.59741211 330.61694336 C716.12377179 331.9417009 715.64905285 333.26607322 715.17333984 334.59008789 C714.93074432 335.26976624 714.6881488 335.94944458 714.4382019 336.64971924 C703.14272296 368.19648013 688.92867234 398.50529974 671.98583984 427.40258789 C671.48052734 428.27254395 670.97521484 429.1425 670.45458984 430.03881836 C655.76352113 455.29387496 638.67897471 478.96481539 619.98583984 501.40258789 C619.51049805 501.97702637 619.03515625 502.55146484 618.54541016 503.14331055 C618.08489258 503.69937988 617.624375 504.25544922 617.14990234 504.82836914 C616.75367676 505.30701416 616.35745117 505.78565918 615.94921875 506.27880859 C605.77817092 518.3522492 594.87851531 529.67656884 583.70263672 540.81616211 C581.7203374 542.793048 579.74351352 544.77529828 577.76708984 546.75805664 C571.67834935 552.85027765 565.59994051 558.87465059 558.98583984 564.40258789 C557.97561989 565.27891943 556.96645586 566.15647012 555.95849609 567.03540039 C547.22831922 574.51171293 538.17893214 581.50678608 528.98583984 588.40258789 C528.21401367 588.98476074 527.4421875 589.56693359 526.64697266 590.16674805 C469.17855231 633.45142282 402.07709105 665.83114376 331.98583984 682.40258789 C330.41633219 682.78990137 328.8472723 683.17903702 327.27880859 683.57055664 C317.06613415 686.08979221 306.75444186 688.04084858 296.41210938 689.94555664 C294.28402496 690.34641939 292.16398728 690.77175385 290.04443359 691.21508789 C281.72750145 692.90846114 273.41772669 694.02029 264.98583984 694.96508789 C263.44935791 695.13729858 263.44935791 695.13729858 261.88183594 695.31298828 C258.9768715 695.62399764 256.07078867 695.91583837 253.16241455 696.1930542 C251.60175273 696.34329542 250.04153443 696.49817151 248.48162842 696.65606689 C233.05281069 698.20071378 217.75318505 698.71749161 202.25048828 698.66333008 C198.62043488 698.65261621 194.99087837 698.66329872 191.36083984 698.67602539 C168.50807289 698.69176062 145.96663481 697.03474796 123.36083984 693.71508789 C122.47295776 693.5866449 121.58507568 693.4582019 120.67028809 693.3258667 C103.56061465 690.83325535 86.77731366 687.53257219 69.98583984 683.40258789 C68.74511719 683.10126953 67.50439453 682.79995117 66.22607422 682.48950195 C38.73757692 675.735308 11.94356353 666.70189148 -14.01416016 655.40258789 C-15.30435059 654.8420874 -15.30435059 654.8420874 -16.62060547 654.27026367 C-27.18510044 649.65346518 -37.60775002 644.78664741 -47.859375 639.51098633 C-49.37871851 638.72945228 -50.90007206 637.95181982 -52.42285156 637.17700195 C-90.12322863 617.97646502 -124.78015202 593.94099427 -156.95166016 566.52758789 C-157.73851196 565.85977295 -157.73851196 565.85977295 -158.54125977 565.1784668 C-169.26950985 555.98282387 -179.3821329 546.19725615 -189.35229492 536.19482422 C-191.33805692 534.20366012 -193.32916756 532.21795568 -195.32080078 530.23266602 C-201.42916497 524.12777996 -207.4724161 518.03496787 -213.01416016 511.40258789 C-213.89047964 510.39235748 -214.76803029 509.38319336 -215.64697266 508.37524414 C-222.54733381 500.31761239 -229.03332418 491.99246723 -235.41308594 483.51831055 C-236.92159938 481.52490136 -238.44694874 479.5458994 -239.97900391 477.57055664 C-256.40688125 456.25067558 -270.19036675 433.02438706 -283.01416016 409.40258789 C-283.47693359 408.55760742 -283.93970703 407.71262695 -284.41650391 406.84204102 C-298.48830929 381.04373114 -309.28856725 354.07717164 -319.01416016 326.40258789 C-319.35141113 325.46189453 -319.68866211 324.52120117 -320.03613281 323.55200195 C-331.43569636 291.72846842 -338.02876014 258.42553977 -342.76416016 225.02758789 C-342.86530121 224.32542145 -342.96644226 223.623255 -343.07064819 222.89981079 C-346.22264574 200.77794545 -347.33042181 178.74322343 -347.2199707 156.40771484 C-347.20159192 152.5758602 -347.19946298 148.74424797 -347.19970703 144.91235352 C-347.17165831 123.34948345 -346.18419327 102.34013182 -343.32666016 80.96508789 C-343.19543762 79.96799805 -343.06421509 78.9709082 -342.92901611 77.94360352 C-340.72048795 61.25887121 -338.07770101 44.74872708 -334.01416016 28.40258789 C-333.71856201 27.14736328 -333.42296387 25.89213867 -333.1184082 24.59887695 C-332.79654541 23.33269531 -332.47468262 22.06651367 -332.14306641 20.76196289 C-331.8550415 19.60148438 -331.5670166 18.44100586 -331.27026367 17.24536133 C-330.01416016 14.40258789 -330.01416016 14.40258789 -327.79125977 12.92700195 C-324.84408787 12.08624026 -322.06418282 11.68956873 -319.01416016 11.40258789 C-317.20456861 11.12250193 -315.39602283 10.83560507 -313.58837891 10.54321289 C-304.3787464 9.1137828 -295.13216451 7.96884657 -285.88671875 6.7980957 C-282.78442106 6.40515417 -279.68247123 6.00955506 -276.58056641 5.61352539 C-190.62594975 -5.33569166 -102.59627398 -9.51994288 0 0 Z " fill="#302681" transform="translate(1363.01416015625,942.597412109375)"/>
<path d="M0 0 C2.35343953 0.25696298 4.70379477 0.45463639 7.06445312 0.63183594 C30.58238032 2.48766901 54.21177339 7.11732718 77.10693359 12.70751953 C79.35479404 13.24804825 81.60731992 13.75625896 83.86523438 14.25292969 C94.60480282 16.63310323 104.99068078 19.79322147 115.42382812 23.26464844 C116.56770996 23.63976562 117.7115918 24.01488281 118.89013672 24.40136719 C139.16801564 31.07210281 158.88715962 38.66096617 178.42382812 47.26464844 C179.29555664 47.64717773 180.16728516 48.02970703 181.06542969 48.42382812 C192.67859458 53.56827802 203.77180577 59.66900818 214.86425781 65.84228516 C217.14224832 67.10817344 219.42604415 68.3625165 221.71289062 69.61230469 C249.73746837 85.01734483 275.92366517 103.75204866 300.42382812 124.26464844 C300.92301758 124.6789209 301.42220703 125.09319336 301.93652344 125.52001953 C315.21419534 136.54122168 327.65974713 148.33052972 339.83740234 160.54785156 C341.81428823 162.53015088 343.79653851 164.50697477 345.77929688 166.48339844 C351.87151788 172.57213894 357.89589083 178.65054777 363.42382812 185.26464844 C364.30015966 186.27486839 365.17771035 187.28403242 366.05664062 188.29199219 C373.53314338 197.02239117 380.52506202 206.07353954 387.42382812 215.26464844 C387.99536621 216.02052246 388.5669043 216.77639648 389.15576172 217.55517578 C401.65265715 234.10021383 413.02490374 251.32710987 423.42382812 269.26464844 C423.7733252 269.86599609 424.12282227 270.46734375 424.48291016 271.08691406 C427.19574962 275.77711758 429.82911156 280.50817505 432.42382812 285.26464844 C433.09454346 286.49320557 433.09454346 286.49320557 433.77880859 287.74658203 C452.22852568 321.7769047 467.11305073 357.92850846 477.42382812 395.26464844 C477.84390137 396.7602832 477.84390137 396.7602832 478.27246094 398.28613281 C485.62397766 424.66654765 490.92929965 451.34675409 494.29882812 478.51464844 C494.4023761 479.34773529 494.50592407 480.18082214 494.61260986 481.03915405 C496.942928 500.04464844 497.61199308 518.77559277 497.60913086 537.92016602 C497.60901066 541.89770194 497.62945128 545.87504847 497.6484375 549.85253906 C497.69372829 570.64375309 496.45174988 591.20484659 494.42382812 611.88964844 C494.35372025 612.62073318 494.28361237 613.35181793 494.21138 614.10505676 C493.66049567 619.02798089 493.66049567 619.02798089 491.42382812 621.26464844 C490.98216309 620.89815186 490.54049805 620.53165527 490.08544922 620.15405273 C480.9193545 612.5559362 471.70724557 605.03462587 462.30615234 597.72900391 C460.23938617 596.12116168 458.17721159 594.50753332 456.11523438 592.89355469 C440.47050117 580.66356752 424.58239546 568.80697183 408.42382812 557.26464844 C407.70404785 556.74773438 406.98426758 556.23082031 406.24267578 555.69824219 C376.02796068 534.03972644 344.53589289 513.97607119 312.42382812 495.26464844 C311.39306152 494.66217285 310.36229492 494.05969727 309.30029297 493.43896484 C293.83518072 484.40843133 278.24062572 475.66422719 262.42382812 467.26464844 C261.51165527 466.77963867 260.59948242 466.29462891 259.65966797 465.79492188 C252.94100542 462.23266989 246.19221056 458.73143064 239.42382812 455.26464844 C238.84266235 454.966875 238.26149658 454.66910156 237.66271973 454.36230469 C216.85580334 443.71271336 195.81747572 433.68078067 174.42382812 424.26464844 C173.76805786 423.97565674 173.1122876 423.68666504 172.43664551 423.38891602 C135.54256659 407.15707984 97.80302174 393.0165572 59.65753174 380.02636719 C57.49767953 379.28983262 55.33920237 378.54941342 53.18115234 377.80761719 C36.40748609 372.04769804 19.55639057 366.84851307 2.42382812 362.26464844 C0.19064826 361.66218014 -2.04242246 361.05930716 -4.27539062 360.45605469 C-7.52353891 359.5794264 -10.77199688 358.70418531 -14.02246094 357.83618164 C-18.6027654 356.61249618 -23.17959443 355.38084034 -27.74169922 354.09082031 C-38.21439851 351.13331399 -48.72010011 348.45005768 -59.32617188 346.01464844 C-60.13845245 345.82722076 -60.95073303 345.63979309 -61.78762817 345.44668579 C-91.13904098 338.69946591 -120.7939325 332.7741725 -150.57617188 328.26464844 C-151.25366486 328.16148315 -151.93115784 328.05831787 -152.62918091 327.95202637 C-182.78963584 323.36393782 -212.94748218 319.03214711 -243.36816406 316.60986328 C-246.568462 316.35220969 -249.76619046 316.0710597 -252.96386719 315.78271484 C-265.20129588 314.68116888 -277.42584863 313.69473338 -289.70117188 313.13964844 C-290.62095825 313.09795532 -291.54074463 313.05626221 -292.48840332 313.01330566 C-315.40356753 312.03197074 -338.33970141 312.04298261 -361.27169037 312.01877594 C-364.26921231 312.01472541 -367.26670823 312.00723278 -370.26422119 311.9989624 C-391.73079215 311.94735056 -413.14641675 312.20993076 -434.59179688 313.21777344 C-435.51691826 313.26087395 -436.44203964 313.30397446 -437.39519501 313.34838104 C-440.00044639 313.47258967 -442.60523694 313.60349908 -445.20996094 313.73828125 C-445.97259499 313.77608452 -446.73522903 313.81388779 -447.52097321 313.85283661 C-451.60435339 314.07708218 -455.55454788 314.52998506 -459.57617188 315.26464844 C-461.29279253 315.42152448 -463.01193979 315.55269981 -464.73242188 315.65917969 C-465.73587646 315.72548584 -466.73933105 315.79179199 -467.77319336 315.86010742 C-468.86317627 315.93173096 -469.95315918 316.00335449 -471.07617188 316.07714844 C-493.72840246 317.66780197 -516.54877694 319.66809433 -538.95874023 323.40112305 C-542.54119358 323.99743142 -545.94121308 324.40636223 -549.57617188 324.26464844 C-531.62297284 282.61132686 -508.23741308 243.95607511 -480.20117188 208.32714844 C-479.74838867 207.7514209 -479.29560547 207.17569336 -478.82910156 206.58251953 C-471.69849145 197.5722 -464.19206859 188.86657749 -456.57617188 180.26464844 C-455.99609375 179.60045898 -455.41601562 178.93626953 -454.81835938 178.25195312 C-448.24033095 170.81297687 -441.27702301 163.77935911 -434.25683594 156.76000977 C-432.20673169 154.7077142 -430.16478437 152.64752929 -428.12304688 150.58691406 C-421.62897474 144.06570669 -415.14011528 137.78421247 -407.88476562 132.10571289 C-405.4657309 130.17657363 -403.20942205 128.12862505 -400.95117188 126.01464844 C-394.60128922 120.24475507 -387.75810951 115.13893738 -380.89550781 110.00146484 C-379.35199257 108.84561564 -377.81096094 107.68644221 -376.27246094 106.52392578 C-299.95371595 48.8741182 -209.0179092 13.7732762 0 0 Z " fill="#302680" transform="translate(1611.576171875,548.7353515625)"/>
<path d="M0 0 C3.04275932 0.00768481 6.08550589 0.01171883 9.12827301 0.01493073 C31.9645945 0.04339047 54.79553997 0.09826861 77.61258698 1.13254547 C78.4775882 1.17166046 79.34258942 1.21077545 80.2338028 1.25107574 C92.50597559 1.8348364 104.73514802 2.89253983 116.96903229 4.0063858 C119.55491824 4.240974 122.14122649 4.46989198 124.72782135 4.69651031 C149.40661163 6.87001468 173.88020265 9.91285309 198.37625885 13.60642242 C202.18461328 14.17909214 205.99717634 14.71641269 209.81180573 15.24582672 C266.59400342 23.32641771 322.46502494 36.44981853 377.44788361 52.58759308 C379.62550408 53.22475074 381.80484867 53.85557458 383.98490143 54.48435211 C465.79919558 78.164469 544.23944941 111.38286541 648.73758698 165.25754547 C650.30331451 166.13708893 650.30331451 166.13708893 651.90067291 167.03440094 C668.62776509 176.43827295 685.12595353 186.18650974 701.46659088 196.246315 C704.48287065 198.10092858 707.50607434 199.9436964 710.53055573 201.78488922 C723.11044903 209.49461958 735.38369988 217.6315376 747.61258698 225.88254547 C748.76475204 226.65864166 748.76475204 226.65864166 749.94019318 227.45041656 C760.64828537 234.67314997 771.17692559 242.11532663 781.61702728 249.7196579 C784.65040137 251.9195433 787.69978539 254.09679504 790.74906158 256.27455902 C799.09369765 262.23547987 807.21934445 268.44466148 815.28446198 274.77707672 C818.95650255 277.65822863 822.66411674 280.48870465 826.38553619 283.30564117 C832.8243092 288.18228913 839.17103721 293.12209441 845.24710846 298.44797516 C847.68311662 300.57641244 850.10167024 302.50026765 852.79618073 304.29660797 C855.51713466 306.13070452 857.68093318 307.69961159 859.73758698 310.25754547 C860.53385049 314.48338494 859.68565624 318.10732391 858.73758698 322.25754547 C858.50555573 323.5079361 858.27352448 324.75832672 858.03446198 326.04660797 C857.19327013 330.51208382 856.25828982 334.95055362 855.25785065 339.38303375 C854.393222 343.21718283 853.57095544 347.05113338 852.84305573 350.91379547 C850.89709406 361.23373781 848.47032279 371.22248697 845.35330963 381.24826813 C844.32876543 384.59164591 843.37772553 387.95560914 842.42508698 391.32004547 C841.93588776 393.03901031 841.93588776 393.03901031 841.43680573 394.79270172 C841.20606354 395.60610016 840.97532135 396.4194986 840.73758698 397.25754547 C834.95497057 393.18154651 829.77949226 388.61510858 824.58133698 383.82395172 C821.048609 380.63576178 817.37770824 377.65113763 813.67508698 374.66379547 C810.37404503 371.95975047 807.15013082 369.17621687 803.92508698 366.38254547 C797.58973127 360.91397807 791.07173108 355.71912342 784.45682526 350.59445953 C782.79247348 349.30022631 781.13651986 347.99612581 779.48368073 346.68723297 C764.22027727 334.60285311 748.77038487 322.79342744 732.78055573 311.68430328 C730.72608282 310.24951126 728.68341684 308.7993545 726.64383698 307.34348297 C715.50534969 299.39962317 704.16695736 291.77592818 692.73758698 284.25754547 C691.99508698 283.76899078 691.25258698 283.2804361 690.48758698 282.77707672 C656.59733576 260.53659936 621.45539127 240.3976774 585.73758698 221.25754547 C584.90275787 220.80782379 584.06792877 220.35810211 583.20780182 219.8947525 C571.2981232 213.4848358 559.20348539 207.53235743 546.96463776 201.777565 C543.56054114 200.17415257 540.16280749 198.55768644 536.76493073 196.94113922 C482.5191014 171.21477146 426.15104073 150.09716754 368.77420807 132.49875641 C365.21132201 131.40572566 361.65526842 130.29196285 358.10086823 129.17160797 C347.59088478 125.88061183 337.03686709 122.96167255 326.32791901 120.38498688 C321.16640732 119.14104172 316.0633947 117.78678059 310.96805573 116.29270172 C303.58267995 114.15890228 296.12854935 112.48220416 288.61258698 110.88254547 C287.20317208 110.5794968 285.79383109 110.27610423 284.38455963 109.97238922 C281.52744436 109.35722028 278.66978516 108.74466229 275.81180573 108.13352203 C272.12736287 107.34390588 268.44764464 106.53398744 264.76883698 105.71848297 C251.1576701 102.71899062 237.50604813 100.03226672 223.80008698 97.50754547 C222.99343597 97.35865875 222.18678497 97.20977203 221.35569 97.0563736 C203.2630343 93.7270327 185.10656441 91.17286351 166.86258698 88.82004547 C165.04875519 88.58568787 165.04875519 88.58568787 163.19828033 88.34659576 C142.91200663 85.74399666 122.65247569 83.77756002 102.2395401 82.5353775 C99.90684128 82.35030979 97.57882663 82.09139191 95.26248932 81.75925446 C91.53019656 81.22802703 87.81847518 80.93254968 84.05789948 80.72238922 C83.29054474 80.6792308 82.52319 80.63607239 81.73258209 80.59160614 C1.46570187 76.28078448 -80.83466007 77.27011307 -160.32247162 89.8166275 C-165.51756622 90.59576227 -170.73408273 91.19818791 -175.94991302 91.82004547 C-184.2595685 92.82289969 -192.47723574 94.06817692 -200.70381927 95.60910797 C-204.21834472 96.24951546 -207.72356469 96.77476822 -211.26241302 97.25754547 C-209.86008445 89.01589408 -207.52635529 81.15863971 -205.01241302 73.19504547 C-204.81232635 72.55714081 -204.61223969 71.91923615 -204.40608978 71.26200104 C-196.09742987 44.77431171 -196.09742987 44.77431171 -190.41866302 32.81613922 C-188.80338235 29.24178503 -187.52287752 25.57244384 -186.25460052 21.86301422 C-185.92717865 21.00320953 -185.59975677 20.14340485 -185.26241302 19.25754547 C-184.92725677 18.20309235 -184.59210052 17.14863922 -184.24678802 16.06223297 C-182.06964951 12.98509625 -181.69435406 12.77010844 -178.22335052 11.97238922 C-176.36603993 11.68169325 -174.50309835 11.42596768 -172.63741302 11.19504547 C-171.59141937 11.04640045 -170.54542572 10.89775543 -169.46773529 10.74460602 C-144.98069168 7.44163985 -120.18713194 4.73437858 -95.50679779 3.49265289 C-92.3433854 3.32067661 -92.3433854 3.32067661 -89.58252716 2.77574921 C-85.69255009 2.16860121 -81.82313409 1.92583372 -77.89620209 1.73117828 C-77.07688957 1.68878273 -76.25757706 1.64638718 -75.41343689 1.60270691 C-72.70189475 1.46594228 -69.99008474 1.3370221 -67.27803802 1.21067047 C-66.33392311 1.16630104 -65.3898082 1.12193161 -64.41708374 1.07621765 C-42.94454836 0.09011848 -21.49173684 -0.05929744 0 0 Z " fill="#FCFDFD" transform="translate(1244.2624130249023,859.7424545288086)"/>
<path d="M0 0 C4.95 -0.103125 9.9 -0.20625 15 -0.3125 C16.54558594 -0.35802002 18.09117188 -0.40354004 19.68359375 -0.45043945 C27.27347856 -0.52695039 33.15736543 -0.38761003 39 5 C39.66773438 5.6084375 40.33546875 6.216875 41.0234375 6.84375 C41.46945312 7.3903125 41.91546875 7.936875 42.375 8.5 C42.83648438 9.0465625 43.29796875 9.593125 43.7734375 10.15625 C48.43161804 17.15835578 47.76053153 25.91288205 47 34 C45.4486195 41.20704611 41.03147455 45.94532158 35 50 C30.87765536 52.02487437 27.51692151 52.23418657 22.94921875 52.1953125 C21.14070435 52.18781982 21.14070435 52.18781982 19.2956543 52.18017578 C17.77496338 52.16196777 16.25427246 52.14375977 14.6875 52.125 C9.840625 52.08375 4.99375 52.0425 0 52 C0 34.84 0 17.68 0 0 Z " fill="#089746" transform="translate(1204,873)"/>
<path d="M0 0 C5.59269015 3.50421699 9.12106031 8.86318094 11.1875 15.0625 C12.39461835 23.97072781 10.14408374 30.65404541 5.1875 38.0625 C-0.17038663 44.4088437 -6.16891171 47.17758536 -14.25390625 48.4453125 C-21.32702335 48.95448838 -26.43353807 46.58311694 -31.8125 42.0625 C-36.97253163 35.88466397 -38.24745186 29.93348794 -38.15234375 22.0078125 C-37.3090021 14.69885153 -33.1801744 8.4355319 -27.81640625 3.53515625 C-19.69774436 -2.43118982 -9.26451069 -4.47681053 0 0 Z " fill="#069645" transform="translate(2065.8125,1155.9375)"/>
<path d="M0 0 C5.43656732 3.82769699 9.40827364 9.35675563 11.40234375 15.69140625 C12.39772711 24.85941092 12.09543776 33.07689302 6.40234375 40.69140625 C2.44970781 44.91755048 -1.68855667 48.32584479 -7.55078125 49.0625 C-14.96827651 49.21190453 -20.00362882 48.77456359 -25.59765625 43.69140625 C-31.17883578 38.21216608 -34.91336788 32.70191367 -35.16821289 24.6262207 C-35.13764565 16.33694201 -34.58956515 10.01280912 -28.59765625 3.69140625 C-19.58380448 -3.87462477 -10.56695789 -5.71494949 0 0 Z " fill="#069645" transform="translate(1104.59765625,885.30859375)"/>
<path d="M0 0 C5.20353452 3.10231868 8.27961308 7.93422615 10.9375 13.25 C12.95122004 23.7213442 11.54988979 31.57839269 5.5625 40.5 C0.90587297 46.0032865 -4.77557946 48.74215085 -11.81640625 49.88671875 C-18.91932362 50.3869242 -24.03381662 48.04139348 -29.4375 43.5 C-34.85371952 37.0154436 -35.79344967 30.95861107 -35.72265625 22.67578125 C-35.11739238 15.9349658 -32.3881678 9.19010633 -27.4375 4.5 C-19.33017776 -2.03917481 -9.88120882 -4.19431808 0 0 Z " fill="#059644" transform="translate(1713.4375,956.5)"/>
<path d="M0 0 C7.23880138 1.544024 14.21336325 3.51172776 21.25 5.8125 C22.3121875 6.14314453 23.374375 6.47378906 24.46875 6.81445312 C31.83017303 9.22356205 35.49244715 11.32225582 39.875 17.75 C41.39398613 22.13818217 41.16409571 25.53629507 40 30 C37.35250618 35.29498764 33.83710136 37.83727988 29 41 C29.33 41.66 29.66 42.32 30 43 C30.76082218 49.78887482 29.2343819 55.6293516 27 62 C20.25 61.125 20.25 61.125 18 60 C18.144375 59.39414062 18.28875 58.78828125 18.4375 58.1640625 C19.80009636 52.01345393 20.24088843 46.28986455 20 40 C19.23816406 39.81824219 18.47632813 39.63648438 17.69140625 39.44921875 C11.34110136 37.90326437 5.16876182 36.15906664 -1 34 C-1.19335938 34.79664063 -1.38671875 35.59328125 -1.5859375 36.4140625 C-4.17223199 46.93848858 -4.17223199 46.93848858 -6 52 C-8.64 51.34 -11.28 50.68 -14 50 C-14.98298255 46.25400308 -14.98288261 43.95804402 -13.73657227 40.30151367 C-13.43618546 39.40095749 -13.13579865 38.50040131 -12.8263092 37.57255554 C-12.49304123 36.6140419 -12.15977325 35.65552826 -11.81640625 34.66796875 C-11.48205063 33.67622147 -11.14769501 32.68447418 -10.8032074 31.66267395 C-9.73418823 28.50034645 -8.64860345 25.34399565 -7.5625 22.1875 C-6.83418716 20.04269068 -6.10696045 17.89751222 -5.38085938 15.75195312 C-3.5998141 10.49695576 -1.80513994 5.24676608 0 0 Z " fill="#089746" transform="translate(1623,927)"/>
<path d="M0 0 C4.01928285 3.93725667 7.11398435 7.36257759 7.375 13.125 C7.34140114 18.30762408 5.45275574 22.1601171 2 26 C1.34 26 0.68 26 0 26 C0.52400391 26.81404297 0.52400391 26.81404297 1.05859375 27.64453125 C1.51363281 28.35996094 1.96867187 29.07539062 2.4375 29.8125 C3.11619141 30.87404297 3.11619141 30.87404297 3.80859375 31.95703125 C5.94558409 35.62144419 6.11139201 38.53167896 6.0625 42.6875 C6.05347656 43.68136719 6.04445313 44.67523437 6.03515625 45.69921875 C6.02355469 46.45847656 6.01195312 47.21773437 6 48 C3.29120665 49.35439668 0.99066732 49.06501451 -2 49 C-2.18175781 48.11957031 -2.36351562 47.23914063 -2.55078125 46.33203125 C-2.80214844 45.17058594 -3.05351563 44.00914062 -3.3125 42.8125 C-3.55613281 41.66394531 -3.79976562 40.51539063 -4.05078125 39.33203125 C-5.23442227 34.71632974 -5.23442227 34.71632974 -8 31 C-11.57674785 30.37522502 -15.07105912 30.53233917 -18.6875 30.6875 C-20.16959961 30.72133789 -20.16959961 30.72133789 -21.68164062 30.75585938 C-24.12173907 30.81479895 -26.56105961 30.90448014 -29 31 C-28.67 37.6 -28.34 44.2 -28 51 C-31.3 51 -34.6 51 -38 51 C-40.38776806 14.12295442 -40.38776806 14.12295442 -40 -1 C-38.91460938 -1.06058594 -37.82921875 -1.12117187 -36.7109375 -1.18359375 C-35.26561514 -1.26806064 -33.82030318 -1.35270551 -32.375 -1.4375 C-31.66214844 -1.47681641 -30.94929688 -1.51613281 -30.21484375 -1.55664062 C-5.0315553 -3.05839636 -5.0315553 -3.05839636 0 0 Z " fill="#089746" transform="translate(1176,878)"/>
<path d="M0 0 C6.29242078 1.99886449 12.0730821 4.7402803 18 7.625 C19.06734375 8.12128906 20.1346875 8.61757813 21.234375 9.12890625 C27.75186584 12.31469468 32.67419468 15.37042578 36 22 C37.24547473 27.10242875 36.61930935 31.60655397 34.5 36.375 C31.38988749 39.64061813 28.05240883 42.01765282 24 44 C23.34 44 22.68 44 22 44 C22.1546875 45.85625 22.1546875 45.85625 22.3125 47.75 C22.36311523 54.09715037 19.67143155 59.36137126 17 65 C13.17902761 64.46930939 10.93828597 63.50298434 8 61 C8.27714844 60.38253906 8.55429688 59.76507812 8.83984375 59.12890625 C11.33138881 53.30347882 12.59211431 48.32222824 13 42 C11.74316406 41.61714844 11.74316406 41.61714844 10.4609375 41.2265625 C6.66792162 39.88231082 3.19775209 38.20985807 -0.375 36.375 C-1.01566406 36.05015625 -1.65632813 35.7253125 -2.31640625 35.390625 C-3.87947501 34.59742593 -5.44000622 33.79922969 -7 33 C-7.15275391 34.04220703 -7.15275391 34.04220703 -7.30859375 35.10546875 C-8.11717006 38.49052552 -9.46675713 41.22287019 -11.0625 44.3125 C-11.88427734 45.91544922 -11.88427734 45.91544922 -12.72265625 47.55078125 C-13.14417969 48.35902344 -13.56570313 49.16726563 -14 50 C-17.40312738 48.94124926 -20.01353231 47.99097846 -23 46 C-21.55151871 41.20890517 -19.53437708 36.86486737 -17.2265625 32.44140625 C-16.86154633 31.73402817 -16.49653015 31.02665009 -16.12045288 30.2978363 C-15.35088165 28.80843068 -14.57924759 27.3200893 -13.80566406 25.83276367 C-12.63153656 23.57506896 -11.46365586 21.31423311 -10.296875 19.05273438 C-9.54463536 17.59876968 -8.79204266 16.14498758 -8.0390625 14.69140625 C-7.52166 13.69108116 -7.52166 13.69108116 -6.99380493 12.67054749 C-4.76287563 8.38524379 -2.42021438 4.1814461 0 0 Z " fill="#079745" transform="translate(1816,1001)"/>
<path d="M0 0 C2.14576637 -0.02685938 4.29162645 -0.04633088 6.4375 -0.0625 C7.63246094 -0.07410156 8.82742188 -0.08570313 10.05859375 -0.09765625 C13 0 13 0 14 1 C14.41535461 2.75236515 14.77946544 4.51693873 15.12109375 6.28515625 C15.44110352 7.91807617 15.44110352 7.91807617 15.76757812 9.58398438 C15.98865234 10.73189453 16.20972656 11.87980469 16.4375 13.0625 C17.79941016 20.09027973 19.17776981 27.07552529 21 34 C21.35827881 33.09644775 21.71655762 32.19289551 22.08569336 31.26196289 C23.41186217 27.91945176 24.74141972 24.57829747 26.07202148 21.23754883 C26.64814753 19.78967664 27.22334586 18.34143496 27.79760742 16.89282227 C28.62176533 14.8142946 29.44921768 12.73710555 30.27734375 10.66015625 C30.53466782 10.00910416 30.79199188 9.35805206 31.05711365 8.68727112 C32.88612829 4.11387171 32.88612829 4.11387171 34 3 C36.18639453 2.92741054 38.37500389 2.91626217 40.5625 2.9375 C42.35880859 2.95103516 42.35880859 2.95103516 44.19140625 2.96484375 C45.11824219 2.97644531 46.04507812 2.98804688 47 3 C46.61665671 8.47743022 46.22571461 13.95424947 45.828125 19.43066406 C45.69426664 21.28859238 45.5623829 23.14666417 45.43261719 25.00488281 C44.72637674 35.09868856 43.99402948 45.06312907 42 55 C39.36 55 36.72 55 34 55 C33.9111659 47.88340172 33.91609686 41.04537038 35 34 C35.03380267 32.26592315 35.04254882 30.53124448 35.03125 28.796875 C35.02673828 27.89807617 35.02222656 26.99927734 35.01757812 26.07324219 C35.01177734 25.38907227 35.00597656 24.70490234 35 24 C34.69296143 24.87325928 34.38592285 25.74651855 34.06958008 26.64624023 C32.92090307 29.88216583 31.75432987 33.11040666 30.57495117 36.33520508 C30.06825784 37.73230284 29.56884843 39.13206466 29.0769043 40.53442383 C28.36844358 42.54993392 27.63433672 44.55441118 26.89453125 46.55859375 C26.24254761 48.37315063 26.24254761 48.37315063 25.57739258 50.22436523 C24 53 24 53 21.46362305 53.92993164 C19.07071444 53.9979888 17.26272448 53.75424149 15 53 C13.26426865 46.3894487 11.68207492 39.75792345 10.3125 33.0625 C9.93544922 31.22365234 9.93544922 31.22365234 9.55078125 29.34765625 C9.07827765 26.47577269 8.88449425 23.89864435 9 21 C8.34 21 7.68 21 7 21 C6.97494385 21.58378418 6.9498877 22.16756836 6.92407227 22.76904297 C6.80643801 25.47116313 6.68448727 28.17307299 6.5625 30.875 C6.52318359 31.7928125 6.48386719 32.710625 6.44335938 33.65625 C6.16209079 39.80088685 5.66041079 45.88426315 5 52 C2.03 52 -0.94 52 -4 52 C-4.40831058 40.99262722 -3.15413718 30.1755738 -2 19.25 C-1.80673472 17.37766157 -1.61402206 15.50526601 -1.421875 13.6328125 C-0.95428246 9.08785823 -0.47922772 4.54374155 0 0 Z " fill="#089746" transform="translate(1341,876)"/>
<path d="M0 0 C3.34250309 0.62415291 6.6713149 1.30603385 10 2 C10.65371582 2.13422363 11.30743164 2.26844727 11.98095703 2.40673828 C32.7285566 6.7285566 32.7285566 6.7285566 39.625 13.625 C41.82721072 19.03042632 42.08398729 24.51071546 40.33984375 30.125 C38.45793672 33.90510762 35.80377577 36.47897698 32.02832031 38.35522461 C24.61321439 40.71238575 16.61853754 38.48526585 9.375 36.5 C8.46621094 36.26152344 7.55742188 36.02304687 6.62109375 35.77734375 C4.4109295 35.19572158 2.20434584 34.6032271 0 34 C-0.14308594 35.216875 -0.28617188 36.43375 -0.43359375 37.6875 C-0.8273784 40.83777718 -1.33742182 43.90633311 -2.0625 47 C-2.23910156 47.763125 -2.41570312 48.52625 -2.59765625 49.3125 C-2.73042969 49.869375 -2.86320312 50.42625 -3 51 C-6.93795909 52.22419163 -9.16112237 51.48320272 -13 50 C-12.41340598 44.3253405 -11.34712911 39.0942351 -9.75 33.625 C-9.30055494 32.04954371 -8.85134334 30.4740208 -8.40234375 28.8984375 C-8.17144043 28.0950293 -7.94053711 27.29162109 -7.70263672 26.46386719 C-6.99785831 23.99248994 -6.31026357 21.51699228 -5.62890625 19.0390625 C-5.4081543 18.23645996 -5.18740234 17.43385742 -4.95996094 16.60693359 C-4.53945286 15.07617003 -4.11949904 13.54525406 -3.70019531 12.01416016 C-2.58115954 7.96533606 -1.36833335 3.97379001 0 0 Z " fill="#079745" transform="translate(1557,909)"/>
<path d="M0 0 C4.80142856 -0.02494747 9.60281836 -0.04297577 14.40429688 -0.05493164 C16.03353534 -0.05992239 17.66276942 -0.06671735 19.29199219 -0.07543945 C27.93196627 -0.12049453 36.41302461 -0.10156149 45 1 C45 4.3 45 7.6 45 11 C32.96900351 11.16632714 21.01181382 10.64616866 9 10 C9 13.3 9 16.6 9 20 C11.38605469 19.98259766 11.38605469 19.98259766 13.8203125 19.96484375 C15.92187382 19.95546178 18.02343642 19.94636202 20.125 19.9375 C21.17171875 19.92912109 22.2184375 19.92074219 23.296875 19.91210938 C28.3090905 19.89624793 33.07665912 19.91822787 38 21 C38 23.97 38 26.94 38 30 C27.92700932 30.11773625 18.04703341 29.83725278 8 29 C8 33.62 8 38.24 8 43 C20.54 43 33.08 43 46 43 C46 46.3 46 49.6 46 53 C30.31969816 53.2069248 14.6664523 52.57892738 -1 52 C-1.12585848 34.63540299 -0.9051736 17.34274099 0 0 Z " fill="#099747" transform="translate(1272,873)"/>
<path d="M0 0 C3.43786864 1.31419803 6.65026822 2.80953482 9.87890625 4.57421875 C10.79526855 5.07405273 11.71163086 5.57388672 12.65576172 6.08886719 C13.61498535 6.61641602 14.57420898 7.14396484 15.5625 7.6875 C16.54234863 8.22407227 17.52219727 8.76064453 18.53173828 9.31347656 C25.42122041 13.09875586 32.25632353 16.95948499 39 21 C37.78534783 24.07745908 36.52352768 27.06176804 35 30 C31.14660762 28.56610782 27.70109869 26.77184776 24.1484375 24.70703125 C23.05015625 24.07732422 21.951875 23.44761719 20.8203125 22.79882812 C19.0894221 21.80091683 17.3585654 20.80291238 15.6328125 19.79614258 C13.95577939 18.81984941 12.27095705 17.85697477 10.5859375 16.89453125 C9.5861084 16.31550049 8.5862793 15.73646973 7.55615234 15.13989258 C4.96117553 13.63783534 4.96117553 13.63783534 2 15 C0.35179805 17.60242414 0 18.86248779 0 22 C0.69150146 22.38333496 1.38300293 22.76666992 2.09545898 23.16162109 C5.21264756 24.8937715 8.32510072 26.63425987 11.4375 28.375 C13.07041992 29.27992187 13.07041992 29.27992187 14.73632812 30.203125 C15.77080078 30.78320312 16.80527344 31.36328125 17.87109375 31.9609375 C18.82943115 32.49509277 19.78776855 33.02924805 20.77514648 33.57958984 C23 35 23 35 24 37 C23.22265625 38.7265625 23.22265625 38.7265625 22.0625 40.625 C21.381875 41.73875 20.70125 42.8525 20 44 C12.44964921 40.32273981 5.06220154 36.61987091 -2.01171875 32.06640625 C-4.06458907 30.76367312 -4.06458907 30.76367312 -7 31 C-8.65 34.3 -10.3 37.6 -12 41 C-10.81241089 41.65802612 -10.81241089 41.65802612 -9.60083008 42.3293457 C-6.6465058 43.96683596 -3.69261679 45.60510607 -0.73901367 47.24389648 C0.53620491 47.95123798 1.81159314 48.65827375 3.0871582 49.36499023 C4.92704902 50.38443774 6.76631462 51.40500544 8.60546875 52.42578125 C9.71043701 53.03848877 10.81540527 53.65119629 11.95385742 54.2824707 C14.66504171 55.81113797 17.34048189 57.38351503 20 59 C18.80100302 62.0831351 17.52299523 65.06279492 16 68 C12.11197091 66.54042206 8.5541416 64.74435581 4.921875 62.734375 C4.06556488 62.26055389 4.06556488 62.26055389 3.19195557 61.77716064 C1.98765779 61.1096032 0.78420041 60.44052766 -0.41845703 59.77001953 C-2.2280564 58.76222079 -4.04152918 57.76167945 -5.85546875 56.76171875 C-12.43512461 53.11508092 -18.8349127 49.31677711 -25 45 C-23.49767148 40.98350389 -21.61639771 37.31050133 -19.55078125 33.5546875 C-19.21507614 32.94416534 -18.87937103 32.33364319 -18.53349304 31.70462036 C-17.82301628 30.41458388 -17.1110571 29.12536284 -16.39770508 27.83691406 C-15.32870118 25.9042897 -14.26658504 23.96799988 -13.20507812 22.03125 C-9.06290233 14.50942627 -4.72255437 7.17828264 0 0 Z " fill="#079745" transform="translate(1877,1032)"/>
<path d="M0 0 C8.12587298 3.80447997 15.1910265 8.47659048 20.2578125 16 C21.78647293 20.78980268 22.00725625 24.34744349 19.6953125 28.875 C19.2003125 29.555625 18.7053125 30.23625 18.1953125 30.9375 C11.64191444 27.53944175 11.64191444 27.53944175 9.7578125 25 C9.1953125 22.9375 9.1953125 22.9375 9.3203125 20.5 C9.1417809 16.84010227 7.75446509 15.49665259 5.1953125 12.9375 C1.43188032 10.61538227 -1.36408012 9.43000201 -5.8046875 9.9375 C-7.01602603 10.96276904 -7.01602603 10.96276904 -7.22265625 13.07421875 C-6.59246794 17.39130316 -4.01930252 19.62510149 -1.1171875 22.75 C-0.01095997 23.99571965 1.0919519 25.24439215 2.19140625 26.49609375 C2.71589355 27.09147949 3.24038086 27.68686523 3.78076172 28.30029297 C7.4172832 32.50921825 10.36691026 36.33247201 10.8203125 42 C10.06198657 46.77745337 8.59230542 49.54050708 5.1953125 52.9375 C0.98441695 55.62779438 -3.96972931 55.75303512 -8.8046875 54.9375 C-18.34538876 51.52293323 -25.74506065 45.9120701 -31.3046875 37.4375 C-33.17265371 33.07891218 -33.26717318 30.63943771 -32.8046875 25.9375 C-31.8046875 23.4375 -31.8046875 23.4375 -30.8046875 21.9375 C-26.81051579 23.3069303 -23.76704282 24.89050596 -20.8046875 27.9375 C-20.76121951 29.93702758 -20.7646955 31.93789988 -20.8046875 33.9375 C-18.3317719 38.69310692 -15.58353228 41.50122619 -10.8046875 43.9375 C-7.05338913 44.27274876 -7.05338913 44.27274876 -3.8046875 43.9375 C-2.92714559 41.73311167 -2.92714559 41.73311167 -2.8046875 38.9375 C-4.97931324 34.68709515 -8.06734108 31.55092774 -11.3046875 28.0625 C-16.08868071 22.80562443 -19.19418652 18.41735557 -20.4296875 11.375 C-19.58102593 6.70736136 -17.34798204 4.01756566 -13.8046875 0.9375 C-8.94200726 -1.88021587 -5.18198285 -1.963091 0 0 Z " fill="#079745" transform="translate(2003.8046875,1111.0625)"/>
<path d="M0 0 C8.84257632 3.12156275 16.57617832 8.22740009 22.0625 15.875 C23.46889519 20.56298395 23.21509923 25.56980154 21 30 C14 27.4 14 27.4 11 25 C10.8125 22.125 10.8125 22.125 11 19 C10.19529397 16.04941123 9.77113847 14.50522865 7.1875 12.8125 C6.465625 12.544375 5.74375 12.27625 5 12 C4.195625 11.608125 3.39125 11.21625 2.5625 10.8125 C-0.38988863 9.87637678 -2.05809572 10.15945592 -5 11 C-5.74680096 12.79942353 -5.74680096 12.79942353 -6 15 C-3.85784332 19.19262572 -0.62362795 22.49330229 3 25.4375 C7.36920386 29.16952829 10.43379044 33.86758089 13 39 C13.0442316 43.50277673 12.56748767 47.0802786 10.1875 50.9375 C5.81794371 55.05736736 1.95016417 55.55134155 -3.91796875 55.44921875 C-12.56804062 54.18843514 -20.82399287 48.85530429 -26.46484375 42.296875 C-30.54575943 36.73507302 -30.55601565 31.72161138 -30 25 C-27.67222665 24.18296697 -26.4588257 23.82615921 -24.11328125 24.71484375 C-22.16794192 26.03564898 -20.55710421 27.22999414 -19 29 C-18.74674048 30.99441871 -18.49794314 32.99476737 -18.42578125 35.00390625 C-17.59728829 38.88794204 -14.18102396 40.93200513 -11 43 C-7.23387528 45.1815517 -4.34790968 45.1672273 0 45 C0.33290317 41.40568613 0.38970082 39.56741161 -1.6875 36.54296875 C-2.8321875 35.37701172 -2.8321875 35.37701172 -4 34.1875 C-4.81597656 33.3315625 -5.63195313 32.475625 -6.47265625 31.59375 C-7.30667969 30.7378125 -8.14070313 29.881875 -9 29 C-10.49037031 27.40623682 -11.97037326 25.8026854 -13.4375 24.1875 C-14.07558594 23.50042969 -14.71367188 22.81335937 -15.37109375 22.10546875 C-17.79563451 18.97158993 -18.84491679 16.01911821 -19.4375 12.125 C-18.84066212 7.8618723 -16.87619401 5.14355853 -14 2 C-9.44735439 -1.03509707 -5.33204321 -0.75693578 0 0 Z " fill="#069645" transform="translate(1946,1073)"/>
<path d="M0 0 C6.40340812 3.72657358 10.47082427 9.41802685 12.6875 16.4375 C12.90329531 19.16131638 12.83170223 21.69765767 12.6875 24.4375 C9.40468087 23.87963531 6.59033611 23.09416909 3.6875 21.4375 C2.01988026 18.93607039 0.92994333 16.51835789 -0.14453125 13.71484375 C-1.54541381 10.98335702 -2.43492116 10.40020005 -5.3125 9.4375 C-9.8842253 8.72264841 -13.42878286 9.02065229 -17.625 11 C-21.68719084 14.68431262 -23.9679286 17.73900263 -24.66015625 23.16015625 C-24.81902847 28.29241982 -24.8334532 32.3949241 -21.3125 36.4375 C-18.08502945 38.58914703 -17.10744361 38.70995079 -13.375 38.6875 C-12.52035156 38.69265625 -11.66570312 38.6978125 -10.78515625 38.703125 C-8.19275433 38.42463633 -6.54735766 37.74419172 -4.3125 36.4375 C-6.2925 35.1175 -8.2725 33.7975 -10.3125 32.4375 C-9.4375 27.6875 -9.4375 27.6875 -8.3125 25.4375 C-4.09474268 26.79275536 -0.01828678 28.33950114 4.0625 30.0625 C5.65191406 30.73152344 5.65191406 30.73152344 7.2734375 31.4140625 C8.07007813 31.75179687 8.86671875 32.08953125 9.6875 32.4375 C9.11016085 38.1009221 6.98133632 42.70913948 4.625 47.8125 C4.24794922 48.64394531 3.87089844 49.47539063 3.48242188 50.33203125 C2.55706644 52.37015588 1.6253163 54.4050867 0.6875 56.4375 C-5.0625 55.6875 -5.0625 55.6875 -7.3125 53.4375 C-6.6525 51.7875 -5.9925 50.1375 -5.3125 48.4375 C-6.3025 48.9325 -6.3025 48.9325 -7.3125 49.4375 C-14.45289064 50.17077244 -20.44351735 49.80062526 -26.3125 45.4375 C-32.28603335 40.0748962 -35.2595086 33.77889891 -35.9375 25.8125 C-35.67389529 18.07210719 -31.57053878 9.83077813 -26.2421875 4.28125 C-18.61002296 -1.63875596 -9.15491847 -4.1021077 0 0 Z " fill="#079745" transform="translate(1775.3125,981.5625)"/>
<path d="M0 0 C4.7977991 -0.10356062 9.23198797 0.23521405 13.95703125 1.05859375 C15.23384766 1.27966797 16.51066406 1.50074219 17.82617188 1.72851562 C18.48029053 1.84493408 19.13440918 1.96135254 19.80834961 2.08129883 C21.82354782 2.43946355 23.84027285 2.78777393 25.85742188 3.13476562 C35.72336066 4.86168033 35.72336066 4.86168033 38 6 C37.67 8.64 37.34 11.28 37 14 C26.81113109 13.48612661 17.0060485 11.90534337 7 10 C7 12.64 7 15.28 7 18 C7.62567871 18.08564209 8.25135742 18.17128418 8.89599609 18.25952148 C11.72284647 18.64853518 14.54891732 19.0429495 17.375 19.4375 C18.35984375 19.57220703 19.3446875 19.70691406 20.359375 19.84570312 C21.77089844 20.04389648 21.77089844 20.04389648 23.2109375 20.24609375 C24.08024902 20.36654053 24.94956055 20.4869873 25.84521484 20.61108398 C28 21 28 21 30 22 C30.04241723 24.33294775 30.04092937 26.66702567 30 29 C29.505 29.495 29.505 29.495 29 30 C20.87596915 29.83851315 12.94981683 28.58996337 5 27 C4.34 30.96 3.68 34.92 3 39 C4.44375 39.103125 5.8875 39.20625 7.375 39.3125 C15.65459105 40.05039278 23.81793622 41.56881393 32 43 C32.125 49.75 32.125 49.75 31 52 C18.17604161 50.72264635 5.62848839 48.55507923 -7 46 C-6.4879563 35.69723061 -4.85652348 25.80246815 -2.9375 15.6875 C-2.6523703 14.15701725 -2.36786135 12.62641872 -2.08398438 11.09570312 C-1.39644879 7.39576592 -0.70061261 3.69748227 0 0 Z " fill="#079745" transform="translate(1452,894)"/>
<path d="M0 0 C3.01125 -0.0825 6.0225 -0.165 9.125 -0.25 C10.06230957 -0.28641602 10.99961914 -0.32283203 11.96533203 -0.36035156 C17.48518089 -0.43324414 20.65203476 0.27026107 25 4 C28.792772 9.18345507 28.68119413 14.82322624 28 21 C26.45477005 25.24938236 24.4543237 28.08541438 21 31 C18.23434618 31.92188461 16.61716298 32.11785222 13.76953125 32.09765625 C12.68442261 32.09390991 12.68442261 32.09390991 11.57739258 32.09008789 C10.20877075 32.07643188 10.20877075 32.07643188 8.8125 32.0625 C5.904375 32.041875 2.99625 32.02125 0 32 C0 21.44 0 10.88 0 0 Z " fill="#FDFEFD" transform="translate(1214,883)"/>
<path d="M0 0 C3.91001131 2.1053907 6.69539094 4.20338969 9 8 C9.90440089 14.36627292 9.80033098 20.62711827 6 26 C2.8361564 29.55932405 0.76460852 31.68419266 -4.0859375 32.23828125 C-7.97998868 32.36453888 -10.3945668 32.32903978 -13.875 30.4375 C-17.32185126 26.48375884 -18.77770334 22.74661659 -19.4375 17.5625 C-18.64179767 11.08320962 -16.24018691 6.66969308 -11.1875 2.5 C-7.34631626 -0.10829916 -4.68315567 -0.86725105 0 0 Z " fill="#F9FCFA" transform="translate(1706,964)"/>
<path d="M0 0 C5.61028749 2.0901071 8.43735371 5.10910436 11.25 10.3125 C12.52961036 14.89777047 12.97851288 18.81686369 11.01953125 23.1875 C6.75057355 30.33307842 6.75057355 30.33307842 3 32 C-1.58524488 32.69393553 -5.04176177 32.41583923 -9.3125 30.5625 C-13.82262761 26.26214577 -16.16122049 21.07083148 -16.4375 14.8125 C-15.78737387 9.14711517 -14.17517304 6.22858999 -10.25 2.125 C-6.36214285 -0.41706045 -4.56225637 -0.65175091 0 0 Z " fill="#F9FCFB" transform="translate(1095,892)"/>
<path d="M0 0 C3.16878239 1.67070044 5.37460234 3.74920468 7 7 C7.51838766 12.20087292 7.66595399 16.61686478 5.375 21.375 C1.51823378 25.63774161 -2.08782617 29.47837682 -8.05078125 30.2734375 C-12.27905497 30.46330817 -15.12007673 30.41271658 -18.5 27.6875 C-22.30102009 23.6014034 -22.40634306 19.99624957 -22.34375 14.63671875 C-21.60375453 8.96061712 -18.40518669 5.33827304 -14.375 1.5 C-9.54117493 -0.6483667 -5.2038734 -0.91878477 0 0 Z " fill="#FAFDFB" transform="translate(2060,1164)"/>
<path d="M0 0 C0.66 0 1.32 0 2 0 C2.67220351 1.93558599 3.33758077 3.87354372 4 5.8125 C4.556875 7.43091797 4.556875 7.43091797 5.125 9.08203125 C6 12 6 12 6 15 C11.61 15 17.22 15 23 15 C18.96080655 19.03919345 15.60212178 21.84168113 11 25 C11.19916016 25.85271484 11.19916016 25.85271484 11.40234375 26.72265625 C12.4884758 31.47151097 13.38312382 36.16780324 14 41 C13.40832031 40.59007812 12.81664062 40.18015625 12.20703125 39.7578125 C11.02173828 38.94957031 11.02173828 38.94957031 9.8125 38.125 C9.03519531 37.59132813 8.25789063 37.05765625 7.45703125 36.5078125 C3.92249839 34.29007052 3.92249839 34.29007052 0 33 C-3.01329996 34.50786789 -3.01329996 34.50786789 -5.8125 36.875 C-6.78832031 37.63554688 -7.76414062 38.39609375 -8.76953125 39.1796875 C-9.50558594 39.78039062 -10.24164062 40.38109375 -11 41 C-12.37827963 36.86516111 -10.99565529 34.47896318 -9.59375 30.47265625 C-8.92646574 27.69376849 -8.75610986 26.5703622 -10 24 C-12.52515698 21.80447414 -12.52515698 21.80447414 -15.5625 19.8125 C-17.38737267 18.55949826 -19.2035042 17.29335859 -21 16 C-21 15.67 -21 15.34 -21 15 C-15.39 15 -9.78 15 -4 15 C-3.525625 13.2675 -3.05125 11.535 -2.5625 9.75 C-2.29566406 8.77546875 -2.02882813 7.8009375 -1.75390625 6.796875 C-1.14455416 4.53627347 -0.55761745 2.27377991 0 0 Z " fill="#F2F2F7" transform="translate(1115,973)"/>
<path d="M0 0 C2.17186421 2.17186421 2.6793248 3.49976531 3.625 6.375 C4.01558594 7.53128906 4.01558594 7.53128906 4.4140625 8.7109375 C5 11 5 11 5 15 C10.61 15 16.22 15 22 15 C22 15.66 22 16.32 22 17 C20.02559073 18.4631783 18.06761129 19.80713064 16 21.125 C15.14148437 21.68380859 15.14148437 21.68380859 14.265625 22.25390625 C12.84778218 23.17550408 11.42439275 24.08855821 10 25 C10.20496094 25.73605469 10.40992188 26.47210937 10.62109375 27.23046875 C10.89050781 28.20628906 11.15992188 29.18210937 11.4375 30.1875 C11.70433594 31.15042969 11.97117187 32.11335938 12.24609375 33.10546875 C12.92880018 35.72663697 13.49892195 38.338935 14 41 C10.16532914 39.2452957 7.22109157 36.83087129 4 34.14453125 C2.10512365 32.82041577 2.10512365 32.82041577 0.078125 33.1015625 C-2.63538643 34.27469714 -4.85628903 35.83020917 -7.25 37.5625 C-8.14203125 38.20316406 -9.0340625 38.84382813 -9.953125 39.50390625 C-10.62859375 39.99761719 -11.3040625 40.49132813 -12 41 C-13 39 -13 39 -12.22265625 36.25 C-11.83980469 35.1775 -11.45695312 34.105 -11.0625 33 C-9.54670545 29.08696592 -9.54670545 29.08696592 -9 25 C-11.13873161 23.39888911 -13.27186839 21.90361986 -15.5 20.4375 C-17.68818426 18.98401794 -19.84929418 17.50963005 -22 16 C-22 15.67 -22 15.34 -22 15 C-13.585 14.505 -13.585 14.505 -5 14 C-3.35 9.38 -1.7 4.76 0 0 Z " fill="#F3F2F7" transform="translate(1164,1203)"/>
<path d="M0 0 C3.64178957 3.64178957 4.46366595 9.18615332 6 14 C11.28 14.33 16.56 14.66 22 15 C17.96080655 19.03919345 14.60212178 21.84168113 10 25 C10.20496094 25.73605469 10.40992188 26.47210937 10.62109375 27.23046875 C10.89050781 28.20628906 11.15992188 29.18210937 11.4375 30.1875 C11.70433594 31.15042969 11.97117187 32.11335938 12.24609375 33.10546875 C12.92880018 35.72663697 13.49892195 38.338935 14 41 C10.46025851 39.05661251 7.37927152 37.32634991 4.3125 34.6875 C2.22936407 32.77580386 2.22936407 32.77580386 0.18359375 33.171875 C-2.63881734 34.24227062 -4.80697828 35.79452376 -7.25 37.5625 C-8.14203125 38.20316406 -9.0340625 38.84382813 -9.953125 39.50390625 C-10.62859375 39.99761719 -11.3040625 40.49132813 -12 41 C-13.57159226 37.85681547 -12.04018399 35.07066611 -11.0625 31.875 C-10.86720703 31.21628906 -10.67191406 30.55757812 -10.47070312 29.87890625 C-9.98695014 28.25066448 -9.49430925 26.62506818 -9 25 C-10.299375 24.04287109 -10.299375 24.04287109 -11.625 23.06640625 C-12.75012461 22.23193883 -13.87511788 21.39729428 -15 20.5625 C-15.57234375 20.14162109 -16.1446875 19.72074219 -16.734375 19.28710938 C-18.17453919 18.21555864 -19.58951996 17.11033324 -21 16 C-21 15.67 -21 15.34 -21 15 C-13.08 14.505 -13.08 14.505 -5 14 C-3.35 9.38 -1.7 4.76 0 0 Z " fill="#F5F4F8" transform="translate(1562,1317)"/>
<path d="M0 0 C0.33 0 0.66 0 1 0 C1.67184618 2.10251861 2.33730968 4.20707763 3 6.3125 C3.37125 7.48425781 3.7425 8.65601563 4.125 9.86328125 C5 13 5 13 5 16 C10.61 16 16.22 16 22 16 C19.23554753 18.76445247 16.84372312 20.98126971 13.75 23.25 C13.04359375 23.77078125 12.3371875 24.2915625 11.609375 24.828125 C11.07828125 25.21484375 10.5471875 25.6015625 10 26 C10.2165625 26.74765625 10.433125 27.4953125 10.65625 28.265625 C10.9346875 29.25046875 11.213125 30.2353125 11.5 31.25 C11.7784375 32.22453125 12.056875 33.1990625 12.34375 34.203125 C13 37 13 37 13 41 C9.51547942 39.46681094 6.79654544 37.32894114 3.87890625 34.92578125 C1.18223916 33.59707002 -0.18152105 34.05196617 -3 35 C-5.50060399 36.5978148 -5.50060399 36.5978148 -7.8125 38.5625 C-8.60269531 39.20316406 -9.39289063 39.84382812 -10.20703125 40.50390625 C-10.79871094 40.99761719 -11.39039063 41.49132812 -12 42 C-12.66 41.67 -13.32 41.34 -14 41 C-12.35 35.72 -10.7 30.44 -9 25 C-10.32 24.34 -11.64 23.68 -13 23 C-14.59813064 22.00249131 -16.18132597 20.9807195 -17.75 19.9375 C-18.54921875 19.41027344 -19.3484375 18.88304687 -20.171875 18.33984375 C-20.77515625 17.89769531 -21.3784375 17.45554687 -22 17 C-22 16.67 -22 16.34 -22 16 C-16.39 16 -10.78 16 -5 16 C-4.54625 14.1025 -4.0925 12.205 -3.625 10.25 C-2.74541487 6.57173491 -1.84790538 3.31016094 0 0 Z " fill="#F6F6F9" transform="translate(1732,901)"/>
<path d="M0 0 C0.66 0 1.32 0 2 0 C2.67220351 1.93558599 3.33758077 3.87354372 4 5.8125 C4.556875 7.43091797 4.556875 7.43091797 5.125 9.08203125 C6 12 6 12 6 15 C11.61 15 17.22 15 23 15 C20.3998525 17.6001475 18.28520326 19.67311485 15.375 21.75 C14.78460937 22.17796875 14.19421875 22.6059375 13.5859375 23.046875 C12 24 12 24 10 24 C12.475 32.415 12.475 32.415 15 41 C11.13130095 39.06565048 8.36047751 36.91436163 5.09765625 34.14453125 C3.03871 32.7875302 3.03871 32.7875302 0.546875 33.1015625 C-2.43004419 34.15170271 -4.37673262 35.56298946 -6.8125 37.5625 C-7.60269531 38.20316406 -8.39289063 38.84382813 -9.20703125 39.50390625 C-9.79871094 39.99761719 -10.39039063 40.49132813 -11 41 C-11.66 40.67 -12.32 40.34 -13 40 C-11.35 34.72 -9.7 29.44 -8 24 C-9.32 23.34 -10.64 22.68 -12 22 C-13.59813064 21.00249131 -15.18132597 19.9807195 -16.75 18.9375 C-17.54921875 18.41027344 -18.3484375 17.88304687 -19.171875 17.33984375 C-19.77515625 16.89769531 -20.3784375 16.45554687 -21 16 C-21 15.67 -21 15.34 -21 15 C-15.39 15 -9.78 15 -4 15 C-3.71125 13.63875 -3.4225 12.2775 -3.125 10.875 C-2.30268853 7.15697742 -1.28811966 3.58833335 0 0 Z " fill="#F7F7FA" transform="translate(1342,1362)"/>
<path d="M0 0 C2.49936244 2.49936244 3.03723753 4.64808008 4.125 8 C4.47820312 9.0725 4.83140625 10.145 5.1953125 11.25 C6 14 6 14 6 16 C11.28 16 16.56 16 22 16 C19.3998525 18.6001475 17.28520326 20.67311485 14.375 22.75 C13.78460937 23.17796875 13.19421875 23.6059375 12.5859375 24.046875 C11 25 11 25 9 25 C9.27714844 25.65226562 9.55429688 26.30453125 9.83984375 26.9765625 C11.77388402 31.64303689 13.46633958 35.93022603 14 41 C10.89257577 39.53181332 8.09528261 37.79975 5.25 35.875 C4.45078125 35.33617187 3.6515625 34.79734375 2.828125 34.2421875 C2.22484375 33.83226562 1.6215625 33.42234375 1 33 C-0.77108948 34.12459671 -2.54186236 35.24969203 -4.3125 36.375 C-5.29863281 37.00148438 -6.28476563 37.62796875 -7.30078125 38.2734375 C-9.21287929 39.49651613 -11.1114034 40.7409356 -13 42 C-12.54619105 40.10307857 -12.08675008 38.20750405 -11.625 36.3125 C-11.24214844 34.72888672 -11.24214844 34.72888672 -10.8515625 33.11328125 C-10.08094511 30.29593234 -9.14501457 27.68331675 -8 25 C-8.56203125 24.73316406 -9.1240625 24.46632813 -9.703125 24.19140625 C-12.1672667 22.91323751 -14.43892201 21.47444239 -16.75 19.9375 C-17.54921875 19.41027344 -18.3484375 18.88304687 -19.171875 18.33984375 C-19.77515625 17.89769531 -20.3784375 17.45554687 -21 17 C-21 16.67 -21 16.34 -21 16 C-13.08 15.505 -13.08 15.505 -5 15 C-3.35 10.05 -1.7 5.1 0 0 Z " fill="#F8F7FA" transform="translate(1945,1263)"/>
<path d="M0 0 C3.44587588 3.44587588 3.81292163 8.35960275 5 13 C9.62 13 14.24 13 19 13 C15.72724974 16.27275026 12.85411644 18.54738045 9 21 C9.13277344 21.59167969 9.26554687 22.18335938 9.40234375 22.79296875 C9.57894531 23.58316406 9.75554687 24.37335938 9.9375 25.1875 C10.11152344 25.96480469 10.28554687 26.74210937 10.46484375 27.54296875 C11.00511333 30.02347652 11.50894372 32.50932716 12 35 C11.38511719 34.57847656 10.77023437 34.15695312 10.13671875 33.72265625 C9.32847656 33.17480469 8.52023437 32.62695312 7.6875 32.0625 C6.88699219 31.51722656 6.08648438 30.97195313 5.26171875 30.41015625 C2.9741857 28.86162674 2.9741857 28.86162674 0 28 C-2.8057554 29.43117031 -2.8057554 29.43117031 -5.6875 31.4375 C-6.68136719 32.09621094 -7.67523437 32.75492188 -8.69921875 33.43359375 C-9.45847656 33.95050781 -10.21773437 34.46742187 -11 35 C-10.77183594 34.25234375 -10.54367187 33.5046875 -10.30859375 32.734375 C-10.02113281 31.74953125 -9.73367188 30.7646875 -9.4375 29.75 C-9.14746094 28.77546875 -8.85742188 27.8009375 -8.55859375 26.796875 C-7.98867998 23.94332075 -7.75818174 22.61114464 -9 20 C-11.06733305 18.25626954 -11.06733305 18.25626954 -13.5625 16.8125 C-15.05339851 15.89377159 -16.53609176 14.96115188 -18 14 C-18 13.67 -18 13.34 -18 13 C-13.38 12.67 -8.76 12.34 -4 12 C-2.68 8.04 -1.36 4.08 0 0 Z " fill="#F2F1F7" transform="translate(1934,1359)"/>
<path d="M0 0 C2.79024052 4.18536078 3.10154594 8.05850265 4 13 C8.62 13 13.24 13 18 13 C15.14723863 15.93200474 12.34920216 18.64315404 9 21 C9.59619955 25.86896303 10.56976822 30.32790951 12 35 C7.95579349 33.22054913 4.53921513 30.60470327 1 28 C-1.86867231 29.38264837 -4.56024032 30.92148553 -7.25 32.625 C-8.30960938 33.29402344 -8.30960938 33.29402344 -9.390625 33.9765625 C-9.92171875 34.31429688 -10.4528125 34.65203125 -11 35 C-10.00956295 30.16371695 -9.04301154 25.52381127 -7 21 C-7.515625 20.773125 -8.03125 20.54625 -8.5625 20.3125 C-11.90966116 18.51018245 -15.03890492 16.38717496 -18 14 C-18 13.67 -18 13.34 -18 13 C-13.38 13 -8.76 13 -4 13 C-3.2884375 10.0609375 -3.2884375 10.0609375 -2.5625 7.0625 C-1.125 1.125 -1.125 1.125 0 0 Z " fill="#F2F2F7" transform="translate(1726,1443)"/>
<path d="M0 0 C0.66 0 1.32 0 2 0 C2.50559908 1.43554025 3.0042749 2.8735202 3.5 4.3125 C3.7784375 5.11300781 4.056875 5.91351562 4.34375 6.73828125 C5 9 5 9 5 12 C9.62 12 14.24 12 19 12 C16.14723863 14.93200474 13.34920216 17.64315404 10 20 C10.51405169 24.96916636 11.23384882 29.29026351 13 34 C10.15921909 32.7500564 7.96609026 31.17602101 5.5625 29.25 C2.83838957 27.19760423 2.83838957 27.19760423 -0.5 27.375 C-3.75029257 29.48769017 -6.89047356 31.68309795 -10 34 C-9.71572583 32.41532272 -9.42225182 30.8322943 -9.125 29.25 C-8.96257812 28.36828125 -8.80015625 27.4865625 -8.6328125 26.578125 C-8.03203736 24.13052256 -7.22002883 22.19400143 -6 20 C-6.515625 19.773125 -7.03125 19.54625 -7.5625 19.3125 C-10.90966116 17.51018245 -14.03890492 15.38717496 -17 13 C-17 12.67 -17 12.34 -17 12 C-12.38 12 -7.76 12 -3 12 C-2.690625 10.576875 -2.38125 9.15375 -2.0625 7.6875 C-1.48800637 5.04482928 -0.85697694 2.57093082 0 0 Z " fill="#F2F2F7" transform="translate(1967,1316)"/>
<path d="M0 0 C2.79024052 4.18536078 3.10154594 8.05850265 4 13 C8.62 13 13.24 13 18 13 C15.14723863 15.93200474 12.34920216 18.64315404 9 21 C9.59619955 25.86896303 10.56976822 30.32790951 12 35 C7.95579349 33.22054913 4.53921513 30.60470327 1 28 C-1.86867231 29.38264837 -4.56024032 30.92148553 -7.25 32.625 C-8.30960938 33.29402344 -8.30960938 33.29402344 -9.390625 33.9765625 C-9.92171875 34.31429688 -10.4528125 34.65203125 -11 35 C-10.86722656 34.40832031 -10.73445313 33.81664062 -10.59765625 33.20703125 C-10.42105469 32.41683594 -10.24445313 31.62664062 -10.0625 30.8125 C-9.88847656 30.03519531 -9.71445313 29.25789063 -9.53515625 28.45703125 C-8.99488667 25.97652348 -8.49105628 23.49067284 -8 21 C-8.721875 20.50628906 -9.44375 20.01257812 -10.1875 19.50390625 C-11.5796875 18.54291016 -11.5796875 18.54291016 -13 17.5625 C-13.928125 16.92441406 -14.85625 16.28632812 -15.8125 15.62890625 C-16.8953125 14.82259766 -16.8953125 14.82259766 -18 14 C-18 13.67 -18 13.34 -18 13 C-13.38 13 -8.76 13 -4 13 C-3.2884375 10.0609375 -3.2884375 10.0609375 -2.5625 7.0625 C-1.125 1.125 -1.125 1.125 0 0 Z " fill="#F3F2F7" transform="translate(1354,1097)"/>
<path d="M0 0 C2.87579981 4.31369972 4 7.80734761 4 13 C8.62 13 13.24 13 18 13 C15.10492782 15.97549085 12.33810482 18.49642139 9 21 C9.66 25.29 10.32 29.58 11 34 C7.6796875 31.60742188 7.6796875 31.60742188 4.359375 29.21484375 C2.14450032 27.81951921 2.14450032 27.81951921 0 28.125 C-2.45647101 29.19970607 -4.54446048 30.53808298 -6.75 32.0625 C-7.54921875 32.61035156 -8.3484375 33.15820312 -9.171875 33.72265625 C-10.07679687 34.35494141 -10.07679687 34.35494141 -11 35 C-10.86722656 34.40832031 -10.73445313 33.81664062 -10.59765625 33.20703125 C-10.42105469 32.41683594 -10.24445313 31.62664062 -10.0625 30.8125 C-9.88847656 30.03519531 -9.71445313 29.25789063 -9.53515625 28.45703125 C-8.99488667 25.97652348 -8.49105628 23.49067284 -8 21 C-8.721875 20.50628906 -9.44375 20.01257812 -10.1875 19.50390625 C-11.5796875 18.54291016 -11.5796875 18.54291016 -13 17.5625 C-13.928125 16.92441406 -14.85625 16.28632812 -15.8125 15.62890625 C-16.8953125 14.82259766 -16.8953125 14.82259766 -18 14 C-18 13.67 -18 13.34 -18 13 C-13.38 13 -8.76 13 -4 13 C-3.2884375 10.0609375 -3.2884375 10.0609375 -2.5625 7.0625 C-1.125 1.125 -1.125 1.125 0 0 Z " fill="#F6F5F9" transform="translate(1278,1261)"/>
<path d="M0 0 C2.5693511 3.85402665 3.59312655 7.58753327 5 12 C9.29 12.33 13.58 12.66 18 13 C15.14723863 15.93200474 12.34920216 18.64315404 9 21 C9.15597656 21.60328125 9.31195312 22.2065625 9.47265625 22.828125 C9.66730469 23.62734375 9.86195312 24.4265625 10.0625 25.25 C10.35833984 26.43335938 10.35833984 26.43335938 10.66015625 27.640625 C11.01497267 30.10394822 10.76877544 31.65604132 10 34 C9.20335937 33.33291016 9.20335937 33.33291016 8.390625 32.65234375 C7.68421875 32.08644531 6.9778125 31.52054688 6.25 30.9375 C5.55390625 30.36902344 4.8578125 29.80054688 4.140625 29.21484375 C2.12345012 27.8117268 2.12345012 27.8117268 0.03125 28.125 C-2.4446873 29.19155761 -4.53250291 30.52981818 -6.75 32.0625 C-7.54921875 32.61035156 -8.3484375 33.15820312 -9.171875 33.72265625 C-10.07679687 34.35494141 -10.07679687 34.35494141 -11 35 C-10.86722656 34.40832031 -10.73445313 33.81664062 -10.59765625 33.20703125 C-10.42105469 32.41683594 -10.24445313 31.62664062 -10.0625 30.8125 C-9.88847656 30.03519531 -9.71445313 29.25789063 -9.53515625 28.45703125 C-8.99488667 25.97652348 -8.49105628 23.49067284 -8 21 C-8.721875 20.50628906 -9.44375 20.01257812 -10.1875 19.50390625 C-11.5796875 18.54291016 -11.5796875 18.54291016 -13 17.5625 C-13.928125 16.92441406 -14.85625 16.28632812 -15.8125 15.62890625 C-16.8953125 14.82259766 -16.8953125 14.82259766 -18 14 C-18 13.67 -18 13.34 -18 13 C-13.38 13 -8.76 13 -4 13 C-3.2884375 10.0609375 -3.2884375 10.0609375 -2.5625 7.0625 C-1.125 1.125 -1.125 1.125 0 0 Z " fill="#F6F5F9" transform="translate(1836,1430)"/>
<path d="M0 0 C2 1 2 1 2.8515625 2.9609375 C3.10679688 3.75757813 3.36203125 4.55421875 3.625 5.375 C4.01558594 6.56222656 4.01558594 6.56222656 4.4140625 7.7734375 C5 10 5 10 5 13 C9.62 13 14.24 13 19 13 C15.66666667 15.66666667 12.33333333 18.33333333 9 21 C10.485 27.435 10.485 27.435 12 34 C8 32 8 32 5 29.8125 C2.30409356 27.76482246 2.30409356 27.76482246 0.078125 28.2265625 C-2.25410339 29.09457231 -4.16449945 30.20692464 -6.25 31.5625 C-6.95640625 32.01753906 -7.6628125 32.47257812 -8.390625 32.94140625 C-8.92171875 33.29074219 -9.4528125 33.64007812 -10 34 C-9.40380045 29.13103697 -8.43023178 24.67209049 -7 20 C-7.53625 19.7525 -8.0725 19.505 -8.625 19.25 C-11.57161419 17.69915043 -14.27917566 15.91694442 -17 14 C-17 13.67 -17 13.34 -17 13 C-10.565 12.505 -10.565 12.505 -4 12 C-2.68 8.04 -1.36 4.08 0 0 Z " fill="#F6F5F9" transform="translate(1625,1212)"/>
<path d="M0 0 C3.44587588 3.44587588 3.81292163 8.35960275 5 13 C9.29 13 13.58 13 18 13 C15.14723863 15.93200474 12.34920216 18.64315404 9 21 C9.31182069 22.41681634 9.62448737 23.83344651 9.9375 25.25 C10.11152344 26.03890625 10.28554687 26.8278125 10.46484375 27.640625 C10.947556 29.76878703 11.46163178 31.88532842 12 34 C9.40899946 32.8041536 7.32633188 31.50878367 5 29.8125 C2.2997921 27.763227 2.2997921 27.763227 0.046875 28.2265625 C-2.19287651 29.07288082 -3.83722507 30.1279188 -5.75 31.5625 C-6.67039062 32.24505859 -6.67039062 32.24505859 -7.609375 32.94140625 C-8.06828125 33.29074219 -8.5271875 33.64007812 -9 34 C-9.66 33.67 -10.32 33.34 -11 33 C-10.01 29.04 -9.02 25.08 -8 21 C-9.485 19.865625 -10.97 18.73125 -12.5 17.5625 C-14.02032761 16.40113863 -15.52596883 15.21958532 -17 14 C-17 13.67 -17 13.34 -17 13 C-12.71 13 -8.42 13 -4 13 C-3.525625 11.22625 -3.05125 9.4525 -2.5625 7.625 C-1.125 2.25 -1.125 2.25 0 0 Z " fill="#F6F5F9" transform="translate(1097,1256)"/>
<path d="M0 0 C3.44587588 3.44587588 3.81292163 8.35960275 5 13 C9.29 13 13.58 13 18 13 C15.10492782 15.97549085 12.33810482 18.49642139 9 21 C10.485 27.435 10.485 27.435 12 34 C8 32 8 32 5 29.8125 C2.2997921 27.763227 2.2997921 27.763227 0.046875 28.2265625 C-2.19287651 29.07288082 -3.83722507 30.1279188 -5.75 31.5625 C-6.67039062 32.24505859 -6.67039062 32.24505859 -7.609375 32.94140625 C-8.06828125 33.29074219 -8.5271875 33.64007812 -9 34 C-9.66 33.67 -10.32 33.34 -11 33 C-9.68 28.71 -8.36 24.42 -7 20 C-9.475 19.01 -9.475 19.01 -12 18 C-14.8125 15.375 -14.8125 15.375 -17 13 C-12.71 13 -8.42 13 -4 13 C-3.525625 11.22625 -3.05125 9.4525 -2.5625 7.625 C-1.125 2.25 -1.125 2.25 0 0 Z " fill="#F6F5F9" transform="translate(1562,1163)"/>
<path d="M0 0 C20.25754885 4.05150977 20.25754885 4.05150977 24 9 C24.53312164 12.57953104 24.40657541 14.33931496 22.5 17.4375 C19.61492591 19.2406713 17.95133724 19.28878705 14.63671875 18.6953125 C8.65758617 17.11859309 2.82802015 15.0565019 -3 13 C-2.52060632 8.28596212 -2.03165952 4.33420699 0 0 Z " fill="#F7FBF9" transform="translate(1629,939)"/>
<path d="M0 0 C1.625 1.9375 1.625 1.9375 2.1875 5.375 C1.625 8.9375 1.625 8.9375 -0.234375 11.11328125 C-4.79731779 13.76364727 -8.9956903 13.61079092 -14.1875 13.6875 C-15.16654297 13.71714844 -16.14558594 13.74679687 -17.15429688 13.77734375 C-19.56127953 13.84779202 -21.9673079 13.90061025 -24.375 13.9375 C-24.40185938 11.79173363 -24.42133088 9.64587355 -24.4375 7.5 C-24.44910156 6.30503906 -24.46070313 5.11007812 -24.47265625 3.87890625 C-24.375 0.9375 -24.375 0.9375 -23.375 -0.0625 C-20.97340111 -0.30236376 -18.59524083 -0.48578465 -16.1875 -0.625 C-14.21716797 -0.75068359 -14.21716797 -0.75068359 -12.20703125 -0.87890625 C-2.95540405 -1.32215444 -2.95540405 -1.32215444 0 0 Z " fill="#F8FCFA" transform="translate(1170.375,886.0625)"/>
<path d="M0 0 C4.62621697 1.42618038 8.9266095 3.28038461 13.25 5.4375 C13.87390625 5.73720703 14.4978125 6.03691406 15.140625 6.34570312 C18.39402839 7.96188735 19.94133079 8.91199618 22 12 C22.50734682 15.29775432 22.31057067 16.55803405 20.375 19.3125 C17.2089171 21.56208522 15.86346658 21.43862751 12 21 C8.9066187 19.73512009 6.03273436 18.14114498 3.125 16.5 C2.34125 16.07074219 1.5575 15.64148437 0.75 15.19921875 C-1.1731297 14.14384269 -3.08913252 13.07737013 -5 12 C-4.21258341 7.2009031 -2.50483074 4.12085057 0 0 Z " fill="#FAFCFB" transform="translate(1820,1014)"/>
<path d="M0 0 C7.70115992 0.61609279 17.60159902 1.7857839 23.9296875 6.41015625 C25 8 25 8 24.8125 11.5625 C24 15 24 15 22 17 C16.13033179 17.40832474 11.14048343 16.54591027 5.5 15 C4.77296875 14.80921875 4.0459375 14.6184375 3.296875 14.421875 C1.52893469 13.95662755 -0.23588933 13.47956407 -2 13 C-1.85769192 11.58297487 -1.71099254 10.1663904 -1.5625 8.75 C-1.48128906 7.96109375 -1.40007812 7.1721875 -1.31640625 6.359375 C-1.02365007 4.17635361 -0.57935581 2.1226818 0 0 Z " fill="#FAFDFB" transform="translate(1563,921)"/>
<path d="M0 0 C3.31012244 3.31012244 3.50351065 4.53159589 4 9 C7.63 9 11.26 9 15 9 C15 9.66 15 10.32 15 11 C12.79189025 12.8588679 10.3918738 14.37694278 8 16 C8.66 19.63 9.32 23.26 10 27 C7.0703125 24.99804688 7.0703125 24.99804688 4.140625 22.99609375 C2.07790271 21.81265963 2.07790271 21.81265963 -0.0625 22.21875 C-2.98913933 23.3988465 -5.43034651 25.18956232 -8 27 C-7.34 23.37 -6.68 19.74 -6 16 C-7.32 15.030625 -8.64 14.06125 -10 13.0625 C-11.35348244 12.06853634 -12.69243643 11.0536394 -14 10 C-14 9.67 -14 9.34 -14 9 C-10.04 9 -6.08 9 -2 9 C-1.34 6.03 -0.68 3.06 0 0 Z " fill="#EDEDF4" transform="translate(1261,1320)"/>
<path d="M0 0 C2.95183101 2.95183101 3.08663988 5.95511947 4 10 C7.63 10 11.26 10 15 10 C10.25 14.875 10.25 14.875 8 16 C8.33 19.63 8.66 23.26 9 27 C6.03 25.35 3.06 23.7 0 22 C-3.465 24.475 -3.465 24.475 -7 27 C-8.35015859 22.94952424 -7.62084998 20.2079832 -7 16 C-7.5053125 15.65066406 -8.010625 15.30132813 -8.53125 14.94140625 C-9.1809375 14.48636719 -9.830625 14.03132813 -10.5 13.5625 C-11.1496875 13.11003906 -11.799375 12.65757813 -12.46875 12.19140625 C-13.22671875 11.60166016 -13.22671875 11.60166016 -14 11 C-14 10.67 -14 10.34 -14 10 C-10.37 10 -6.74 10 -3 10 C-2.01 6.7 -1.02 3.4 0 0 Z " fill="#F0EFF6" transform="translate(1835,1489)"/>
<path d="M0 0 C2.95183101 2.95183101 3.08663988 5.95511947 4 10 C7.63 10 11.26 10 15 10 C10 15 10 15 8.28125 16.375 C6.74413682 17.95242315 6.74413682 17.95242315 7.14453125 20.26171875 C7.36496094 21.06222656 7.58539062 21.86273437 7.8125 22.6875 C8.204375 24.110625 8.59625 25.53375 9 27 C6.03 25.35 3.06 23.7 0 22 C-3.465 24.475 -3.465 24.475 -7 27 C-8.31223496 23.06329512 -7.24296256 20.87511856 -6 17 C-6.86625 16.36771484 -6.86625 16.36771484 -7.75 15.72265625 C-8.4925 15.17480469 -9.235 14.62695312 -10 14.0625 C-11.11375 13.24458984 -11.11375 13.24458984 -12.25 12.41015625 C-12.8275 11.94480469 -13.405 11.47945312 -14 11 C-14 10.67 -14 10.34 -14 10 C-8.555 9.505 -8.555 9.505 -3 9 C-2.01 6.03 -1.02 3.06 0 0 Z " fill="#F0EFF5" transform="translate(2021,1276)"/>
<path d="M0 0 C2.95183101 2.95183101 3.08663988 5.95511947 4 10 C7.63 10 11.26 10 15 10 C12.74259377 12.33524782 10.7194239 14.18705073 8 16 C8.33 19.63 8.66 23.26 9 27 C6.03 25.35 3.06 23.7 0 22 C-2.64 23.65 -5.28 25.3 -8 27 C-7.84660156 26.26394531 -7.69320313 25.52789063 -7.53515625 24.76953125 C-7.04873709 21.72639649 -6.7318624 19.07493282 -7 16 C-8.99231797 13.58522717 -11.24949025 12.41298007 -14 11 C-14 10.67 -14 10.34 -14 10 C-10.37 10 -6.74 10 -3 10 C-2.01 6.7 -1.02 3.4 0 0 Z " fill="#F2F1F7" transform="translate(1507,1216)"/>
<path d="M0 0 C0.66 0 1.32 0 2 0 C3.31626692 3.61973402 4 6.09567131 4 10 C7.63 10 11.26 10 15 10 C10.375 14.875 10.375 14.875 7 16 C7.99 19.63 8.98 23.26 10 27 C6.95048605 25.47524303 4.63600494 24.07114674 2 22 C-0.25162472 23.04539719 -2.14589161 24.11156417 -4.125 25.625 C-6 27 -6 27 -8 27 C-7.34 23.37 -6.68 19.74 -6 16 C-7.155 15.195625 -8.31 14.39125 -9.5 13.5625 C-10.68653894 12.73616038 -11.8588092 11.88791631 -13 11 C-13 10.67 -13 10.34 -13 10 C-9.37 10 -5.74 10 -2 10 C-1.34 6.7 -0.68 3.4 0 0 Z " fill="#F2F2F7" transform="translate(1772,1399)"/>
<path d="M0 0 C0.66 0.33 1.32 0.66 2 1 C2.90591398 3.95820059 3.40058396 6.96010437 4 10 C7.63 10 11.26 10 15 10 C12.74259377 12.33524782 10.7194239 14.18705073 8 16 C8.74359673 21.55053286 8.74359673 21.55053286 10 27 C7.69759223 25.93102496 5.95987369 24.96375688 4.0625 23.25 C3.381875 22.8375 2.70125 22.425 2 22 C-1.70452744 22.94987883 -4.77763302 24.97451219 -8 27 C-7.69078116 25.54096742 -7.37751201 24.08279278 -7.0625 22.625 C-6.88847656 21.81289062 -6.71445313 21.00078125 -6.53515625 20.1640625 C-6 18 -6 18 -5 16 C-5.556875 15.7525 -6.11375 15.505 -6.6875 15.25 C-9.39971127 13.78393985 -11.63587365 11.97010529 -14 10 C-10.37 10 -6.74 10 -3 10 C-2.01 6.7 -1.02 3.4 0 0 Z " fill="#F4F3F8" transform="translate(1890,1391)"/>
<path d="M0 0 C0.66 0 1.32 0 2 0 C3.31626692 3.61973402 4 6.09567131 4 10 C7.63 10 11.26 10 15 10 C12.74259377 12.33524782 10.7194239 14.18705073 8 16 C8.66 19.63 9.32 23.26 10 27 C8.783125 26.13375 7.56625 25.2675 6.3125 24.375 C3.0720004 22.23923873 3.0720004 22.23923873 -0.6875 22.5 C-1.450625 22.995 -2.21375 23.49 -3 24 C-3.928125 24.53625 -4.85625 25.0725 -5.8125 25.625 C-6.8953125 26.305625 -6.8953125 26.305625 -8 27 C-7.34 23.37 -6.68 19.74 -6 16 C-7.155 15.195625 -8.31 14.39125 -9.5 13.5625 C-10.68653894 12.73616038 -11.8588092 11.88791631 -13 11 C-13 10.67 -13 10.34 -13 10 C-9.37 10 -5.74 10 -2 10 C-1.855625 8.906875 -1.71125 7.81375 -1.5625 6.6875 C-1 3 -1 3 0 0 Z " fill="#F5F5F9" transform="translate(1682,1386)"/>
<path d="M0 0 C2.56616632 3.84924948 2.55097676 6.4349304 3 11 C6.63 11 10.26 11 14 11 C9.25 15.875 9.25 15.875 7 17 C7.99 20.63 8.98 24.26 10 28 C6 26 6 26 4 24.3125 C2.14575816 22.82042137 2.14575816 22.82042137 0.1875 23.0625 C-3.04281331 24.44691999 -5.98101912 26.20022294 -9 28 C-8.01 24.04 -7.02 20.08 -6 16 C-8.475 15.01 -8.475 15.01 -11 14 C-11.66 13.01 -12.32 12.02 -13 11 C-9.7 11 -6.4 11 -3 11 C-2.690625 9.55625 -2.38125 8.1125 -2.0625 6.625 C-1.54516353 4.21076314 -1.10514766 2.21029533 0 0 Z " fill="#F3F3F8" transform="translate(1711,1051)"/>
<path d="M0 0 C1.73662334 3.22515763 2.8905928 6.51329166 4 10 C7.3 10.33 10.6 10.66 14 11 C11.74259377 13.33524782 9.7194239 15.18705073 7 17 C7.66 20.63 8.32 24.26 9 28 C7.948125 27.154375 6.89625 26.30875 5.8125 25.4375 C2.91964549 23.36837863 2.91964549 23.36837863 -0.5625 22.9375 C-3.6493684 24.28305802 -6.27318404 26.03415593 -9 28 C-8.34 24.37 -7.68 20.74 -7 17 C-7.99 16.195625 -8.98 15.39125 -10 14.5625 C-10.99 13.716875 -11.98 12.87125 -13 12 C-13 11.67 -13 11.34 -13 11 C-9.7 11 -6.4 11 -3 11 C-2.87625 9.9275 -2.7525 8.855 -2.625 7.75 C-2.10356064 4.62136385 -1.59911746 2.66519576 0 0 Z " fill="#F4F3F8" transform="translate(1834,1380)"/>
<path d="M0 0 C0.66 0 1.32 0 2 0 C2.33 1.98 2.66 3.96 3 6 C5.64 6 8.28 6 11 6 C10.154375 6.680625 9.30875 7.36125 8.4375 8.0625 C5.5625 10.85416667 5.5625 10.85416667 6.1875 14.8125 C6.455625 15.864375 6.72375 16.91625 7 18 C6.1646875 17.4740625 6.1646875 17.4740625 5.3125 16.9375 C1.55681863 15.41492647 -1.2832512 16.76108373 -5 18 C-4.5978125 16.4221875 -4.5978125 16.4221875 -4.1875 14.8125 C-3.5625 10.85416667 -3.5625 10.85416667 -6.4375 8.0625 C-7.283125 7.381875 -8.12875 6.70125 -9 6 C-6.36 6 -3.72 6 -1 6 C-0.67 4.02 -0.34 2.04 0 0 Z " fill="#EBEAF2" transform="translate(1534,1259)"/>
<path d="M0 0 C0.66 0 1.32 0 2 0 C2.33 2.31 2.66 4.62 3 7 C5.64 7 8.28 7 11 7 C9.71034824 8.37562854 8.37310707 9.70766393 7 11 C6.34 11 5.68 11 5 11 C5.99 13.64 6.98 16.28 8 19 C7.4225 18.690625 6.845 18.38125 6.25 18.0625 C3.23632787 16.62702436 3.23632787 16.62702436 0 16 C-2.24755753 17.3516367 -2.24755753 17.3516367 -4 19 C-4.66 18.67 -5.32 18.34 -6 18 C-5.34 15.69 -4.68 13.38 -4 11 C-5.65 9.68 -7.3 8.36 -9 7 C-6.36 7 -3.72 7 -1 7 C-0.67 4.69 -0.34 2.38 0 0 Z " fill="#F1F0F6" transform="translate(1217,1182)"/>
<path d="M0 0 C0.66 1.32 1.32 2.64 2 4 C3.98 4 5.96 4 8 4 C7.505 4.37125 7.01 4.7425 6.5 5.125 C4.40244486 7.74694393 4.78256165 9.73842472 5 13 C4.2575 12.62875 3.515 12.2575 2.75 11.875 C0.05716353 10.70484137 0.05716353 10.70484137 -2.3125 11.875 C-3.1478125 12.431875 -3.1478125 12.431875 -4 13 C-3.9071875 11.6078125 -3.9071875 11.6078125 -3.8125 10.1875 C-3.69105736 7.01604897 -3.69105736 7.01604897 -5.5 5.125 C-5.995 4.75375 -6.49 4.3825 -7 4 C-5.02 4 -3.04 4 -1 4 C-0.67 2.68 -0.34 1.36 0 0 Z " fill="#E0DFEC" transform="translate(1562,1515)"/>
</svg>
