<?xml version="1.0" encoding="UTF-8"?>
<svg version="1.1" xmlns="http://www.w3.org/2000/svg" width="225" height="225">
<path d="M0 0 C74.25 0 148.5 0 225 0 C225 74.25 225 148.5 225 225 C150.75 225 76.5 225 0 225 C0 150.75 0 76.5 0 0 Z " fill="#CD1226" transform="translate(0,0)"/>
<path d="M0 0 C74.25 0 148.5 0 225 0 C225 28.38 225 56.76 225 86 C150.75 86 76.5 86 0 86 C0 57.62 0 29.24 0 0 Z " fill="#020202" transform="translate(0,139)"/>
<path d="M0 0 C74.25 0 148.5 0 225 0 C225 17.49 225 34.98 225 53 C150.75 53 76.5 53 0 53 C0 35.51 0 18.02 0 0 Z " fill="#FEFBFB" transform="translate(0,86)"/>
<path d="M0 0 C1.32 1.65 2.64 3.3 4 5 C9.27934197 7.93385799 13.63203532 8.4323155 19.50134277 8.38095093 C20.33134592 8.3856309 21.16134906 8.39031087 22.01650381 8.39513266 C24.78395394 8.40705137 27.550906 8.39763772 30.31835938 8.38818359 C32.30801176 8.39225068 34.29766188 8.39759333 36.28730774 8.40411377 C41.68187574 8.41777679 47.07627139 8.41249284 52.47084236 8.40297651 C58.11968572 8.39537471 63.76851445 8.40242698 69.4173584 8.40713501 C78.90310309 8.41259103 88.38877768 8.40540493 97.87451172 8.39111328 C108.83712618 8.3747871 119.79957326 8.38007571 130.76218367 8.3965925 C140.17893133 8.41021169 149.59562865 8.41212489 159.01238298 8.40427649 C164.63464126 8.39960238 170.25682089 8.39896798 175.8790741 8.40888596 C181.16506463 8.4175596 186.45083959 8.41152628 191.73680687 8.39420319 C193.67538788 8.39024049 195.61398706 8.39136866 197.55256081 8.39799118 C200.20150354 8.40620531 202.84975817 8.39588674 205.49865723 8.38095093 C206.263355 8.38764309 207.02805278 8.39433526 207.81592321 8.40123022 C212.81468158 8.34666934 216.54101212 7.47796739 221 5 C222.32 3.35 223.64 1.7 225 0 C225 14.19 225 28.38 225 43 C150.75 43 76.5 43 0 43 C0 28.81 0 14.62 0 0 Z " fill="#FEFEFE" transform="translate(0,182)"/>
<path d="M0 0 C74.25 0 148.5 0 225 0 C225 14.19 225 28.38 225 43 C223.02 40.525 223.02 40.525 221 38 C216.78678791 34.61192238 212.78534558 34.57256132 207.58058167 34.61231995 C206.7352476 34.60693441 205.88991353 34.60154887 205.01896328 34.59600013 C202.18770549 34.58169793 199.35691375 34.58882985 196.52563477 34.59594727 C194.4952456 34.59024489 192.46485965 34.58328114 190.43447876 34.57514954 C184.9200389 34.55718853 179.40575792 34.55839206 173.89129758 34.56409192 C169.28877263 34.56717948 164.6862784 34.56109614 160.08375782 34.55505317 C149.22662969 34.54099991 138.36958023 34.54257595 127.51245117 34.55395508 C116.30897761 34.56543768 105.10574339 34.55135996 93.90230137 34.5245586 C84.28518409 34.50241289 74.66814199 34.49576167 65.05100101 34.50163502 C59.30631241 34.50500841 53.56177725 34.50256401 47.81711006 34.48538399 C42.41537633 34.46993497 37.01399759 34.47384787 31.61227798 34.49268913 C29.62973664 34.49638064 27.64716912 34.49325025 25.66465187 34.48280334 C22.95815772 34.46963023 20.25284515 34.48110813 17.54640198 34.49879456 C16.76186333 34.48918955 15.97732468 34.47958454 15.16901213 34.46968848 C9.95198609 34.53983453 6.99147334 35.662415 3 39 C2.01 40.32 1.02 41.64 0 43 C0 28.81 0 14.62 0 0 Z " fill="#FEFEFE" transform="translate(0,0)"/>
<path d="M0 0 C36.96 0 73.92 0 112 0 C112 16.83 112 33.66 112 51 C75.37 51 38.74 51 1 51 C1 50.67 1 50.34 1 50 C7.435 49.505 7.435 49.505 14 49 C14.33 47.68 14.66 46.36 15 45 C13.33045181 41.77595022 13.33045181 41.77595022 10.375 41.3125 C9.59125 41.209375 8.8075 41.10625 8 41 C8.33 39.35 8.66 37.7 9 36 C9.66 36 10.32 36 11 36 C11.66 34.68 12.32 33.36 13 32 C13.103125 33.093125 13.20625 34.18625 13.3125 35.3125 C14.01114012 39.05975155 14.31397238 39.65962741 17 42 C16.88202982 37.60324012 16.75780274 33.20671601 16.62768555 28.81030273 C16.58428187 27.31360731 16.54261087 25.81686061 16.50268555 24.32006836 C16.44511384 22.17285688 16.38138284 20.02590479 16.31640625 17.87890625 C16.27974854 16.5854126 16.24309082 15.29191895 16.20532227 13.95922852 C16.3332722 11.11444992 16.3332722 11.11444992 15 10 C10.92922882 9.65107676 7.80024093 10.58595686 4 12 C3.81824219 10.95199219 3.81824219 10.95199219 3.6328125 9.8828125 C3.46523437 8.97273438 3.29765625 8.06265625 3.125 7.125 C2.96257812 6.22007813 2.80015625 5.31515625 2.6328125 4.3828125 C2.16955297 1.83494012 2.16955297 1.83494012 0 0 Z " fill="#FEFEFE" transform="translate(113,87)"/>
<path d="M0 0 C2.33294775 -0.04241723 4.66702567 -0.04092937 7 0 C8.66342837 1.66342837 8.36048097 3.7825709 8.5625 6.0625 C8.64628906 6.98160156 8.73007813 7.90070313 8.81640625 8.84765625 C8.87699219 9.55792969 8.93757813 10.26820312 9 11 C9.886875 10.505 10.77375 10.01 11.6875 9.5 C14.8901227 8.04975576 16.56542556 7.52297577 20 8 C22.79212511 10.79212511 22.35138075 13.45304289 22.4140625 17.1953125 C22.44311172 18.25647781 22.44311172 18.25647781 22.4727478 19.33908081 C22.53257652 21.60093085 22.57894101 23.8628317 22.625 26.125 C22.66317686 27.6575744 22.70222842 29.19012728 22.7421875 30.72265625 C22.83828039 34.48159624 22.92229849 38.24063668 23 42 C20.56070254 40.07423885 18.19909405 38.19909405 16 36 C15.34 35.67 14.68 35.34 14 35 C14.495 37.475 14.495 37.475 15 40 C15.61875 40.0825 16.2375 40.165 16.875 40.25 C19 41 19 41 20.25 43.0625 C20.4975 43.701875 20.745 44.34125 21 45 C19 48 19 48 16 49 C65.995 49.495 65.995 49.495 117 50 C117 50.33 117 50.66 117 51 C42.75 51 -31.5 51 -108 51 C-108 50.67 -108 50.34 -108 50 C-74.67 49.67 -41.34 49.34 -7 49 C-8.485 48.505 -8.485 48.505 -10 48 C-11.1875 45.9375 -11.1875 45.9375 -12 44 C-10.6875 42 -10.6875 42 -9 40 C-8.01 40 -7.02 40 -6 40 C-5.67 39.01 -5.34 38.02 -5 37 C-6.485 36.505 -6.485 36.505 -8 36 C-8.804375 36.99 -9.60875 37.98 -10.4375 39 C-11.283125 39.99 -12.12875 40.98 -13 42 C-13.33 42 -13.66 42 -14 42 C-13.67 32.1 -13.34 22.2 -13 12 C-11.68 11.67 -10.36 11.34 -9 11 C-6.75 12.9375 -6.75 12.9375 -5 15 C-2.69 14.34 -0.38 13.68 2 13 C1.01 12.34 0.02 11.68 -1 11 C-0.34 10.34 0.32 9.68 1 9 C1.40047444 6.67724823 1.7397104 4.34260643 2 2 C1.34 2 0.68 2 0 2 C0 1.34 0 0.68 0 0 Z " fill="#C6C1B3" transform="translate(108,88)"/>
<path d="M0 0 C2.48587357 0.33144981 3.67459316 0.61261091 5.3125 2.5625 C7.98301768 4.83738543 10.63523508 4.19045839 14 4 C14 8.29 14 12.58 14 17 C13.01 16.67 12.02 16.34 11 16 C8.58878141 17.95633975 8.58878141 17.95633975 8.875 21.625 C8.91625 22.73875 8.9575 23.8525 9 25 C10.32 25 11.64 25 13 25 C13.66 23.35 14.32 21.7 15 20 C15.99 20 16.98 20 18 20 C18.66 22.97 19.32 25.94 20 29 C14.86057616 30.28485596 13.62164416 29.22194431 9 27 C9 27.66 9 28.32 9 29 C9.99 29.33 10.98 29.66 12 30 C12 30.66 12 31.32 12 32 C11.34 32 10.68 32 10 32 C10 32.66 10 33.32 10 34 C10.66 34 11.32 34 12 34 C12 34.66 12 35.32 12 36 C9.36 35.67 6.72 35.34 4 35 C4.33 34.34 4.66 33.68 5 33 C6.32 33.33 7.64 33.66 9 34 C8.01 33.01 7.02 32.02 6 31 C4.35 32.32 2.7 33.64 1 35 C1 32 1 32 3 29 C3.99 29 4.98 29 6 29 C6.33 28.01 6.66 27.02 7 26 C6.01 25.67 5.02 25.34 4 25 C3.195625 25.99 2.39125 26.98 1.5625 28 C0.716875 28.99 -0.12875 29.98 -1 31 C-1.33 31 -1.66 31 -2 31 C-1.8820238 26.74564921 -1.7577963 22.49154179 -1.62768555 18.23754883 C-1.5842837 16.7893576 -1.54261256 15.34111346 -1.50268555 13.89282227 C-1.44510938 11.81510441 -1.38137972 9.73765427 -1.31640625 7.66015625 C-1.27974854 6.40855713 -1.24309082 5.15695801 -1.20532227 3.86743164 C-1 1 -1 1 0 0 Z " fill="#E2CD93" transform="translate(96,99)"/>
<path d="M0 0 C2.8992226 0.46761655 3.86675182 0.86675182 6 3 C6.22705078 5.24658203 6.22705078 5.24658203 6.1953125 8.0078125 C6.18564453 9.48701172 6.18564453 9.48701172 6.17578125 10.99609375 C6.15902344 12.02863281 6.14226562 13.06117187 6.125 14.125 C6.11597656 15.16527344 6.10695313 16.20554687 6.09765625 17.27734375 C6.07403747 19.85179092 6.04110149 22.42578212 6 25 C5.34 25 4.68 25 4 25 C2.30911778 26.97956942 0.64169528 28.97945196 -1 31 C-1.33 31 -1.66 31 -2 31 C-1.8820238 26.74564921 -1.7577963 22.49154179 -1.62768555 18.23754883 C-1.5842837 16.7893576 -1.54261256 15.34111346 -1.50268555 13.89282227 C-1.44510938 11.81510441 -1.38137972 9.73765427 -1.31640625 7.66015625 C-1.27974854 6.40855713 -1.24309082 5.15695801 -1.20532227 3.86743164 C-1 1 -1 1 0 0 Z " fill="#CFAD4E" transform="translate(96,99)"/>
<path d="M0 0 C1.65 0.33 3.3 0.66 5 1 C5 5.29 5 9.58 5 14 C5.66 14 6.32 14 7 14 C7.66 13.01 8.32 12.02 9 11 C9.33 13.31 9.66 15.62 10 18 C8.68 18 7.36 18 6 18 C5.67 18.66 5.34 19.32 5 20 C4.67 18.68 4.34 17.36 4 16 C3.01 16 2.02 16 1 16 C0.67 17.98 0.34 19.96 0 22 C-1.66611905 22.042721 -3.33382885 22.04063832 -5 22 C-6 21 -6 21 -6.09765625 18.27734375 C-6.08605469 17.17519531 -6.07445313 16.07304688 -6.0625 14.9375 C-6.05347656 13.83277344 -6.04445313 12.72804688 -6.03515625 11.58984375 C-6.02355469 10.73519531 -6.01195313 9.88054687 -6 9 C-3.525 10.485 -3.525 10.485 -1 12 C-0.67 8.04 -0.34 4.08 0 0 Z " fill="#EFE4C4" transform="translate(110,103)"/>
<path d="M0 0 C0.66 0.33 1.32 0.66 2 1 C2.33 10.9 2.66 20.8 3 31 C-4.87907213 24.6967423 -4.87907213 24.6967423 -5.38818359 21.76342773 C-5.39156738 20.91208252 -5.39495117 20.0607373 -5.3984375 19.18359375 C-5.40230469 18.25482422 -5.40617187 17.32605469 -5.41015625 16.36914062 C-5.39855469 15.40169922 -5.38695313 14.43425781 -5.375 13.4375 C-5.38660156 12.46619141 -5.39820312 11.49488281 -5.41015625 10.49414062 C-5.40628906 9.56666016 -5.40242188 8.63917969 -5.3984375 7.68359375 C-5.39505371 6.83337646 -5.39166992 5.98315918 -5.38818359 5.10717773 C-5.26008301 4.41180908 -5.13198242 3.71644043 -5 3 C-4.01 2.34 -3.02 1.68 -2 1 C-1.67 1.66 -1.34 2.32 -1 3 C-0.67 2.01 -0.34 1.02 0 0 Z " fill="#C9A336" transform="translate(128,99)"/>
<path d="M0 0 C1.32 0 2.64 0 4 0 C4 0.66 4 1.32 4 2 C6.31 2 8.62 2 11 2 C11.33 1.34 11.66 0.68 12 0 C12.99 0 13.98 0 15 0 C15 2 15 2 13.5 3.625 C13.005 4.07875 12.51 4.5325 12 5 C13.65 5 15.3 5 17 5 C17.33 5.66 17.66 6.32 18 7 C15.36 7.33 12.72 7.66 10 8 C10 8.66 10 9.32 10 10 C8.68 9.67 7.36 9.34 6 9 C6 9.33 6 9.66 6 10 C4.58376784 10.05447047 3.16691809 10.09300508 1.75 10.125 C0.96109375 10.14820313 0.1721875 10.17140625 -0.640625 10.1953125 C-3.20731941 9.9828378 -4.7916067 9.28654105 -7 8 C-6.1875 6.0625 -6.1875 6.0625 -5 4 C-4.01 3.67 -3.02 3.34 -2 3 C-1.34 4.32 -0.68 5.64 0 7 C-1.65 7.33 -3.3 7.66 -5 8 C-2.36 8.33 0.28 8.66 3 9 C3 8.34 3 7.68 3 7 C2.34 7 1.68 7 1 7 C1 6.34 1 5.68 1 5 C1.66 5 2.32 5 3 5 C2.505 4.54625 2.01 4.0925 1.5 3.625 C0 2 0 2 0 0 Z " fill="#F6EFDE" transform="translate(105,126)"/>
<path d="M0 0 C2.31 0 4.62 0 7 0 C7 6.27 7 12.54 7 19 C6.67 19 6.34 19 6 19 C5.67 17.35 5.34 15.7 5 14 C4.01 14.33 3.02 14.66 2 15 C1.34 14.67 0.68 14.34 0 14 C0 9.38 0 4.76 0 0 Z " fill="#CBA63C" transform="translate(115,103)"/>
<path d="M0 0 C2.31 0 4.62 0 7 0 C7 4.29 7 8.58 7 13 C6.01 12.67 5.02 12.34 4 12 C1.64046906 14.35953094 1.50858587 15.77895617 1 19 C0.67 19 0.34 19 0 19 C0 12.73 0 6.46 0 0 Z " fill="#CEAC4C" transform="translate(103,103)"/>
<path d="M0 0 C2.33294775 -0.04241723 4.66702567 -0.04092937 7 0 C8 1 8 1 8.1875 4.25 C8.01338941 7.73221175 7.50198876 9.90214817 6 13 C6.66 13.66 7.32 14.32 8 15 C5.3333581 16.33332095 3.83319697 15.67102033 1 15 C1.33 14.34 1.66 13.68 2 13 C1.01 12.34 0.02 11.68 -1 11 C-0.34 10.34 0.32 9.68 1 9 C1.40047444 6.67724823 1.7397104 4.34260643 2 2 C1.34 2 0.68 2 0 2 C0 1.34 0 0.68 0 0 Z " fill="#EFE3C4" transform="translate(108,88)"/>
<path d="M0 0 C1.32 0 2.64 0 4 0 C4 0.66 4 1.32 4 2 C4.7425 1.95875 5.485 1.9175 6.25 1.875 C9.12314196 2.00559736 10.55382476 2.5660352 13 4 C13.66 4.33 14.32 4.66 15 5 C12 7 12 7 6 7 C6 12.28 6 17.56 6 23 C5.67 23 5.34 23 5 23 C4.67 21.35 4.34 19.7 4 18 C3.67 18 3.34 18 3 18 C2.67 13.38 2.34 8.76 2 4 C0.68 4 -0.64 4 -2 4 C-1.34 2.68 -0.68 1.36 0 0 Z " fill="#F5EFDE" transform="translate(97,96)"/>
<path d="M0 0 C2.86724686 0.57344937 3.8614515 0.8614515 6 3 C6.22705078 5.24658203 6.22705078 5.24658203 6.1953125 8.0078125 C6.18886719 8.99394531 6.18242188 9.98007813 6.17578125 10.99609375 C6.15902344 12.02863281 6.14226562 13.06117187 6.125 14.125 C6.11597656 15.16527344 6.10695313 16.20554687 6.09765625 17.27734375 C6.07403747 19.85179092 6.04110149 22.42578212 6 25 C5.34 25 4.68 25 4 25 C3.34 25.66 2.68 26.32 2 27 C1.96241577 25.9330188 1.96241577 25.9330188 1.92407227 24.84448242 C1.80811561 21.62530483 1.68538755 18.40642015 1.5625 15.1875 C1.52318359 14.06794922 1.48386719 12.94839844 1.44335938 11.79492188 C1.40146484 10.72177734 1.35957031 9.64863281 1.31640625 8.54296875 C1.27974854 7.55321045 1.24309082 6.56345215 1.20532227 5.54370117 C1.09209669 2.8781649 1.09209669 2.8781649 0 0 Z " fill="#C3981D" transform="translate(96,99)"/>
<path d="M0 0 C2 2 2 2 2.22705078 4.43017578 C2.21657715 5.4251709 2.20610352 6.42016602 2.1953125 7.4453125 C2.18564453 9.05986328 2.18564453 9.05986328 2.17578125 10.70703125 C2.15902344 11.83496094 2.14226562 12.96289062 2.125 14.125 C2.11597656 15.26066406 2.10695313 16.39632812 2.09765625 17.56640625 C2.07403098 20.37781299 2.04109013 23.18880298 2 26 C0.02880859 24.80102539 0.02880859 24.80102539 -2 23 C-2.48583984 20.76342773 -2.48583984 20.76342773 -2.4609375 18.18359375 C-2.45707031 17.25482422 -2.45320313 16.32605469 -2.44921875 15.36914062 C-2.42472656 14.40169922 -2.40023437 13.43425781 -2.375 12.4375 C-2.37371094 11.46619141 -2.37242188 10.49488281 -2.37109375 9.49414062 C-2.28086515 2.28086515 -2.28086515 2.28086515 0 0 Z " fill="#C59B23" transform="translate(125,100)"/>
<path d="M0 0 C0.33 0 0.66 0 1 0 C1.05845196 3.37492629 1.09374742 6.74972087 1.125 10.125 C1.15013672 11.55199219 1.15013672 11.55199219 1.17578125 13.0078125 C1.21104528 18.08583255 1.03333617 22.24487525 -1 27 C-1.99 26.67 -2.98 26.34 -4 26 C-3.34 26 -2.68 26 -2 26 C-2 25.34 -2 24.68 -2 24 C-2.99 24.33 -3.98 24.66 -5 25 C-5.66 24.67 -6.32 24.34 -7 24 C-6.67 22.35 -6.34 20.7 -6 19 C-4.68 19 -3.36 19 -2 19 C-2.185625 18.443125 -2.37125 17.88625 -2.5625 17.3125 C-3.07551165 14.600867 -2.6640724 12.65628961 -2 10 C-1.67 10 -1.34 10 -1 10 C-0.67 6.7 -0.34 3.4 0 0 Z " fill="#EBDEB8" transform="translate(122,102)"/>
<path d="M0 0 C1.32 0 2.64 0 4 0 C4 4.95 4 9.9 4 15 C2.68 14.67 1.36 14.34 0 14 C0 9.38 0 4.76 0 0 Z " fill="#FDFCF9" transform="translate(110,103)"/>
<path d="M0 0 C0.33 0.66 0.66 1.32 1 2 C1.639375 2.12375 2.27875 2.2475 2.9375 2.375 C5 3 5 3 6.25 5.0625 C6.4975 5.701875 6.745 6.34125 7 7 C6.01 7.495 6.01 7.495 5 8 C4.01 7.01 3.02 6.02 2 5 C2.33 5.99 2.66 6.98 3 8 C-0.47325181 9.1577506 -3.36067448 9.06866652 -7 9 C-7 8.67 -7 8.34 -7 8 C-4.69 7.34 -2.38 6.68 0 6 C-1.65 5.67 -3.3 5.34 -5 5 C-5 4.34 -5 3.68 -5 3 C-4.360625 2.87625 -3.72125 2.7525 -3.0625 2.625 C-2.0415625 2.315625 -2.0415625 2.315625 -1 2 C-0.67 1.34 -0.34 0.68 0 0 Z " fill="#DFC887" transform="translate(122,126)"/>
<path d="M0 0 C0.99 0 1.98 0 3 0 C3.66 2.97 4.32 5.94 5 9 C1 10 1 10 -2 9 C-1.34 6.03 -0.68 3.06 0 0 Z " fill="#C49A19" transform="translate(111,119)"/>
<path d="M0 0 C0.33 0 0.66 0 1 0 C1 7.26 1 14.52 1 22 C0.34 22 -0.32 22 -1 22 C-1.98248524 17.9472484 -2.08159574 14.16138263 -2 10 C-1.67 10 -1.34 10 -1 10 C-0.67 6.7 -0.34 3.4 0 0 Z " fill="#CAA43B" transform="translate(101,102)"/>
<path d="M0 0 C0.33 0 0.66 0 1 0 C1 4.29 1 8.58 1 13 C1.66 13 2.32 13 3 13 C3.66 12.01 4.32 11.02 5 10 C5.33 12.31 5.66 14.62 6 17 C4.68 17 3.36 17 2 17 C1.67 17.66 1.34 18.32 1 19 C-0.65497356 15.69005287 -0.10084335 12.00877 -0.0625 8.375 C-0.05798828 7.57320313 -0.05347656 6.77140625 -0.04882812 5.9453125 C-0.03703168 3.96350994 -0.01909605 1.98174567 0 0 Z " fill="#F5EEDA" transform="translate(114,104)"/>
<path d="M0 0 C1.32 0 2.64 0 4 0 C4 2 4 2 2.5 3.625 C2.005 4.07875 1.51 4.5325 1 5 C2.65 5 4.3 5 6 5 C6.33 5.66 6.66 6.32 7 7 C4.36 7.33 1.72 7.66 -1 8 C-1 8.66 -1 9.32 -1 10 C-1.66 9.67 -2.32 9.34 -3 9 C-2.67 7.68 -2.34 6.36 -2 5 C-1.34 5 -0.68 5 0 5 C0 3.35 0 1.7 0 0 Z " fill="#F6F0DE" transform="translate(116,126)"/>
<path d="M0 0 C1.32 0 2.64 0 4 0 C4.34833144 4.87664009 3.41685712 7.77050005 1 12 C0.67 12 0.34 12 0 12 C0 8.04 0 4.08 0 0 Z " fill="#C09303" transform="translate(115,104)"/>
<path d="M0 0 C1.32 0 2.64 0 4 0 C4 3.96 4 7.92 4 12 C0.41540069 7.22053425 -0.12621479 5.80588017 0 0 Z " fill="#C19409" transform="translate(106,104)"/>
<path d="M0 0 C0.99 0.66 1.98 1.32 3 2 C3 2.66 3 3.32 3 4 C1.35 4.33 -0.3 4.66 -2 5 C0.64 5.33 3.28 5.66 6 6 C6 6.33 6 6.66 6 7 C3.03 6.67 0.06 6.34 -3 6 C-3 4.68 -3 3.36 -3 2 C-2.01 1.34 -1.02 0.68 0 0 Z " fill="#F7F2E4" transform="translate(102,129)"/>
<path d="M0 0 C2.33294775 -0.04241723 4.66702567 -0.04092937 7 0 C8 1 8 1 8.0625 4.5625 C8.041875 5.696875 8.02125 6.83125 8 8 C7.01 8 6.02 8 5 8 C4.34 7.34 3.68 6.68 3 6 C4.32 6 5.64 6 7 6 C7 4.68 7 3.36 7 2 C6.21625 2.185625 5.4325 2.37125 4.625 2.5625 C2 3 2 3 0 2 C0 1.34 0 0.68 0 0 Z " fill="#D8BD71" transform="translate(108,88)"/>
<path d="M0 0 C0.33 0 0.66 0 1 0 C2 6.625 2 6.625 2 10 C-0.97 9.505 -0.97 9.505 -4 9 C-3.67 7.35 -3.34 5.7 -3 4 C-2.34 4 -1.68 4 -1 4 C-0.67 2.68 -0.34 1.36 0 0 Z " fill="#F6F1E2" transform="translate(125,119)"/>
<path d="M0 0 C0.33 0 0.66 0 1 0 C1 1.65 1 3.3 1 5 C1.99 4.67 2.98 4.34 4 4 C4.33 5.65 4.66 7.3 5 9 C3.02 9.33 1.04 9.66 -1 10 C-1 6.58900832 -0.50854594 3.36911686 0 0 Z " fill="#F7F1E3" transform="translate(99,119)"/>
<path d="M0 0 C0.66 0.33 1.32 0.66 2 1 C1.67 3.31 1.34 5.62 1 8 C0.01 8.33 -0.98 8.66 -2 9 C-2.66 8.34 -3.32 7.68 -4 7 C-2.68 4.69 -1.36 2.38 0 0 Z " fill="#DAC079" transform="translate(119,109)"/>
<path d="M0 0 C2.31 0 4.62 0 7 0 C7 0.99 7 1.98 7 3 C2.25 4.125 2.25 4.125 0 3 C0 2.01 0 1.02 0 0 Z " fill="#E4D19B" transform="translate(109,128)"/>
</svg>
