<?xml version="1.0" encoding="UTF-8"?>
<svg version="1.1" xmlns="http://www.w3.org/2000/svg" width="1600" height="1063">
<path d="M0 0 C528 0 1056 0 1600 0 C1600 350.79 1600 701.58 1600 1063 C1072 1063 544 1063 0 1063 C0 712.21 0 361.42 0 0 Z " fill="#CC0102" transform="translate(0,0)"/>
<path d="M0 0 C232.65 0 465.3 0 705 0 C705 143.88 705 287.76 705 436 C472.35 436 239.7 436 0 436 C0 292.12 0 148.24 0 0 Z " fill="#FEFEFE" transform="translate(1,626)"/>
<path d="M0 0 C232.65 0 465.3 0 705 0 C705 143.88 705 287.76 705 436 C472.35 436 239.7 436 0 436 C0 292.12 0 148.24 0 0 Z " fill="#FEFEFE" transform="translate(1,1)"/>
<path d="M0 0 C232.32 0 464.64 0 704 0 C704 143.88 704 287.76 704 436 C471.68 436 239.36 436 0 436 C0 292.12 0 148.24 0 0 Z " fill="#FEFEFE" transform="translate(895,626)"/>
<path d="M0 0 C232.32 0 464.64 0 704 0 C704 143.88 704 287.76 704 436 C471.68 436 239.36 436 0 436 C0 292.12 0 148.24 0 0 Z " fill="#FEFEFE" transform="translate(895,1)"/>
<path d="M0 0 C232.98 0 465.96 0 706 0 C706.020625 72.249375 706.04125 144.49875 706.0625 218.9375 C706.071604 241.79507568 706.08070801 264.65265137 706.09008789 288.20288086 C706.09460449 316.00109863 706.09460449 316.00109863 706.09544373 328.99269104 C706.09637968 338.11431636 706.10006224 347.23593561 706.10557556 356.3575592 C706.11191623 366.86342121 706.11484176 377.36927736 706.11344495 387.8751413 C706.11283942 393.25565606 706.11383599 398.63615772 706.11921513 404.01667011 C706.12404028 408.87226496 706.12435051 413.72783731 706.12090111 418.58343315 C706.12047348 420.34804234 706.12177227 422.11265287 706.12488258 423.87725937 C706.12884513 426.26371571 706.1267639 428.65008903 706.12304783 431.03654385 C706.12567485 431.73665028 706.12830188 432.43675671 706.13100851 433.15807849 C706.11414527 437.88585473 706.11414527 437.88585473 705 439 C703.45649574 439.09940501 701.9084336 439.12868779 700.3617329 439.13061053 C699.3503599 439.13429124 698.33898689 439.13797195 697.29696622 439.14176419 C695.60671796 439.14023019 695.60671796 439.14023019 693.88232327 439.1386652 C692.69255435 439.14150742 691.50278543 439.14434964 690.27696291 439.14727798 C686.94480381 439.15421414 683.61269478 439.15662199 680.28053198 439.1572054 C676.66668714 439.15892621 673.05285371 439.16640687 669.43901545 439.17318195 C663.095513 439.18426934 656.75201456 439.19162253 650.40850449 439.19658089 C640.97583289 439.20397053 631.54317529 439.2170498 622.11051191 439.23132664 C606.2457919 439.25517602 590.38106941 439.27436381 574.51634026 439.29092598 C558.80055336 439.30734778 543.0847711 439.32582241 527.36898994 439.34705925 C526.39307055 439.34837686 525.41715116 439.34969446 524.41165845 439.351052 C519.45577575 439.35775377 514.4998931 439.36449241 509.54401047 439.37124526 C474.41044832 439.41905156 439.27688185 439.46222412 404.14331055 439.50268555 C370.00430995 439.54201215 335.86531294 439.583429 301.72631836 439.62768555 C300.14879261 439.62972934 300.14879261 439.62972934 298.53939764 439.63181442 C287.97828367 439.6454994 277.41716975 439.65922697 266.85605587 439.67298577 C245.34044401 439.70101487 223.8248318 439.72875958 202.30921936 439.7563324 C201.31989245 439.7576006 200.33056554 439.7588688 199.31125902 439.76017542 C133.20751184 439.84487992 67.10375649 439.922954 1 440 C-1.09882689 436.17640919 -1.27318454 432.98900011 -1.23047829 428.6986351 C-1.23109678 427.95761905 -1.23171528 427.21660301 -1.23235252 426.45313193 C-1.23196764 423.95755438 -1.21719454 421.46226748 -1.20254517 418.96673584 C-1.19930103 417.16923149 -1.19693966 415.37172536 -1.19538879 413.57421875 C-1.18853201 408.61417529 -1.1690618 403.65424743 -1.1476467 398.69424838 C-1.12645759 393.27114929 -1.11693112 387.84802768 -1.10594749 382.42490005 C-1.08285382 371.88962124 -1.04939775 361.3544005 -1.01235827 350.8191625 C-0.96997465 338.63743314 -0.94041713 326.45569508 -0.91088867 314.27392578 C-0.82653687 282.0992533 -0.72469166 249.92462861 -0.625 217.75 C-0.41875 145.8925 -0.2125 74.035 0 0 Z M1 1 C1 144.88 1 288.76 1 437 C233.32 437 465.64 437 705 437 C705 293.12 705 149.24 705 1 C472.68 1 240.36 1 1 1 Z " fill="#9B3839" transform="translate(894,0)"/>
</svg>
