<?xml version="1.0" encoding="UTF-8"?>
<svg version="1.1" xmlns="http://www.w3.org/2000/svg" width="250" height="254">
<path d="M0 0 C4.70077009 0.43932431 8.47729412 2.68893665 12.5625 4.875 C27.16095349 12.38391725 40.25429478 13.92921187 56.171875 9.42578125 C61.55310036 7.59302512 66.23077873 4.59260635 70.9765625 1.51171875 C74 0 74 0 76.515625 0.08984375 C79.48958896 1.17936199 82.28461149 2.47225285 85.125 3.875 C102.85553346 12.17312845 120.27501271 12.24299644 139 7 C140.29318256 8.6029449 141.58449156 10.20740142 142.875 11.8125 C143.95394531 13.15248047 143.95394531 13.15248047 145.0546875 14.51953125 C149.02508326 19.58218448 149.02508326 19.58218448 148.86328125 22.27734375 C147.78166754 25.68858699 146.05322254 28.53938135 144.1875 31.5625 C135.23538804 46.60499956 132.40807034 63.39323953 136.4375 80.5 C140.29819262 93.2294865 146.89105702 104.47907779 155.54516602 114.53540039 C158.26077938 117.73672532 159 118.6224221 159 123 C157.58337976 124.15719801 156.11553184 125.25220053 154.625 126.3125 C147.39085714 133.11711563 148.60053662 143.00690788 148.17138672 152.28173828 C146.7630546 174.61844745 135.4448093 193.22077532 119.6328125 208.25 C104.48758725 221.30447025 82.61573398 228.5755305 62.90771484 230.16918945 C58.22429755 230.56737252 55.80602964 231.34968162 52.5 234.6875 C51.75234375 235.40035156 51.0046875 236.11320313 50.234375 236.84765625 C49.49703125 237.55792969 48.7596875 238.26820313 48 239 C46.60929632 240.23812648 45.19412109 241.44961573 43.75 242.625 C43.14671875 243.13289062 42.5434375 243.64078125 41.921875 244.1640625 C40 245 40 245 37.65234375 244.4921875 C33.67726417 242.25583934 30.50955625 239.14808223 27.25585938 235.98828125 C22.55198335 231.73483699 18.17825486 230.85869051 12 230 C10.40232675 229.72099248 8.80591564 229.43464833 7.2109375 229.140625 C6.02878662 228.92647949 6.02878662 228.92647949 4.82275391 228.70800781 C-15.28723344 224.9451576 -33.38726817 217.76158818 -48 203 C-48.76957031 202.26394531 -49.53914063 201.52789062 -50.33203125 200.76953125 C-65.0875704 185.76262006 -71.05648213 163.09525805 -70.98828125 142.453125 C-71.00358365 135.77735753 -71.00358365 135.77735753 -74.3203125 130.1484375 C-77.06469776 127.48924794 -77.06469776 127.48924794 -79.9453125 125.21875 C-82 123 -82 123 -82.02734375 120.46875 C-80.86368974 117.67244074 -79.57328442 116.13996404 -77.4375 114 C-63.93147566 99.38256758 -56.33643299 80.76384296 -56.6953125 60.92578125 C-57.76234222 47.17751366 -63.40294152 33.7931918 -72 23 C-70.38826594 19.4842485 -68.31341763 16.45204806 -66.0625 13.3125 C-65.37285156 12.33925781 -64.68320313 11.36601562 -63.97265625 10.36328125 C-62 8 -62 8 -59 7 C-56.70288086 7.54541016 -56.70288086 7.54541016 -54.02734375 8.4140625 C-48.11198467 10.12028513 -42.69237484 10.46474322 -36.5625 10.375 C-35.04982544 10.35977295 -35.04982544 10.35977295 -33.5065918 10.34423828 C-22.51056357 10.11506183 -8.24993325 8.24993325 0 0 Z " fill="#E6B500" transform="translate(86,5)"/>
<path d="M0 0 C62.7 0 125.4 0 190 0 C190 25.31227048 188.44072124 43.62343519 171 62 C160.61272703 71.98303054 147.74106965 77.34682658 134 81 C133.04963867 81.2686084 132.09927734 81.5372168 131.12011719 81.81396484 C120.71839747 84.42678958 110.52372164 84.45689409 99.85205078 84.39111328 C96.76940154 84.37510078 93.68807712 84.39099741 90.60546875 84.41015625 C64.42944357 84.43863113 39.05204921 80.22005136 19 62 C0.84589973 43.81405043 0 25.76831814 0 0 Z " fill="#0D0C05" transform="translate(30,137)"/>
<path d="M0 0 C2.14684338 1.06045766 4.29268757 2.12294066 6.4375 3.1875 C21.29451714 9.35610734 39.81771485 8.62566162 54.72265625 3.04296875 C57.43297751 1.89392237 60.01798465 0.67565839 62.609375 -0.71484375 C66.54515793 -2.60985035 67.88633963 -2.70585554 71.984375 -1.33984375 C73.11875 -0.72109375 74.253125 -0.10234375 75.421875 0.53515625 C89.6156883 7.76397566 106.56622722 5.98777299 121.984375 5.66015625 C120.82454488 9.24789743 119.55996358 12.70861283 118.046875 16.16015625 C110.73036751 34.6295422 111.52593057 52.9141847 116.984375 71.66015625 C117.974375 76.11515625 117.974375 76.11515625 118.984375 80.66015625 C60.574375 80.66015625 2.164375 80.66015625 -58.015625 80.66015625 C-55.015625 69.66015625 -55.015625 69.66015625 -54.07958984 66.39819336 C-52.11626469 59.25661459 -51.54107488 52.61282257 -51.640625 45.22265625 C-51.65077637 44.12590576 -51.66092773 43.02915527 -51.67138672 41.89916992 C-51.92888859 28.46615557 -55.407204 17.76635951 -61.015625 5.66015625 C-59.97559326 5.69157715 -59.97559326 5.69157715 -58.91455078 5.72363281 C-33.55152911 6.46206375 -33.55152911 6.46206375 -9.83984375 -1.703125 C-6.2397649 -2.95968357 -3.34563145 -1.48646579 0 0 Z " fill="#DB062E" transform="translate(94.015625,24.33984375)"/>
<path d="M0 0 C8.8823535 3.64970657 15.85467453 5.08546745 25.625 6.0625 C25.625 28.8325 25.625 51.6025 25.625 75.0625 C-2.755 75.0625 -31.135 75.0625 -60.375 75.0625 C-57.405 63.6775 -57.405 63.6775 -54.375 52.0625 C-53.34847968 33.17452618 -56.05037551 20.30459894 -63.375 3.0625 C-62.64087891 3.08344727 -61.90675781 3.10439453 -61.15039062 3.12597656 C-38.38926497 3.83581226 -38.38926497 3.83581226 -16.828125 -2.63671875 C-10.59943742 -4.98304563 -5.84095709 -2.48502394 0 0 Z " fill="#DA0131" transform="translate(98.375,27.9375)"/>
<path d="M0 0 C4.70077009 0.43932431 8.47729412 2.68893665 12.5625 4.875 C27.16095349 12.38391725 40.25429478 13.92921187 56.171875 9.42578125 C61.55310036 7.59302512 66.23077873 4.59260635 70.9765625 1.51171875 C74 0 74 0 76.515625 0.08984375 C79.48958896 1.17936199 82.28461149 2.47225285 85.125 3.875 C102.85553346 12.17312845 120.27501271 12.24299644 139 7 C140.29318256 8.6029449 141.58449156 10.20740142 142.875 11.8125 C143.95394531 13.15248047 143.95394531 13.15248047 145.0546875 14.51953125 C149.02508326 19.58218448 149.02508326 19.58218448 148.86328125 22.27734375 C147.78166754 25.68858699 146.05322254 28.53938135 144.1875 31.5625 C135.23538804 46.60499956 132.40807034 63.39323953 136.4375 80.5 C140.29819262 93.2294865 146.89105702 104.47907779 155.54516602 114.53540039 C158.26077938 117.73672532 159 118.6224221 159 123 C157.58337976 124.15719801 156.11553184 125.25220053 154.625 126.3125 C147.39085714 133.11711563 148.60053662 143.00690788 148.17138672 152.28173828 C146.7630546 174.61844745 135.4448093 193.22077532 119.6328125 208.25 C104.48758725 221.30447025 82.61573398 228.5755305 62.90771484 230.16918945 C58.22429755 230.56737252 55.80602964 231.34968162 52.5 234.6875 C51.75234375 235.40035156 51.0046875 236.11320313 50.234375 236.84765625 C49.49703125 237.55792969 48.7596875 238.26820313 48 239 C46.60929632 240.23812648 45.19412109 241.44961573 43.75 242.625 C43.14671875 243.13289062 42.5434375 243.64078125 41.921875 244.1640625 C40 245 40 245 37.65234375 244.4921875 C33.67726417 242.25583934 30.50955625 239.14808223 27.25585938 235.98828125 C22.55198335 231.73483699 18.17825486 230.85869051 12 230 C10.40232675 229.72099248 8.80591564 229.43464833 7.2109375 229.140625 C6.02878662 228.92647949 6.02878662 228.92647949 4.82275391 228.70800781 C-15.28723344 224.9451576 -33.38726817 217.76158818 -48 203 C-48.76957031 202.26394531 -49.53914063 201.52789062 -50.33203125 200.76953125 C-65.0875704 185.76262006 -71.05648213 163.09525805 -70.98828125 142.453125 C-71.00358365 135.77735753 -71.00358365 135.77735753 -74.3203125 130.1484375 C-77.06469776 127.48924794 -77.06469776 127.48924794 -79.9453125 125.21875 C-82 123 -82 123 -82.02734375 120.46875 C-80.86368974 117.67244074 -79.57328442 116.13996404 -77.4375 114 C-63.93147566 99.38256758 -56.33643299 80.76384296 -56.6953125 60.92578125 C-57.76234222 47.17751366 -63.40294152 33.7931918 -72 23 C-70.38826594 19.4842485 -68.31341763 16.45204806 -66.0625 13.3125 C-65.37285156 12.33925781 -64.68320313 11.36601562 -63.97265625 10.36328125 C-62 8 -62 8 -59 7 C-56.70288086 7.54541016 -56.70288086 7.54541016 -54.02734375 8.4140625 C-48.11198467 10.12028513 -42.69237484 10.46474322 -36.5625 10.375 C-35.04982544 10.35977295 -35.04982544 10.35977295 -33.5065918 10.34423828 C-22.51056357 10.11506183 -8.24993325 8.24993325 0 0 Z M-1.0859375 6.9765625 C-1.84132813 7.52054688 -2.59671875 8.06453125 -3.375 8.625 C-18.97281133 18.42420135 -39.65891843 18.36955277 -57.26074219 14.42431641 C-57.83469727 14.28429199 -58.40865234 14.14426758 -59 14 C-60.2684375 15.3303125 -60.2684375 15.3303125 -61.5625 16.6875 C-62.03816406 17.18636719 -62.51382813 17.68523438 -63.00390625 18.19921875 C-64.20995664 20.00006138 -64.20995664 20.00006138 -63.859375 22.34375 C-62.84586445 25.47641896 -61.38056381 27.98831004 -59.6875 30.8125 C-51.06524901 46.65544266 -49.36113437 65.2962294 -53.5 82.8125 C-57.44896097 95.53848023 -63.97443135 107.96187711 -72.76171875 118.015625 C-74.21205862 119.8869463 -74.21205862 119.8869463 -73.79736328 121.93188477 C-72.81523687 124.47921875 -71.59804843 125.37945302 -69.48046875 127.07421875 C-66.42815711 130.0065263 -65.49125707 131.8514972 -65.23828125 136.08203125 C-65.23544621 137.9923456 -65.26148952 139.90286473 -65.3125 141.8125 C-65.09146854 162.41754386 -60.17335661 181.40020279 -46 197 C-45.34644531 197.74507812 -44.69289063 198.49015625 -44.01953125 199.2578125 C-30.72024266 213.55030843 -9.28982002 223.23292207 10.3359375 224.30078125 C20.67964138 224.88996492 25.96493985 227.20487863 33.36328125 234.56640625 C36.30183926 237.28389757 36.30183926 237.28389757 40 238 C42.41648861 236.28278831 44.50813969 234.60404258 46.6875 232.625 C47.57791992 231.84382813 47.57791992 231.84382813 48.48632812 231.046875 C51.29703563 228.58158523 51.29703563 228.58158523 54 226 C55.88988449 225.78528871 57.78081626 225.57745731 59.67504883 225.40527344 C74.49655785 224.05331659 87.70970366 220.97361557 101 214 C102.00675781 213.48695313 103.01351562 212.97390625 104.05078125 212.4453125 C120.73648438 203.39910769 133.92988467 188.43580364 139.57373047 170.14013672 C142.28369813 160.68383607 143.15950528 151.75578348 143.25 141.9375 C143.38257186 130.25877748 143.38257186 130.25877748 148.0625 125.0625 C150.28515625 123.16015625 150.28515625 123.16015625 152 122 C150.3442287 118.33616563 148.09592735 115.25557265 145.75 112 C132.7841979 93.60264861 126.72498399 72.11322961 130.38671875 49.625 C132.279587 41.14495023 135.88501892 33.71924617 140.64453125 26.453125 C142.32241994 23.88360133 142.32241994 23.88360133 142 20 C140.9448979 18.25331835 140.9448979 18.25331835 139.5 16.75 C138.675 15.8425 137.85 14.935 137 14 C136.40646729 14.14002441 135.81293457 14.28004883 135.20141602 14.42431641 C118.03960568 18.20021515 96.47421163 18.31250912 81.1875 8.625 C80.45917969 8.08101562 79.73085937 7.53703125 78.98046875 6.9765625 C78.32691406 6.65429688 77.67335937 6.33203125 77 6 C75.0406536 6.5875384 75.0406536 6.5875384 73 8 C56.46574741 16.24725339 40.66156301 21.37522742 22.05859375 16.125 C15.40694971 13.67841828 8.81591021 10.46706283 2.8671875 6.62109375 C0.93277691 5.73978241 0.93277691 5.73978241 -1.0859375 6.9765625 Z " fill="#030300" transform="translate(86,5)"/>
<path d="M0 0 C9.24 0 18.48 0 28 0 C28 25.74 28 51.48 28 78 C30.97 78.495 30.97 78.495 34 79 C34 79.33 34 79.66 34 80 C16.66385712 79.39171428 0.86590748 68.97166423 -11 57 C-12.35724408 55.35274651 -13.69764539 53.69098434 -15 52 C-14.67 51.34 -14.34 50.68 -14 50 C-13.22914062 50.85464844 -12.45828125 51.70929688 -11.6640625 52.58984375 C-10.65119765 53.70587076 -9.63816827 54.82174844 -8.625 55.9375 C-8.11710937 56.50146484 -7.60921875 57.06542969 -7.0859375 57.64648438 C-4.37315113 60.73384712 -4.37315113 60.73384712 -1 63 C-0.67 42.21 -0.34 21.42 0 0 Z " fill="#9D0142" transform="translate(56,138)"/>
<path d="M0 0 C1.74216797 0.02707031 1.74216797 0.02707031 3.51953125 0.0546875 C4.39996094 0.07789063 5.28039062 0.10109375 6.1875 0.125 C6.1875 0.785 6.1875 1.445 6.1875 2.125 C7.1775 2.310625 8.1675 2.49625 9.1875 2.6875 C15.13038571 4.43540756 19.62703968 8.31105516 22.6171875 13.703125 C25.44120013 20.36389961 25.44120013 20.36389961 24.1875 24.125 C22.2075 21.815 20.2275 19.505 18.1875 17.125 C18.6 17.66125 19.0125 18.1975 19.4375 18.75 C20.015 19.53375 20.5925 20.3175 21.1875 21.125 C21.93 22.0325 22.6725 22.94 23.4375 23.875 C25.7886008 28.24133007 25.17523159 30.35096399 24.1875 35.125 C22.8675 34.795 21.5475 34.465 20.1875 34.125 C20.8475 34.785 21.5075 35.445 22.1875 36.125 C22.00070447 39.13830688 21.51138808 40.73080451 19.5859375 43.07421875 C15.21083255 46.83275485 11.88602134 49.05652725 6.1875 50.125 C6.1875 50.785 6.1875 51.445 6.1875 52.125 C-2.7950149 52.67215827 -9.4568338 52.13112333 -16.78125 46.65234375 C-22.35027939 41.66145512 -25.1133202 35.74222512 -26.2265625 28.390625 C-26.60543386 21.33165343 -24.92394009 15.86962183 -20.8125 10.125 C-14.50845564 3.31936802 -9.45031427 -0.19091544 0 0 Z " fill="#413301" transform="translate(124.8125,151.875)"/>
<path d="M0 0 C9.24 0 18.48 0 28 0 C28.52141452 15.90091463 28.52141452 15.90091463 28.63476562 22.71484375 C28.71230168 27.35370774 28.80366416 31.9892163 28.98071289 36.62548828 C29.1226904 40.36707923 29.19982374 44.10507413 29.23340416 47.84915161 C29.25730583 49.27215244 29.30399678 50.69496994 29.37449074 52.11642456 C29.59193765 56.68564738 29.48942283 60.65526995 28 65 C20.59777042 72.63749431 9.77516375 74.74161208 0 78 C0 52.26 0 26.52 0 0 Z " fill="#A20044" transform="translate(166,138)"/>
<path d="M0 0 C0 24.75 0 49.5 0 75 C-8.91 75 -17.82 75 -27 75 C-27 52.23 -27 29.46 -27 6 C-21.39 5.01 -15.78 4.02 -10 3 C-2 0 -2 0 0 0 Z " fill="#DB052E" transform="translate(153,28)"/>
<path d="M0 0 C8.91 0 17.82 0 27 0 C27.84545001 16.54666445 27.84545001 16.54666445 25.58203125 20.4375 C23.75 22.0625 23.75 22.0625 21.82421875 23.51953125 C17.77738811 26.80378995 16.33369489 31.65037517 15.62109375 36.66796875 C15.33193321 43.28135016 16.45335851 49.34670679 20 55 C21.20383816 56.05333676 22.41269206 57.10095371 23.625 58.14453125 C26.62974555 61.04774659 27.49970292 62.87925666 27.68359375 67.05859375 C27.63758722 68.85284832 27.55483724 70.64649524 27.4375 72.4375 C27.40591797 73.35982422 27.37433594 74.28214844 27.34179688 75.23242188 C27.25985567 77.49165802 27.14528433 79.74410154 27 82 C24.4374282 82.02710123 21.87514635 82.04688771 19.3125 82.0625 C18.59126953 82.07087891 17.87003906 82.07925781 17.12695312 82.08789062 C13.28444618 82.10543632 9.73360474 81.93524221 6 81 C6 80.34 6 79.68 6 79 C4.02 78.67 2.04 78.34 0 78 C0 52.26 0 26.52 0 0 Z " fill="#004B95" transform="translate(84,138)"/>
<path d="M0 0 C8.91 0 17.82 0 27 0 C27 25.74 27 51.48 27 78 C12.375 81.375 12.375 81.375 6.1875 81.6875 C5.00542969 81.75324219 3.82335937 81.81898438 2.60546875 81.88671875 C1.31576172 81.94279297 1.31576172 81.94279297 0 82 C-0.2046785 78.7926204 -0.32805321 75.58692823 -0.4375 72.375 C-0.52547852 71.01955078 -0.52547852 71.01955078 -0.61523438 69.63671875 C-0.78539769 62.97604057 -0.78539769 62.97604057 1.50366211 60.13134766 C3.375 58.5625 3.375 58.5625 5.24609375 57.27734375 C8.57386557 54.85377719 9.98887702 51.92623191 11 48 C12.06945553 39.14676813 11.97048289 31.65663104 6.80078125 24.015625 C5.02913239 21.84513598 5.02913239 21.84513598 2.3125 20.3125 C-0.30051614 17.69948386 -0.35424786 17.19145152 -0.48828125 13.671875 C-0.45984799 12.03045026 -0.39512296 10.38959052 -0.3125 8.75 C-0.209375 5.8625 -0.10625 2.975 0 0 Z " fill="#004C96" transform="translate(139,138)"/>
<path d="M0 0 C8.25 0 16.5 0 25 0 C25 21.12 25 42.24 25 64 C11.46019186 55.87611512 4.70466091 42.87409119 0.8671875 27.84765625 C-0.32880277 22.22484087 -0.21813408 16.66030068 -0.125 10.9375 C-0.08375 7.328125 -0.0425 3.71875 0 0 Z " fill="#004C96" transform="translate(31,138)"/>
<path d="M0 0 C8.25 0 16.5 0 25 0 C25.62667284 22.40355416 22.98017815 39.80673964 8.34375 57.625 C6 60 6 60 0 64 C0 42.88 0 21.76 0 0 Z " fill="#004C96" transform="translate(194,138)"/>
<path d="M0 0 C2.14684338 1.06045766 4.29268757 2.12294066 6.4375 3.1875 C21.29451714 9.35610734 39.81771485 8.62566162 54.72265625 3.04296875 C57.43297751 1.89392237 60.01798465 0.67565839 62.609375 -0.71484375 C66.54515793 -2.60985035 67.88633963 -2.70585554 71.984375 -1.33984375 C73.11875 -0.72109375 74.253125 -0.10234375 75.421875 0.53515625 C89.6156883 7.76397566 106.56622722 5.98777299 121.984375 5.66015625 C120.82454488 9.24789743 119.55996358 12.70861283 118.046875 16.16015625 C110.73036751 34.6295422 111.52593057 52.9141847 116.984375 71.66015625 C117.974375 76.11515625 117.974375 76.11515625 118.984375 80.66015625 C60.574375 80.66015625 2.164375 80.66015625 -58.015625 80.66015625 C-55.015625 69.66015625 -55.015625 69.66015625 -54.07958984 66.39819336 C-52.11626469 59.25661459 -51.54107488 52.61282257 -51.640625 45.22265625 C-51.65077637 44.12590576 -51.66092773 43.02915527 -51.67138672 41.89916992 C-51.92888859 28.46615557 -55.407204 17.76635951 -61.015625 5.66015625 C-59.97559326 5.69157715 -59.97559326 5.69157715 -58.91455078 5.72363281 C-33.55152911 6.46206375 -33.55152911 6.46206375 -9.83984375 -1.703125 C-6.2397649 -2.95968357 -3.34563145 -1.48646579 0 0 Z M-18.3359375 3.37109375 C-27.60648049 6.6187362 -36.37109423 6.92113473 -46.140625 6.78515625 C-48.00460938 6.77162109 -48.00460938 6.77162109 -49.90625 6.7578125 C-52.94291504 6.73445354 -55.97916353 6.70169908 -59.015625 6.66015625 C-58.61730469 7.60375 -58.21898437 8.54734375 -57.80859375 9.51953125 C-48.48759706 31.91165468 -47.69735596 51.48163858 -55.015625 74.66015625 C-55.345625 75.98015625 -55.675625 77.30015625 -56.015625 78.66015625 C-27.635625 78.66015625 0.744375 78.66015625 29.984375 78.66015625 C29.984375 55.89015625 29.984375 33.12015625 29.984375 9.66015625 C25.364375 9.00015625 20.744375 8.34015625 15.984375 7.66015625 C11.546875 6.4765625 11.546875 6.4765625 7.984375 5.22265625 C6.788125 4.81144531 5.591875 4.40023438 4.359375 3.9765625 C0.984375 2.66015625 0.984375 2.66015625 -2.203125 1 C-8.17728539 -1.84602363 -12.68920607 1.01023538 -18.3359375 3.37109375 Z M59.484375 2.47265625 C50.47045156 6.50445442 41.80698191 8.43233039 31.984375 9.66015625 C31.984375 32.43015625 31.984375 55.20015625 31.984375 78.66015625 C60.034375 78.66015625 88.084375 78.66015625 116.984375 78.66015625 C115.00616451 71.32309083 115.00616451 71.32309083 112.859375 64.03515625 C107.68557063 44.07905368 112.06869715 26.05308408 119.984375 7.66015625 C119.27531006 7.64557373 118.56624512 7.63099121 117.83569336 7.6159668 C83.98765123 6.83939639 83.98765123 6.83939639 71.81640625 0.4296875 C67.15908429 -1.52658633 63.71820611 0.51307902 59.484375 2.47265625 Z " fill="#3A2A04" transform="translate(94.015625,24.33984375)"/>
<path d="M0 0 C0 26.07 0 52.14 0 79 C-3.3 79 -6.6 79 -10 79 C-10 54.25 -10 29.5 -10 4 C-3 0 -3 0 0 0 Z " fill="#DC0A2D" transform="translate(163,24)"/>
<path d="M0 0 C7.1993073 -0.01254235 11.98534553 1.60729734 17.359375 6.45703125 C21.66312632 10.94457266 24.24357264 14.11433651 24.1171875 20.43359375 C23.6221875 21.91859375 23.6221875 21.91859375 23.1171875 23.43359375 C22.6221875 23.14484375 22.1271875 22.85609375 21.6171875 22.55859375 C18.19966715 21.02070959 14.7665673 20.2851157 11.1171875 19.43359375 C10.5603125 20.34109375 10.0034375 21.24859375 9.4296875 22.18359375 C5.08506622 28.28954798 -0.19513719 31.14448304 -7.3828125 33.12109375 C-8.6203125 33.27578125 -8.6203125 33.27578125 -9.8828125 33.43359375 C-11.584375 33.68109375 -11.584375 33.68109375 -13.3203125 33.93359375 C-17.92888907 33.28677599 -19.09354416 31.5479312 -21.81640625 27.96484375 C-22.16832031 27.45953125 -22.52023438 26.95421875 -22.8828125 26.43359375 C-22.26792969 26.14742187 -21.65304688 25.86125 -21.01953125 25.56640625 C-18.72285069 24.47636402 -18.72285069 24.47636402 -16.6953125 22.30859375 C-13.56414543 20.22114904 -12.99698474 20.31717549 -9.4453125 20.62109375 C-5.95645581 20.82653488 -5.95645581 20.82653488 -3.14453125 18.92578125 C-2.14962765 17.65580094 -1.17855195 16.36672718 -0.234375 15.05859375 C1.1171875 13.43359375 1.1171875 13.43359375 3.9921875 12.49609375 C4.6934375 12.47546875 5.3946875 12.45484375 6.1171875 12.43359375 C-0.25707659 13.75655422 -0.25707659 13.75655422 -2.8203125 12.43359375 C-4.44897004 9.36788544 -4.18688189 6.83917092 -3.8828125 3.43359375 C-1.8828125 0.43359375 -1.8828125 0.43359375 0 0 Z " fill="#E6B600" transform="translate(125.8828125,163.56640625)"/>
<path d="M0 0 C4.455 1.98 4.455 1.98 9 4 C9 28.75 9 53.5 9 79 C6.03 79 3.06 79 0 79 C0 52.93 0 26.86 0 0 Z " fill="#FDE104" transform="translate(163,24)"/>
<path d="M0 0 C4.455 0.99 4.455 0.99 9 2 C9 26.09 9 50.18 9 75 C6.03 75 3.06 75 0 75 C0 50.25 0 25.5 0 0 Z " fill="#DA002F" transform="translate(172,28)"/>
<path d="M0 0 C0 24.75 0 49.5 0 75 C-2.97 75 -5.94 75 -9 75 C-9 51.24 -9 27.48 -9 3 C-2 0 -2 0 0 0 Z " fill="#FDE303" transform="translate(153,28)"/>
<path d="M0 0 C8.58 0 17.16 0 26 0 C26 7.59 26 15.18 26 23 C15.44 23 4.88 23 -6 23 C-3.03 11.615 -3.03 11.615 0 0 Z " fill="#FDFDFD" transform="translate(44,80)"/>
<path d="M0 0 C7 0 7 0 9 1 C9 24.43 9 47.86 9 72 C6.03 72 3.06 72 0 72 C0 48.24 0 24.48 0 0 Z " fill="#FCE004" transform="translate(181,31)"/>
<path d="M0 0 C11.55 0 23.1 0 35 0 C35 7.26 35 14.52 35 22 C26.09 22 17.18 22 8 22 C5.6875 14.9375 5.6875 14.9375 4.97924805 12.75756836 C4.68594604 11.87016968 4.68594604 11.87016968 4.38671875 10.96484375 C4.19295654 10.3730835 3.99919434 9.78132324 3.79956055 9.17163086 C2.6562098 6.06625533 1.30354605 3.04160744 0 0 Z " fill="#FCFCFC" transform="translate(35,31)"/>
<path d="M0 0 C8.91 0 17.82 0 27 0 C27 7.59 27 15.18 27 23 C18.09 23 9.18 23 0 23 C0 15.41 0 7.82 0 0 Z " fill="#FFFFFF" transform="translate(97,80)"/>
<path d="M0 0 C3.57347535 3.24861396 4.86617091 5.71101452 5.37109375 10.57421875 C5.61151536 18.6224786 5.63026793 25.64958153 0 32 C-1.03125 32.6909375 -2.0625 33.381875 -3.125 34.09375 C-5.19980792 35.77196936 -5.91298229 36.65762982 -6.57763672 39.27270508 C-6.81429227 41.97286858 -6.88156263 44.60103806 -6.875 47.3125 C-6.91625 50.509375 -6.9575 53.70625 -7 57 C-16.24 57 -25.48 57 -35 57 C-35 50.4 -35 43.8 -35 37 C-32.36 37.99 -29.72 38.98 -27 40 C-23.65617891 40.55587913 -23.65617891 40.55587913 -20.5 40.6875 C-19.4584375 40.75324219 -18.416875 40.81898438 -17.34375 40.88671875 C-16.5703125 40.92410156 -15.796875 40.96148437 -15 41 C-15 40.34 -15 39.68 -15 39 C-14.33613281 38.70867187 -13.67226562 38.41734375 -12.98828125 38.1171875 C-7.347316 35.49846203 -3.30777892 33.36088308 0 28 C-0.08988812 24.85391595 -1.20645989 23.69031017 -3 21 C0 22.5 0 22.5 3 24 C3.54374606 19.72770949 3.77962399 17.26139164 1.4765625 13.53515625 C-0.29518115 11.30420558 -2.13644656 9.1540354 -4 7 C-4.33 6.34 -4.66 5.68 -5 5 C-1.2047869 6.49097658 0.61042731 8.75700849 3 12 C2.690625 10.7625 2.38125 9.525 2.0625 8.25 C1.375 5.5 0.6875 2.75 0 0 Z " fill="#8A0539" transform="translate(146,163)"/>
<path d="M0 0 C3.898125 1.2065625 3.898125 1.2065625 7.875 2.4375 C14.28289557 4.37096433 20.28177244 5.6800844 27 6 C27 12.27 27 18.54 27 25 C18.09 25 9.18 25 0 25 C0 16.75 0 8.5 0 0 Z " fill="#FEFEFE" transform="translate(97,28)"/>
<path d="M0 0 C2.64 0 5.28 0 8 0 C8 22.77 8 45.54 8 69 C5.36 69 2.72 69 0 69 C0 46.23 0 23.46 0 0 Z " fill="#FEE902" transform="translate(126,34)"/>
<path d="M0 0 C4.62 0 9.24 0 14 0 C13.60167969 0.93199219 13.20335937 1.86398438 12.79296875 2.82421875 C3.67256015 24.56780158 2.80586852 43.89085526 10.1953125 66.3828125 C11 69 11 69 11 71 C7.37 71 3.74 71 0 71 C0 47.57 0 24.14 0 0 Z " fill="#FBE403" transform="translate(200,32)"/>
<path d="M0 0 C3.5578125 -0.12375 3.5578125 -0.12375 7.1875 -0.25 C7.92508545 -0.28641602 8.6626709 -0.32283203 9.42260742 -0.36035156 C12.95941124 -0.41957691 14.94293475 -0.03342393 18.0078125 1.76171875 C20 4 20 4 20.19921875 6.03515625 C20.03035156 6.70417969 19.86148438 7.37320313 19.6875 8.0625 C18.52711107 12.03767571 18.52711107 12.03767571 21 15 C21.4375 17.375 21.4375 17.375 21 20 C19.00828883 22.62332386 17.43148988 24.69859521 14.08911133 25.40234375 C11.92921573 25.49169423 9.84650072 25.43693491 7.6875 25.3125 C5.150625 25.209375 2.61375 25.10625 0 25 C0 16.75 0 8.5 0 0 Z " fill="#181300" transform="translate(144,108)"/>
<path d="M0 0 C9.24 0 18.48 0 28 0 C28.125 8.6875 28.125 8.6875 28.11767578 11.3972168 C28.24507032 15.88757469 28.24507032 15.88757469 30.39355469 19.69775391 C32.20270744 21.26038697 32.20270744 21.26038697 35 23 C34.67 23.66 34.34 24.32 34 25 C33.57589844 24.60167969 33.15179688 24.20335937 32.71484375 23.79296875 C28.67232555 20.14137539 25.11349698 17.87842746 20 16 C20 15.34 20 14.68 20 14 C17.97840511 14.08815978 15.95767973 14.19634536 13.9375 14.3125 C12.81214844 14.37050781 11.68679687 14.42851562 10.52734375 14.48828125 C6.28986729 14.9482259 6.28986729 14.9482259 0 18 C0 12.06 0 6.12 0 0 Z " fill="#990241" transform="translate(111,138)"/>
<path d="M0 0 C2.14684338 1.06045766 4.29268757 2.12294066 6.4375 3.1875 C21.29451714 9.35610734 39.81771485 8.62566162 54.72265625 3.04296875 C57.43297751 1.89392237 60.01798465 0.67565839 62.609375 -0.71484375 C66.54515793 -2.60985035 67.88633963 -2.70585554 71.984375 -1.33984375 C73.11875 -0.72109375 74.253125 -0.10234375 75.421875 0.53515625 C87.59967034 6.83006926 102.61054931 6.31040008 115.984375 6.66015625 C115.984375 6.99015625 115.984375 7.32015625 115.984375 7.66015625 C84.70450516 8.49605794 84.70450516 8.49605794 72.01171875 1.33203125 C66.76331563 -0.40732393 61.4740984 2.54210559 56.671875 4.59765625 C47.90579274 8.21193989 41.53499128 9.66015625 31.984375 9.66015625 C31.984375 32.43015625 31.984375 55.20015625 31.984375 78.66015625 C31.654375 78.66015625 31.324375 78.66015625 30.984375 78.66015625 C30.984375 55.89015625 30.984375 33.12015625 30.984375 9.66015625 C27.354375 9.66015625 23.724375 9.66015625 19.984375 9.66015625 C17.11895833 9.01872353 14.59449472 8.36810713 11.859375 7.41015625 C10.83481201 7.07443604 10.83481201 7.07443604 9.78955078 6.73193359 C5.34098517 5.24062305 1.09845536 3.50224972 -3.0234375 1.26171875 C-8.15666409 -0.28831438 -13.66648859 2.4458151 -18.515625 4.16015625 C-25.17626724 6.51492876 -31.19981791 7.79290777 -38.2890625 7.7578125 C-39.44277344 7.75458984 -40.59648438 7.75136719 -41.78515625 7.74804688 C-42.97496094 7.73966797 -44.16476563 7.73128906 -45.390625 7.72265625 C-46.60363281 7.71814453 -47.81664062 7.71363281 -49.06640625 7.70898438 C-52.04953007 7.69723979 -55.03255179 7.68081465 -58.015625 7.66015625 C-57.66991455 8.41506348 -57.3242041 9.1699707 -56.96801758 9.94775391 C-56.51579834 10.9382373 -56.0635791 11.9287207 -55.59765625 12.94921875 C-55.1488208 13.93100098 -54.69998535 14.9127832 -54.23754883 15.92431641 C-52.13884836 20.62322499 -50.71083098 24.47865788 -51.015625 29.66015625 C-53.15338807 26.45351164 -54.19976089 23.54920717 -55.453125 19.91015625 C-57.12837537 15.05770691 -58.95086826 10.35552144 -61.015625 5.66015625 C-59.97559326 5.69157715 -59.97559326 5.69157715 -58.91455078 5.72363281 C-33.55152911 6.46206375 -33.55152911 6.46206375 -9.83984375 -1.703125 C-6.2397649 -2.95968357 -3.34563145 -1.48646579 0 0 Z " fill="#32260A" transform="translate(94.015625,24.33984375)"/>
<path d="M0 0 C-0.020625 0.886875 -0.04125 1.77375 -0.0625 2.6875 C-0.11640134 5.92195844 -0.11640134 5.92195844 0.625 8.6875 C1 11 1 11 -1 14 C-0.76787034 19.04001408 -0.76787034 19.04001408 2 23 C1.77259766 25.34982419 1.11698632 26.81152204 -0.125 28.8125 C-2 30 -2 30 -5.4375 30.0625 C-8.90426973 29.02855113 -10.55140488 28.32063213 -12.34765625 25.13671875 C-14.40459695 18.39931417 -14.05109005 9.37955192 -11 3 C-7.30934601 0.45754947 -4.45652738 -0.393223 0 0 Z " fill="#E9B800" transform="translate(122,154)"/>
<path d="M0 0 C3.38360687 0.66021597 4.58993761 1.69289199 6.5625 4.5 C6.34893863 7.50442018 5.90512696 9.090519 3.9609375 11.4140625 C-2.97567482 17.27938334 -8.56156642 20.03329904 -17.76953125 19.8046875 C-21.48686281 19.38016062 -24.14925417 18.25373111 -27.4375 16.5 C-24.8637015 13.9262015 -22.75932853 13.67074443 -19.25 12.75 C-12.35330666 10.70766429 -7.88214579 8.07294384 -3.8125 2.125 C-2.4375 0.5 -2.4375 0.5 0 0 Z " fill="#E6B500" transform="translate(140.4375,183.5)"/>
<path d="M0 0 C2.66937452 0.59747733 4.30753225 1.46640734 6.1640625 3.484375 C6.1640625 4.144375 6.1640625 4.804375 6.1640625 5.484375 C4.5140625 6.144375 2.8640625 6.804375 1.1640625 7.484375 C0.5040625 6.824375 -0.1559375 6.164375 -0.8359375 5.484375 C-4.14277216 5.77420769 -4.14277216 5.77420769 -6.8359375 7.484375 C-7.03535618 9.55210234 -7.03535618 9.55210234 -7.0234375 11.921875 C-7.03761719 12.72496094 -7.05179687 13.52804688 -7.06640625 14.35546875 C-7.03756106 16.70068133 -7.03756106 16.70068133 -4.8359375 18.484375 C-2.40655061 18.13205293 -2.40655061 18.13205293 0.1640625 17.484375 C1.4840625 17.484375 2.8040625 17.484375 4.1640625 17.484375 C4.8240625 18.144375 5.4840625 18.804375 6.1640625 19.484375 C4.07766361 22.17650259 2.39242031 24.1756196 -0.99609375 25.02734375 C-4.30696451 25.23185497 -6.77737396 25.28329088 -9.4921875 23.234375 C-13.16276796 18.96625819 -14.18644989 15.11199627 -14.125 9.55078125 C-13.65197554 6.1692956 -11.9803868 4.05771416 -9.8359375 1.484375 C-6.05001673 -1.03957218 -4.33615858 -0.59322039 0 0 Z " fill="#0E0B00" transform="translate(125.8359375,108.515625)"/>
<path d="M0 0 C0.33 0 0.66 0 1 0 C5.19022216 16.41742782 1.20488801 33.38533597 -4 49 C24.05 49.33 52.1 49.66 81 50 C81 50.33 81 50.66 81 51 C69.2946309 51.75519374 57.65799557 52.14063058 45.9296875 52.09765625 C44.38599698 52.0957831 42.84230584 52.09436346 41.2986145 52.09336853 C37.30395768 52.0896138 33.30933927 52.07984697 29.31469727 52.06866455 C25.21110554 52.05829572 21.1075074 52.05383834 17.00390625 52.04882812 C9.00258686 52.03821567 1.00129825 52.02122807 -7 52 C-4.21429434 41.72190059 -4.21429434 41.72190059 -3.05517578 37.81713867 C-0.80994502 29.91407557 -0.67802544 22.48694427 -0.875 14.3125 C-0.91810408 11.80866006 -0.95739156 9.30475043 -0.9921875 6.80078125 C-1.01651855 5.70934814 -1.04084961 4.61791504 -1.06591797 3.4934082 C-1 1 -1 1 0 0 Z " fill="#4B380F" transform="translate(43,53)"/>
<path d="M0 0 C5.61 0 11.22 0 17 0 C17 1.98 17 3.96 17 6 C13.04 6 9.08 6 5 6 C5 7.32 5 8.64 5 10 C7.31 10 9.62 10 12 10 C12 11.65 12 13.3 12 15 C9.69 15 7.38 15 5 15 C5 18.3 5 21.6 5 25 C3.35 25 1.7 25 0 25 C0 16.75 0 8.5 0 0 Z " fill="#120E00" transform="translate(85,108)"/>
<path d="M0 0 C6.67444224 -0.72548285 11.42790365 1.35882813 17 5 C21.85763759 9.18691776 24.26734849 13.88475936 26 20 C25.67 20.99 25.34 21.98 25 23 C24.48953125 22.32904297 24.48953125 22.32904297 23.96875 21.64453125 C17.81724632 13.97151203 11.98353992 10.70199999 2.22265625 9.359375 C0 9 0 9 -1 8 C-1.23529412 2.47058824 -1.23529412 2.47058824 0 0 Z " fill="#E5B500" transform="translate(124,153)"/>
<path d="M0 0 C1.42234475 2.84468949 0.74982366 4.92059581 0.375 8.0625 C-0.16807575 14.09667494 0.49061569 18.51338006 3 24 C1.69921875 25.48828125 1.69921875 25.48828125 0 27 C-3.1875 27.1875 -3.1875 27.1875 -6 27 C-8.43359674 22.13280651 -7.50486272 15.32849672 -7 10 C-5.40603711 5.8901927 -3.08389513 3.08389513 0 0 Z " fill="#E8B700" transform="translate(108,160)"/>
<path d="M0 0 C2.64 0 5.28 0 8 0 C6.86431298 3.59634223 5.5523534 7.04080014 4.0625 10.5 C-3.4710441 29.51726114 -2.24551548 48.61032672 3 68 C2.01 68.495 2.01 68.495 1 69 C-3.70373747 53.61987238 -3.70373747 53.61987238 -4 46 C-4.06316406 44.83082031 -4.12632812 43.66164062 -4.19140625 42.45703125 C-4.72739765 28.27346869 -1.54029076 15.65171 5 3 C2.525 2.01 2.525 2.01 0 1 C0 0.67 0 0.34 0 0 Z " fill="#4B4200" transform="translate(208,30)"/>
<path d="M0 0 C1.74216797 0.02707031 1.74216797 0.02707031 3.51953125 0.0546875 C4.39996094 0.07789063 5.28039062 0.10109375 6.1875 0.125 C6.1875 0.455 6.1875 0.785 6.1875 1.125 C5.15302734 1.18107422 5.15302734 1.18107422 4.09765625 1.23828125 C-2.35928437 1.69000138 -7.75663643 2.8416416 -13.8125 5.125 C-14.4725 8.755 -15.1325 12.385 -15.8125 16.125 C-16.1425 16.125 -16.4725 16.125 -16.8125 16.125 C-16.8125 13.815 -16.8125 11.505 -16.8125 9.125 C-22.87684215 16.02580314 -24.29182271 22.20166843 -24.8125 31.125 C-25.1425 31.125 -25.4725 31.125 -25.8125 31.125 C-26.5109666 22.96070157 -25.64686473 16.87971285 -20.8125 10.125 C-14.50845564 3.31936802 -9.45031427 -0.19091544 0 0 Z " fill="#1C1409" transform="translate(124.8125,151.875)"/>
<path d="M0 0 C2.64 0 5.28 0 8 0 C8 1.32 8 2.64 8 4 C5.36 4 2.72 4 0 4 C0 2.68 0 1.36 0 0 Z " fill="#E8B700" transform="translate(150,123)"/>
<path d="M0 0 C2.64 0 5.28 0 8 0 C6.68938409 4.23429756 5.05643741 8.07407404 3 12 C2 9 2 9 3.4375 5.8125 C3.953125 4.884375 4.46875 3.95625 5 3 C2.525 2.01 2.525 2.01 0 1 C0 0.67 0 0.34 0 0 Z " fill="#372F00" transform="translate(208,30)"/>
<path d="M0 0 C2.64 0 5.28 0 8 0 C8 0.99 8 1.98 8 3 C5.36 3 2.72 3 0 3 C0 2.01 0 1.02 0 0 Z " fill="#E6B500" transform="translate(150,114)"/>
</svg>
