<?xml version="1.0" encoding="UTF-8"?>
<svg version="1.1" xmlns="http://www.w3.org/2000/svg" width="250" height="250">
<path d="M0 0 C1.08279739 -0.00101212 1.08279739 -0.00101212 2.18746948 -0.00204468 C12.62386462 0.0134941 22.50931645 0.34305965 32.625 3.25 C33.85089844 3.5903125 35.07679688 3.930625 36.33984375 4.28125 C68.36930162 14.06527428 95.88709752 36.21745102 111.9375 65.625 C121.6478033 84.15863123 125.85754995 103.88023199 125.875 124.6875 C125.87567474 125.40686737 125.87634949 126.12623474 125.87704468 126.86740112 C125.86149018 137.28528005 125.52678729 147.15224828 122.625 157.25 C122.2846875 158.47589844 121.944375 159.70179688 121.59375 160.96484375 C111.81157625 192.98824363 89.65938156 220.52208122 60.25 236.5625 C52.35063957 240.67640593 44.15180544 243.71690837 35.625 246.25 C34.93583496 246.46172852 34.24666992 246.67345703 33.53662109 246.89160156 C13.80009382 252.71791675 -11.60193393 252.93217889 -31.375 247.25 C-32.60089844 246.9096875 -33.82679687 246.569375 -35.08984375 246.21875 C-67.11930162 236.43472572 -94.63709752 214.28254898 -110.6875 184.875 C-120.3978033 166.34136877 -124.60754995 146.61976801 -124.625 125.8125 C-124.62567474 125.09313263 -124.62634949 124.37376526 -124.62704468 123.63259888 C-124.61149018 113.21471995 -124.27678729 103.34775172 -121.375 93.25 C-121.0346875 92.02410156 -120.694375 90.79820313 -120.34375 89.53515625 C-110.56008402 57.50687132 -88.40790429 29.98596937 -59 13.9375 C-40.54892003 4.28190456 -20.71014232 0.01726455 0 0 Z " fill="#ED063C" transform="translate(124.375,-0.24999999999999997)"/>
<path d="M0 0 C1.07185547 -0.00322266 2.14371094 -0.00644531 3.24804688 -0.00976562 C21.67388587 0.11420026 38.39621222 7.07421719 51.625 19.9375 C64.94124794 33.45802404 71.61420281 49.76687361 71.625 68.5 C71.63724609 69.59892578 71.64949219 70.69785156 71.66210938 71.83007812 C71.69531973 90.39466851 64.78310209 107.16084351 51.8125 120.5 C36.21838072 135.85851407 18.33376168 140.6343723 -2.93432617 140.69750977 C-21.53563038 140.44736502 -36.51119227 132.31964087 -49.5625 119.3125 C-50.27277344 118.62542969 -50.98304687 117.93835938 -51.71484375 117.23046875 C-66.3823466 102.05621916 -69.16753014 82.76909453 -68.90625 62.5859375 C-68.62654007 54.77969965 -66.88322706 48.42203533 -63.5625 41.3125 C-63.1396875 40.34699219 -62.716875 39.38148437 -62.28125 38.38671875 C-58.43018869 30.47189215 -52.70744987 24.48405139 -46.5625 18.3125 C-45.92699219 17.6421875 -45.29148437 16.971875 -44.63671875 16.28125 C-40.50075062 12.24615914 -35.7966693 9.66128778 -30.6875 7.0625 C-30.03950439 6.73282227 -29.39150879 6.40314453 -28.72387695 6.06347656 C-19.16094378 1.42272866 -10.61860829 -0.16020833 0 0 Z " fill="#5A8EFD" transform="translate(123.5625,54.6875)"/>
<path d="M0 0 C1.07185547 -0.00322266 2.14371094 -0.00644531 3.24804688 -0.00976562 C21.67388587 0.11420026 38.39621222 7.07421719 51.625 19.9375 C64.94124794 33.45802404 71.61420281 49.76687361 71.625 68.5 C71.63724609 69.59892578 71.64949219 70.69785156 71.66210938 71.83007812 C71.69531973 90.39466851 64.78310209 107.16084351 51.8125 120.5 C36.21838072 135.85851407 18.33376168 140.6343723 -2.93432617 140.69750977 C-21.53563038 140.44736502 -36.51119227 132.31964087 -49.5625 119.3125 C-50.27277344 118.62542969 -50.98304687 117.93835938 -51.71484375 117.23046875 C-66.3823466 102.05621916 -69.16753014 82.76909453 -68.90625 62.5859375 C-68.62654007 54.77969965 -66.88322706 48.42203533 -63.5625 41.3125 C-63.1396875 40.34699219 -62.716875 39.38148437 -62.28125 38.38671875 C-58.43018869 30.47189215 -52.70744987 24.48405139 -46.5625 18.3125 C-45.92699219 17.6421875 -45.29148437 16.971875 -44.63671875 16.28125 C-40.50075062 12.24615914 -35.7966693 9.66128778 -30.6875 7.0625 C-30.03950439 6.73282227 -29.39150879 6.40314453 -28.72387695 6.06347656 C-19.16094378 1.42272866 -10.61860829 -0.16020833 0 0 Z M-41.5625 21.3125 C-41.5625 25.6703301 -41.48483636 25.83243943 -38.71875 28.734375 C-26.50631403 42.88593079 -27.15395685 55.95423832 -28.35620117 73.67651367 C-28.45831909 74.9813269 -28.45831909 74.9813269 -28.5625 76.3125 C-28.9656543 75.72758789 -29.36880859 75.14267578 -29.78417969 74.54003906 C-31.62266972 71.87787171 -33.46750902 69.22016558 -35.3125 66.5625 C-35.94671875 65.64210937 -36.5809375 64.72171875 -37.234375 63.7734375 C-37.853125 62.88398437 -38.471875 61.99453125 -39.109375 61.078125 C-39.67495117 60.26118164 -40.24052734 59.44423828 -40.82324219 58.60253906 C-42.79383716 55.90058328 -42.79383716 55.90058328 -46.5625 52.3125 C-46.8925 62.2125 -47.2225 72.1125 -47.5625 82.3125 C-49.50125 79.59 -51.44 76.8675 -53.4375 74.0625 C-54.04577637 73.21139648 -54.65405273 72.36029297 -55.28076172 71.48339844 C-55.76303223 70.8030957 -56.24530273 70.12279297 -56.7421875 69.421875 C-57.23444824 68.73061523 -57.72670898 68.03935547 -58.23388672 67.32714844 C-59.5183321 65.37947419 -60.56662271 63.41995816 -61.5625 61.3125 C-62.2225 61.3125 -62.8825 61.3125 -63.5625 61.3125 C-64.4762125 80.39893892 -60.70752584 98.69716242 -47.5625 113.3125 C-47.2325 113.3125 -46.9025 113.3125 -46.5625 113.3125 C-46.5625 104.4025 -46.5625 95.4925 -46.5625 86.3125 C-45.9025 86.3125 -45.2425 86.3125 -44.5625 86.3125 C-44.29896729 87.04428467 -44.03543457 87.77606934 -43.76391602 88.5300293 C-42.5561174 91.32728206 -41.17529118 93.40994668 -39.33984375 95.83203125 C-31.99128558 105.90075812 -27.43064242 112.64184239 -27.80078125 125.2265625 C-27.86814289 128.32443886 -27.86814289 128.32443886 -25.98046875 130.1484375 C-23.80729233 131.28542405 -21.96925641 131.86972696 -19.5625 132.3125 C-17.83 132.68375 -17.83 132.68375 -16.0625 133.0625 C-15.2375 133.145 -14.4125 133.2275 -13.5625 133.3125 C-16.54904215 127.49047607 -16.54904215 127.49047607 -20.36523438 122.20898438 C-26.85138253 114.5882729 -26.38833045 107.11419553 -26 97.6875 C-25.96481288 96.19147993 -25.93288697 94.69537943 -25.90429688 93.19921875 C-25.82791796 89.56861462 -25.70755417 85.94108592 -25.5625 82.3125 C-23.45594165 85.37336115 -21.35268202 88.43647497 -19.25 91.5 C-18.65509766 92.36431641 -18.06019531 93.22863281 -17.44726562 94.11914062 C-16.87041016 94.96025391 -16.29355469 95.80136719 -15.69921875 96.66796875 C-15.17030029 97.43778076 -14.64138184 98.20759277 -14.09643555 99.00073242 C-13.33713745 100.14505737 -13.33713745 100.14505737 -12.5625 101.3125 C-12.01263428 102.09761963 -11.46276855 102.88273926 -10.89624023 103.69165039 C-9.25278948 106.92109279 -9.14873684 109.27685458 -9.0859375 112.890625 C-9.055 114.13328125 -9.0240625 115.3759375 -8.9921875 116.65625 C-8.97414062 117.9453125 -8.95609375 119.234375 -8.9375 120.5625 C-8.88675318 123.13028924 -8.83227871 125.69800849 -8.7734375 128.265625 C-8.75587402 129.40161133 -8.73831055 130.53759766 -8.72021484 131.70800781 C-8.85575776 134.2402667 -8.85575776 134.2402667 -7.5625 135.3125 C10.50984816 136.98625792 28.25715357 133.04192236 42.4375 121.3125 C43.45712346 120.33251633 44.46656117 119.34074014 45.4375 118.3125 C44.03507517 114.30763735 42.1229228 111.30952851 39.5625 107.9375 C38.15803849 106.08446523 36.78414556 104.20796715 35.4375 102.3125 C34.69757813 101.37019531 33.95765625 100.42789063 33.1953125 99.45703125 C29.9165314 93.57550639 31.03128947 85.90857913 31.1875 79.375 C31.20759023 77.91343585 31.22583656 76.45184514 31.2421875 74.99023438 C31.28599664 71.43043226 31.35488454 67.87163746 31.4375 64.3125 C31.8406543 64.89741211 32.24380859 65.48232422 32.65917969 66.08496094 C34.49766972 68.74712829 36.34250902 71.40483442 38.1875 74.0625 C38.82171875 74.98289062 39.4559375 75.90328125 40.109375 76.8515625 C40.728125 77.74101562 41.346875 78.63046875 41.984375 79.546875 C42.54995117 80.36381836 43.11552734 81.18076172 43.69824219 82.02246094 C45.66883716 84.72441672 45.66883716 84.72441672 49.4375 88.3125 C49.7675 78.4125 50.0975 68.5125 50.4375 58.3125 C57.3125 68.3125 57.3125 68.3125 59.47216797 71.4765625 C60.03564941 72.28867188 60.59913086 73.10078125 61.1796875 73.9375 C61.7557373 74.77539062 62.33178711 75.61328125 62.92529297 76.4765625 C63.42432129 77.08242187 63.92334961 77.68828125 64.4375 78.3125 C65.0975 78.3125 65.7575 78.3125 66.4375 78.3125 C67.37673962 60.2790992 64.29641973 44.12177782 52.625 29.625 C51.5421875 28.4803125 51.5421875 28.4803125 50.4375 27.3125 C50.1075 27.3125 49.7775 27.3125 49.4375 27.3125 C49.1075 36.2225 48.7775 45.1325 48.4375 54.3125 C44.9725 48.8675 44.9725 48.8675 41.4375 43.3125 C39.38249006 40.5631539 39.38249006 40.5631539 37.31591797 37.82250977 C31.17175987 29.50144796 29.98122093 22.52509914 30.4375 12.3125 C29.04471983 11.66010842 27.64810788 11.01589448 26.25 10.375 C25.47269531 10.01535156 24.69539063 9.65570313 23.89453125 9.28515625 C21.41311196 8.30284559 19.06395164 7.75568456 16.4375 7.3125 C19.42404215 13.13452393 19.42404215 13.13452393 23.24023438 18.41601562 C29.72638253 26.0367271 29.26333045 33.51080447 28.875 42.9375 C28.83981288 44.43352007 28.80788697 45.92962057 28.77929688 47.42578125 C28.70291796 51.05638538 28.58255417 54.68391408 28.4375 58.3125 C26.33094165 55.25163885 24.22768202 52.18852503 22.125 49.125 C21.53009766 48.26068359 20.93519531 47.39636719 20.32226562 46.50585938 C19.74541016 45.66474609 19.16855469 44.82363281 18.57421875 43.95703125 C18.04530029 43.18721924 17.51638184 42.41740723 16.97143555 41.62426758 C16.46523682 40.86138428 15.95903809 40.09850098 15.4375 39.3125 C14.61270142 38.13482056 14.61270142 38.13482056 13.77124023 36.93334961 C12.12778948 33.70390721 12.02373684 31.34814542 11.9609375 27.734375 C11.93 26.49171875 11.8990625 25.2490625 11.8671875 23.96875 C11.84914063 22.6796875 11.83109375 21.390625 11.8125 20.0625 C11.76175318 17.49471076 11.70727871 14.92699151 11.6484375 12.359375 C11.63087402 11.22338867 11.61331055 10.08740234 11.59521484 8.91699219 C11.73075776 6.3847333 11.73075776 6.3847333 10.4375 5.3125 C-7.94755574 4.14792222 -28.2990082 6.99177334 -41.5625 21.3125 Z " fill="#FBFAFD" transform="translate(123.5625,54.6875)"/>
<path d="M0 0 C1.08279739 -0.00101212 1.08279739 -0.00101212 2.18746948 -0.00204468 C12.62386462 0.0134941 22.50931645 0.34305965 32.625 3.25 C33.85089844 3.5903125 35.07679688 3.930625 36.33984375 4.28125 C68.36930162 14.06527428 95.88709752 36.21745102 111.9375 65.625 C121.6478033 84.15863123 125.85754995 103.88023199 125.875 124.6875 C125.87567474 125.40686737 125.87634949 126.12623474 125.87704468 126.86740112 C125.86149018 137.28528005 125.52678729 147.15224828 122.625 157.25 C122.2846875 158.47589844 121.944375 159.70179688 121.59375 160.96484375 C111.81157625 192.98824363 89.65938156 220.52208122 60.25 236.5625 C52.35063957 240.67640593 44.15180544 243.71690837 35.625 246.25 C34.93583496 246.46172852 34.24666992 246.67345703 33.53662109 246.89160156 C13.80009382 252.71791675 -11.60193393 252.93217889 -31.375 247.25 C-32.60089844 246.9096875 -33.82679687 246.569375 -35.08984375 246.21875 C-67.11930162 236.43472572 -94.63709752 214.28254898 -110.6875 184.875 C-120.3978033 166.34136877 -124.60754995 146.61976801 -124.625 125.8125 C-124.62567474 125.09313263 -124.62634949 124.37376526 -124.62704468 123.63259888 C-124.61149018 113.21471995 -124.27678729 103.34775172 -121.375 93.25 C-121.0346875 92.02410156 -120.694375 90.79820313 -120.34375 89.53515625 C-110.56008402 57.50687132 -88.40790429 29.98596937 -59 13.9375 C-40.54892003 4.28190456 -20.71014232 0.01726455 0 0 Z M-26.375 9.25 C-27.33148438 9.4665625 -28.28796875 9.683125 -29.2734375 9.90625 C-58.93559025 17.21305596 -85.5418656 37.15135156 -101.375 63.25 C-118.20662901 92.53674124 -122.44388117 124.15762683 -114.49609375 156.8671875 C-112.25270893 164.695568 -109.00389518 171.97397399 -105.375 179.25 C-104.92382812 180.17554688 -104.47265625 181.10109375 -104.0078125 182.0546875 C-89.95777744 209.44034905 -64.49285801 229.12496665 -35.671875 238.91796875 C-31.60948523 240.20559522 -27.52021289 241.26222294 -23.375 242.25 C-22.41464844 242.49363281 -21.45429687 242.73726562 -20.46484375 242.98828125 C8.53601947 249.12227678 41.06446162 240.99009121 65.7265625 225.2734375 C72.12327034 220.75069478 77.93578671 215.62417542 83.625 210.25 C84.37523437 209.56421875 85.12546875 208.8784375 85.8984375 208.171875 C107.90546788 187.32310938 119.03662731 156.68993991 119.95947266 126.80932617 C120.44565251 94.60723294 107.71249685 65.04123784 85.64355469 41.86572266 C74.208123 30.20612873 61.53694221 21.84443949 46.625 15.25 C45.86735352 14.91419922 45.10970703 14.57839844 44.32910156 14.23242188 C22.10515039 4.84052528 -3.09269177 3.57395194 -26.375 9.25 Z " fill="#2B6EFD" transform="translate(124.375,-0.24999999999999997)"/>
<path d="M0 0 C3.88257068 3.35012819 7.53604656 6.90529878 11.17871094 10.51269531 C11.91476563 11.18816406 12.65082031 11.86363281 13.40917969 12.55957031 C33.39772283 31.23150283 45.14359358 60.8185329 46.53027344 87.79394531 C47.43673814 120.81123532 36.39756349 151.74799976 13.92871094 176.06738281 C-8.12194973 199.28697163 -38.24181569 213.00939828 -70.40698242 213.98754883 C-103.7785158 214.27549956 -134.30316231 200.95666683 -158.00878906 177.76269531 C-168.41571716 167.24160922 -175.86804591 155.66005221 -182.02539062 142.24316406 C-182.6833707 140.81256198 -183.36975705 139.39506243 -184.06347656 137.98144531 C-195.5261035 112.74589454 -194.16257237 80.97829925 -185.57128906 55.26269531 C-179.09419861 38.44602927 -170.21690459 24.63495037 -157.82128906 11.51269531 C-157.13550781 10.76246094 -156.44972656 10.01222656 -155.74316406 9.23925781 C-116.19898831 -32.50181659 -44.32137225 -36.19380694 0 0 Z M-147.82128906 9.51269531 C-148.34319824 9.99222656 -148.86510742 10.47175781 -149.40283203 10.96582031 C-170.79052614 30.84150672 -184.94202335 57.71748132 -186.10644531 87.22753906 C-186.85870007 120.65870426 -176.96107916 149.60248687 -153.78881836 173.94555664 C-133.16571409 194.99860355 -105.93889948 207.15767835 -76.44384766 207.91772461 C-43.17940354 208.23799181 -15.11277533 196.61196617 8.74121094 173.32519531 C29.77516399 152.18428478 40.21059685 123.6603236 40.49121094 94.20019531 C40.40052973 62.6547623 28.25948123 35.63575238 6.36621094 13.26269531 C-15.76144068 -8.62589998 -45.17062428 -19.05318667 -75.95825195 -18.90893555 C-102.54892884 -18.32471576 -128.16107811 -8.59167161 -147.82128906 9.51269531 Z " fill="#F8F6FB" transform="translate(197.8212890625,30.4873046875)"/>
<path d="M0 0 C0 10.56 0 21.12 0 32 C-2.66796536 29.33203464 -4.51183427 27.48065261 -6.47265625 24.46875 C-6.89740234 23.82292969 -7.32214844 23.17710938 -7.75976562 22.51171875 C-8.18966797 21.84785156 -8.61957031 21.18398437 -9.0625 20.5 C-9.92733852 19.1763987 -10.79319637 17.85346278 -11.66015625 16.53125 C-12.22682007 15.65823242 -12.22682007 15.65823242 -12.80493164 14.76757812 C-14.13947757 12.79370426 -15.55746257 10.89598067 -17 9 C-17.17521606 13.21327244 -17.30105339 17.42452672 -17.38452148 21.64038086 C-17.41936933 23.06914267 -17.46686972 24.49766161 -17.52807617 25.92553711 C-18.02754645 37.89183773 -15.34934148 45.25645764 -7.12890625 54.1953125 C3.71086257 66.56947783 0.87722708 83.5702504 0 99 C-3.07952354 96.03005179 -5.76968653 93.15399529 -8.11328125 89.57421875 C-8.63857422 88.77822266 -9.16386719 87.98222656 -9.70507812 87.16210938 C-10.23552734 86.34548828 -10.76597656 85.52886719 -11.3125 84.6875 C-12.13717773 83.43356445 -12.13717773 83.43356445 -12.97851562 82.15429688 C-14.32435457 80.10628109 -15.66464405 78.0548599 -17 76 C-19.01426332 101.27862132 -19.01426332 101.27862132 -7.625 123.1875 C-6.75875 124.115625 -5.8925 125.04375 -5 126 C-8.68315491 127.2277183 -9.62955418 126.6026666 -13.125 125.125 C-14.01445313 124.75632812 -14.90390625 124.38765625 -15.8203125 124.0078125 C-18 123 -18 123 -19 122 C-18.91298828 120.58460938 -18.91298828 120.58460938 -18.82421875 119.140625 C-18.3556459 105.80638061 -24.65624441 97.59702778 -32.50366211 87.24145508 C-34.06287284 84.90581898 -35.05077646 82.63582924 -36 80 C-36.66 80 -37.32 80 -38 80 C-38 88.91 -38 97.82 -38 107 C-48.48128022 96.51871978 -54.9300146 81.91539774 -55.09765625 66.9140625 C-55.0910979 65.48434202 -55.07930405 64.05463677 -55.0625 62.625 C-55.05798828 61.88894531 -55.05347656 61.15289062 -55.04882812 60.39453125 C-55.03715142 58.59631842 -55.01922011 56.79814803 -55 55 C-54.34 55 -53.68 55 -53 55 C-51.47509485 57.16003264 -50.06698395 59.31200305 -48.6875 61.5625 C-47.92245114 62.79413742 -47.15551872 64.02460681 -46.38671875 65.25390625 C-46.04858154 65.80377197 -45.71044434 66.3536377 -45.36206055 66.92016602 C-43.33737064 70.01181923 -41.14804191 72.99274132 -39 76 C-38.67 66.1 -38.34 56.2 -38 46 C-34.6385953 49.3614047 -32.22105406 51.85358639 -29.66796875 55.64453125 C-29.09755859 56.48564453 -28.52714844 57.32675781 -27.93945312 58.19335938 C-27.36130859 59.05767578 -26.78316406 59.92199219 -26.1875 60.8125 C-25.2912793 62.13797852 -25.2912793 62.13797852 -24.37695312 63.49023438 C-22.9130032 65.65688026 -21.45421072 67.82681067 -20 70 C-17.7963962 46.84655816 -17.7963962 46.84655816 -26.82348633 26.41796875 C-28.17420383 24.90720094 -29.58453848 23.45028474 -31 22 C-32.02189337 20.68337107 -33.03407837 19.35822427 -34 18 C-31.18930897 10.95782907 -22.60140723 6.940337 -16.0078125 3.84375 C-10.4807215 1.52108141 -6.05754482 0 0 0 Z " fill="#2C6FFD" transform="translate(115,61)"/>
<path d="M0 0 C1.77260631 0.45142775 3.5430368 0.91140523 5.3125 1.375 C6.79169922 1.75785156 6.79169922 1.75785156 8.30078125 2.1484375 C11 3 11 3 14 5 C14.01500425 7.27164371 13.93431006 9.54407487 13.8125 11.8125 C13.80468885 22.99415677 20.94705245 31.17726898 27.39013672 39.75854492 C29.05935589 42.08264277 30.52781164 44.54635274 32 47 C32.33 38.09 32.66 29.18 33 20 C40.65781924 27.65781924 44.77623827 35.72792287 48 46 C48.36351562 47.06992188 48.72703125 48.13984375 49.1015625 49.2421875 C50.17799603 53.74448775 50.22145223 57.83376094 50.125 62.4375 C50.11597656 63.26443359 50.10695312 64.09136719 50.09765625 64.94335938 C50.07431512 66.96236708 50.03845288 68.98122356 50 71 C46.41181214 69.80393738 45.92345001 68.82614803 43.86328125 65.74609375 C43.34290283 64.9770874 42.82252441 64.20808105 42.28637695 63.41577148 C41.63499756 62.43294189 40.98361816 61.4501123 40.3125 60.4375 C38.229375 57.323125 36.14625 54.20875 34 51 C33.67 60.9 33.34 70.8 33 81 C29.6385953 77.6385953 27.22105406 75.14641361 24.66796875 71.35546875 C24.09755859 70.51435547 23.52714844 69.67324219 22.93945312 68.80664062 C22.36130859 67.94232422 21.78316406 67.07800781 21.1875 66.1875 C20.2912793 64.86202148 20.2912793 64.86202148 19.37695312 63.50976562 C17.9130032 61.34311974 16.45421072 59.17318933 15 57 C13.0201669 80.42533352 13.0201669 80.42533352 22.421875 101.1015625 C23.69804687 102.53628906 23.69804687 102.53628906 25 104 C26.33661266 105.66403791 27.67121499 107.32970483 29 109 C26.31883353 115.6809394 18.76712126 119.34545182 12.5 122.25 C0.99353448 127 0.99353448 127 -5 127 C-5 117.1 -5 107.2 -5 97 C-0.50124938 99.24937531 -0.50124938 99.24937531 1.47265625 102.3359375 C2.10977539 103.31433594 2.10977539 103.31433594 2.75976562 104.3125 C3.18966797 104.993125 3.61957031 105.67375 4.0625 106.375 C4.92744288 107.71675389 5.79330366 109.0579166 6.66015625 110.3984375 C7.03793213 110.99317871 7.41570801 111.58791992 7.80493164 112.20068359 C9.12908915 114.19435894 10.54880615 116.09735269 12 118 C14.15688765 93.3887001 14.15688765 93.3887001 3.24365234 71.92871094 C2.06449809 70.56080662 0.86181627 69.21243859 -0.37426758 67.89575195 C-4.46017718 63.13120952 -5.43104101 59.49957522 -5.29296875 53.29296875 C-5.28872391 52.56757401 -5.28447906 51.84217926 -5.28010559 51.09480286 C-5.26339543 48.79198109 -5.2257596 46.49005447 -5.1875 44.1875 C-5.17244316 42.6204554 -5.1587565 41.053397 -5.14648438 39.48632812 C-5.11351731 35.65721043 -5.06178992 31.82875666 -5 28 C-1.92047646 30.96994821 0.76968653 33.84600471 3.11328125 37.42578125 C3.63857422 38.22177734 4.16386719 39.01777344 4.70507812 39.83789062 C5.50075195 41.06282227 5.50075195 41.06282227 6.3125 42.3125 C6.86228516 43.14845703 7.41207031 43.98441406 7.97851562 44.84570312 C9.32435457 46.89371891 10.66464405 48.9451401 12 51 C14.02356157 25.75825155 14.02356157 25.75825155 2.625 3.91015625 C1.75875 2.94980469 0.8925 1.98945312 0 1 C0 0.67 0 0.34 0 0 Z " fill="#2C6FFD" transform="translate(140,62)"/>
<path d="M0 0 C10.58587234 10.4482618 18.60533442 20.70739101 18.96789551 35.99671936 C18.99274505 43.34463981 18.60330795 50.67875863 18 58 C7.31466732 47.42280694 -0.54661956 37.56627696 -0.8946991 22.07647705 C-0.92184307 14.70577706 -0.55895942 7.34783575 0 0 Z " fill="#2A6DFD" transform="translate(97,102)"/>
<path d="M0 0 C10.58587234 10.4482618 18.60533442 20.70739101 18.96789551 35.99671936 C18.99274505 43.34463981 18.60330795 50.67875863 18 58 C7.41412766 47.5517382 -0.60533442 37.29260899 -0.96789551 22.00328064 C-0.99274505 14.65536019 -0.60330795 7.32124137 0 0 Z " fill="#2A6DFD" transform="translate(116,96)"/>
<path d="M0 0 C10.68533268 10.57719306 18.54661956 20.43372304 18.8946991 35.92352295 C18.92184307 43.29422294 18.55895942 50.65216425 18 58 C7.41412766 47.5517382 -0.60533442 37.29260899 -0.96789551 22.00328064 C-0.99274505 14.65536019 -0.60330795 7.32124137 0 0 Z " fill="#2A6DFD" transform="translate(135,90)"/>
<path d="M0 0 C2.69007495 2.57181003 4.90323946 5.11394905 6.9453125 8.22265625 C7.46480469 9.00833984 7.98429687 9.79402344 8.51953125 10.60351562 C9.04933594 11.41498047 9.57914063 12.22644531 10.125 13.0625 C10.66253906 13.87783203 11.20007813 14.69316406 11.75390625 15.53320312 C12.74968556 17.04425477 13.74355794 18.55656614 14.73486328 20.07055664 C15.81558484 21.71875087 16.90673344 23.36010015 18 25 C18.1712914 27.54229597 18.23242934 29.97189481 18.1953125 32.51171875 C18.1924826 33.23994339 18.18965271 33.96816803 18.18673706 34.71846008 C18.17555257 37.04164137 18.15045166 39.36443547 18.125 41.6875 C18.11496794 43.2636663 18.10584248 44.83983865 18.09765625 46.41601562 C18.07561896 50.27749267 18.04110141 54.13868071 18 58 C14.5114773 54.58223914 11.66486154 51.2868737 9 47.1875 C8.360625 46.21167969 7.72125 45.23585937 7.0625 44.23046875 C6.381875 43.16441406 5.70125 42.09835938 5 41 C4.55374268 40.48131348 4.10748535 39.96262695 3.64770508 39.42822266 C-1.72047918 32.60221262 -0.54383826 24.21469051 -0.3125 16 C-0.28738325 14.44665051 -0.26457603 12.89326187 -0.24414062 11.33984375 C-0.18941589 7.55891854 -0.10333666 3.77989621 0 0 Z " fill="#FCFCFE" transform="translate(116,62)"/>
<path d="M0 0 C3.4885227 3.41776086 6.33513846 6.7131263 9 10.8125 C9.639375 11.78832031 10.27875 12.76414063 10.9375 13.76953125 C11.618125 14.83558594 12.29875 15.90164062 13 17 C13.44625732 17.51868652 13.89251465 18.03737305 14.35229492 18.57177734 C19.72047918 25.39778738 18.54383826 33.78530949 18.3125 42 C18.28738325 43.55334949 18.26457603 45.10673813 18.24414062 46.66015625 C18.18941589 50.44108146 18.10333666 54.22010379 18 58 C15.29573071 54.63459343 12.66632451 51.2404939 10.125 47.75 C9.48820312 46.87859375 8.85140625 46.0071875 8.1953125 45.109375 C7.47085938 44.08328125 6.74640625 43.0571875 6 42 C5.47809082 41.41742432 4.95618164 40.83484863 4.41845703 40.23461914 C-1.55461701 32.90723659 -0.67835474 24.86357022 -0.375 15.9375 C-0.34485114 14.38872394 -0.31748403 12.8398911 -0.29296875 11.29101562 C-0.22738421 7.52592271 -0.12414813 3.76359839 0 0 Z " fill="#FCFDFE" transform="translate(116,130)"/>
<path d="M0 0 C11.41481587 11.36739094 18.84199182 20.54302815 18.90307617 37.12792969 C18.80951251 43.76535208 18.50060801 50.38071794 18 57 C6.58518413 45.63260906 -0.84199182 36.45697185 -0.90307617 19.87207031 C-0.80951251 13.23464792 -0.50060801 6.61928206 0 0 Z " fill="#FCFDFE" transform="translate(135,124)"/>
<path d="M0 0 C11.41481587 11.36739094 18.84199182 20.54302815 18.90307617 37.12792969 C18.80951251 43.76535208 18.50060801 50.38071794 18 57 C14.94430062 54.05001515 12.25550554 51.19416085 9.921875 47.64453125 C9.40109375 46.85755859 8.8803125 46.07058594 8.34375 45.25976562 C7.8178125 44.45216797 7.291875 43.64457031 6.75 42.8125 C6.20859375 41.99330078 5.6671875 41.17410156 5.109375 40.33007812 C1.42198206 34.7298501 -0.14837359 31.58141457 -0.09765625 24.8046875 C-0.0962413 24.09724396 -0.09482635 23.38980042 -0.09336853 22.66091919 C-0.087766 20.39890331 -0.07521318 18.13698602 -0.0625 15.875 C-0.05748532 14.34244935 -0.05292236 12.80989714 -0.04882812 11.27734375 C-0.03779577 7.51819112 -0.02052952 3.75911228 0 0 Z " fill="#FCFDFE" transform="translate(97,69)"/>
<path d="M0 0 C1.59633763 2.44145755 2.00891812 3.80380128 1.875 6.75 C0.77901745 10.82079233 -0.98758135 14.31212582 -3 18 C-2.10796875 18.08636719 -1.2159375 18.17273438 -0.296875 18.26171875 C0.87359375 18.40222656 2.0440625 18.54273438 3.25 18.6875 C4.99023438 18.87892578 4.99023438 18.87892578 6.765625 19.07421875 C10.70654849 20.20223671 11.9581066 21.4898379 14 25 C12.82011254 28.53966237 12.23447342 28.71699132 9.0703125 30.41015625 C8.27496094 30.84263672 7.47960938 31.27511719 6.66015625 31.72070312 C5.40525391 32.38489258 5.40525391 32.38489258 4.125 33.0625 C2.48126316 33.94827731 0.83801408 34.83496049 -0.8046875 35.72265625 C-1.53671387 36.11203369 -2.26874023 36.50141113 -3.02294922 36.90258789 C-4.73144925 37.85093411 -6.37412754 38.91608503 -8 40 C-8.99 40 -9.98 40 -11 40 C-11.66 38.02 -12.32 36.04 -13 34 C-12.37351562 33.59007812 -11.74703125 33.18015625 -11.1015625 32.7578125 C-10.28429688 32.21898437 -9.46703125 31.68015625 -8.625 31.125 C-7.81289063 30.59132812 -7.00078125 30.05765625 -6.1640625 29.5078125 C-3.92405904 28.04134945 -3.92405904 28.04134945 -2 26 C-5.63 25.34 -9.26 24.68 -13 24 C-12.07988583 19.39942914 -10.89559434 16.20327441 -9 12 C-9.75925781 12.433125 -10.51851562 12.86625 -11.30078125 13.3125 C-12.29464844 13.869375 -13.28851563 14.42625 -14.3125 15 C-15.79169922 15.8353125 -15.79169922 15.8353125 -17.30078125 16.6875 C-20 18 -20 18 -23 18 C-24.4606285 15.35261084 -25 14.10551666 -25 11 C-21.40073658 9.15692045 -17.79482969 7.32723483 -14.1875 5.5 C-12.65125977 4.71302734 -12.65125977 4.71302734 -11.08398438 3.91015625 C-10.10107422 3.41386719 -9.11816406 2.91757813 -8.10546875 2.40625 C-7.19949951 1.94541016 -6.29353027 1.48457031 -5.36010742 1.00976562 C-3 0 -3 0 0 0 Z " fill="#FEF7F9" transform="translate(50,149)"/>
<path d="M0 0 C2.4375 2.125 2.4375 2.125 4 5 C3.75 8.3125 3.75 8.3125 3 11 C3.804375 11.474375 4.60875 11.94875 5.4375 12.4375 C8 14 8 14 9 15 C9.56381487 20.73211781 9.56381487 20.73211781 9 23 C4 27 4 27 -8 32 C-11.96 24.08 -15.92 16.16 -20 8 C-17.15414541 5.15414541 -15.26917041 3.96214903 -11.6875 2.3125 C-10.30111328 1.65701172 -10.30111328 1.65701172 -8.88671875 0.98828125 C-5.69647169 -0.10391429 -3.34875958 -0.33206973 0 0 Z " fill="#FEF5F7" transform="translate(91,27)"/>
<path d="M0 0 C5.38316222 0.91858375 9.8456398 3.05149502 14.75 5.375 C15.62527344 5.77460938 16.50054687 6.17421875 17.40234375 6.5859375 C18.23378906 6.9778125 19.06523437 7.3696875 19.921875 7.7734375 C20.68081055 8.12841309 21.43974609 8.48338867 22.22167969 8.84912109 C24 10 24 10 25 13 C24.625 15.5625 24.625 15.5625 23 18 C16.78754208 20.711897 9.62895568 20.22303028 3 20 C3 20.66 3 21.32 3 22 C3.55171875 22.11214844 4.1034375 22.22429687 4.671875 22.33984375 C7.40065211 23.11360773 9.72772943 24.26817694 12.25 25.5625 C13.58804688 26.24505859 13.58804688 26.24505859 14.953125 26.94140625 C15.62859375 27.29074219 16.3040625 27.64007813 17 28 C15.125 32.75 15.125 32.75 14 35 C10.55688942 33.68706289 7.35788604 32.1856658 4.13671875 30.3984375 C3.25048828 29.90859375 2.36425781 29.41875 1.45117188 28.9140625 C0.53916016 28.40617187 -0.37285156 27.89828125 -1.3125 27.375 C-2.24384766 26.859375 -3.17519531 26.34375 -4.13476562 25.8125 C-6.42463469 24.54426483 -8.71297715 23.27335838 -11 22 C-10.20476339 19.19232788 -9.67335093 17.32301275 -8 15 C-5.19272013 13.69053161 -2.3728961 13.39138588 0.6875 13.0625 C1.48478516 12.95099609 2.28207031 12.83949219 3.10351562 12.72460938 C5.06527781 12.45442656 7.03235609 12.22335417 9 12 C7.93458984 11.52820313 7.93458984 11.52820313 6.84765625 11.046875 C5.92855469 10.61890625 5.00945312 10.1909375 4.0625 9.75 C3.14597656 9.33234375 2.22945312 8.9146875 1.28515625 8.484375 C-1 7 -1 7 -1.94140625 5.015625 C-2 3 -2 3 0 0 Z " fill="#FEF5F7" transform="translate(200,149)"/>
<path d="M0 0 C1.3125 1.8125 1.3125 1.8125 2 4 C1.50408379 6.90533783 0.54394728 9.00357315 -1.06640625 11.453125 C-1.46923828 12.071875 -1.87207031 12.690625 -2.28710938 13.328125 C-2.70798828 13.96234375 -3.12886719 14.5965625 -3.5625 15.25 C-3.98724609 15.8996875 -4.41199219 16.549375 -4.84960938 17.21875 C-5.8947306 18.81578918 -6.94669837 20.4083442 -8 22 C-7.41992188 21.73445313 -6.83984375 21.46890625 -6.2421875 21.1953125 C-1.88313255 19.22438666 2.41910068 17.40950748 7 16 C7.66 18.31 8.32 20.62 9 23 C0.55370989 27.12656586 -8.06171735 30.16532197 -17 33 C-18.83915049 29.21351371 -19.38448063 27.01807045 -18 23 C-16.15234375 20.10546875 -16.15234375 20.10546875 -13.9375 17.1875 C-13.20402344 16.21167969 -12.47054687 15.23585938 -11.71484375 14.23046875 C-10.86599609 13.12638672 -10.86599609 13.12638672 -10 12 C-13.19398323 12 -14.26859824 12.51014449 -17 14 C-19.73140176 15.48985551 -20.80601677 16 -24 16 C-25.4606285 13.35261084 -26 12.10551666 -26 9 C-22.42542861 7.29346785 -18.83912773 5.61317401 -15.25 3.9375 C-14.23421875 3.45216797 -13.2184375 2.96683594 -12.171875 2.46679688 C-11.1921875 2.01240234 -10.2125 1.55800781 -9.203125 1.08984375 C-8.30239258 0.66566162 -7.40166016 0.24147949 -6.47363281 -0.19555664 C-3.7688426 -1.07517407 -2.59506713 -1.09882845 0 0 Z " fill="#FEF5F7" transform="translate(218,74)"/>
<path d="M0 0 C2.76276177 0.52268466 5.3260876 1.10869587 8 2 C9.04119351 4.70123724 9.90328845 7.28814435 10.6875 10.0625 C10.91244141 10.82111328 11.13738281 11.57972656 11.36914062 12.36132812 C11.9237805 14.23766304 12.46332298 16.11844855 13 18 C14.32 14.04 15.64 10.08 17 6 C19.31 6.33 21.62 6.66 24 7 C22.60213923 15.84698726 20.39537771 24.38361708 18 33 C15.69 33 13.38 33 11 33 C8.04405423 26.78801244 5.86553042 20.622633 4 14 C2.35 18.62 0.7 23.24 -1 28 C-2.98 27.67 -4.96 27.34 -7 27 C-8.32856028 23.3417547 -7.64879015 21.18126502 -6.34765625 17.578125 C-5.98349609 16.55332031 -5.61933594 15.52851563 -5.24414062 14.47265625 C-4.85419922 13.40917969 -4.46425781 12.34570312 -4.0625 11.25 C-3.67642578 10.17105469 -3.29035156 9.09210938 -2.89257812 7.98046875 C-1.9378746 5.31672804 -0.97339357 2.65695582 0 0 Z " fill="#FEF4F7" transform="translate(90,196)"/>
<path d="M0 0 C4.12878278 2.06439139 5.83209899 3.75996154 8.75 7.25 C9.54921875 8.18328125 10.3484375 9.1165625 11.171875 10.078125 C13.27003083 13.43158774 13.52770396 15.1176066 13 19 C11.20006226 21.69990662 9.916227 23.5418865 7 25 C5.00039988 25.039992 2.99952758 25.04346799 1 25 C0.80664062 25.62648438 0.61328125 26.25296875 0.4140625 26.8984375 C0.15367187 27.71570313 -0.10671875 28.53296875 -0.375 29.375 C-0.63023437 30.18710938 -0.88546875 30.99921875 -1.1484375 31.8359375 C-2 34 -2 34 -4 36 C-6.0625 33.875 -6.0625 33.875 -8 31 C-7.8125 28 -7.8125 28 -7 25 C-6.814375 24.05125 -6.62875 23.1025 -6.4375 22.125 C-6.293125 21.42375 -6.14875 20.7225 -6 20 C-8.46800047 21.15173355 -10.04783565 22.04783565 -12 24 C-13.9375 23.875 -13.9375 23.875 -16 23 C-16.99 21.68 -17.98 20.36 -19 19 C-12.73 12.73 -6.46 6.46 0 0 Z " fill="#FEF2F5" transform="translate(193,45)"/>
<path d="M0 0 C3.79581506 1.26527169 3.9745767 2.30707268 5.734375 5.8046875 C6.22550781 6.78050781 6.71664062 7.75632813 7.22265625 8.76171875 C7.72667969 9.78910156 8.23070312 10.81648437 8.75 11.875 C9.26949219 12.89464844 9.78898437 13.91429687 10.32421875 14.96484375 C11.05318359 16.43244141 11.05318359 16.43244141 11.796875 17.9296875 C12.46734863 19.27909424 12.46734863 19.27909424 13.15136719 20.65576172 C14 23 14 23 13 26 C9.9375 27.1875 9.9375 27.1875 7 28 C5.35 25.03 3.7 22.06 2 19 C1.05125 19.495 0.1025 19.99 -0.875 20.5 C-4 22 -4 22 -6 22 C-5.71125 22.62648437 -5.4225 23.25296875 -5.125 23.8984375 C-4.75375 24.71570313 -4.3825 25.53296875 -4 26.375 C-3.62875 27.18710938 -3.2575 27.99921875 -2.875 28.8359375 C-2 31 -2 31 -2 33 C-4.31 33.66 -6.62 34.32 -9 35 C-19 13.73333333 -19 13.73333333 -19 9 C-16.35261084 7.5393715 -15.10551666 7 -12 7 C-11.01 9.97 -10.02 12.94 -9 16 C-7.576875 15.2575 -7.576875 15.2575 -6.125 14.5 C-3 13 -3 13 -1 13 C-1.515625 11.9275 -2.03125 10.855 -2.5625 9.75 C-3.54789166 7.43829918 -4.01222797 6.22621753 -3.875 3.6875 C-3 2 -3 2 0 0 Z " fill="#FEF4F6" transform="translate(166,191)"/>
<path d="M0 0 C1.23556641 0.01740234 1.23556641 0.01740234 2.49609375 0.03515625 C3.32238281 0.04417969 4.14867188 0.05320312 5 0.0625 C5.63808594 0.07410156 6.27617188 0.08570312 6.93359375 0.09765625 C8.77614891 4.03090564 10.60604094 7.96991647 12.43359375 11.91015625 C12.95824219 13.02970703 13.48289062 14.14925781 14.0234375 15.30273438 C14.76787109 16.91245117 14.76787109 16.91245117 15.52734375 18.5546875 C15.98818359 19.5444458 16.44902344 20.5342041 16.92382812 21.55395508 C17.93359375 24.09765625 17.93359375 24.09765625 17.93359375 27.09765625 C15.62359375 27.09765625 13.31359375 27.09765625 10.93359375 27.09765625 C10.27359375 25.44765625 9.61359375 23.79765625 8.93359375 22.09765625 C5.63359375 22.75765625 2.33359375 23.41765625 -1.06640625 24.09765625 C-1.39640625 25.41765625 -1.72640625 26.73765625 -2.06640625 28.09765625 C-4.7751996 29.45205293 -7.07573893 29.16267076 -10.06640625 29.09765625 C-9.81246094 28.081875 -9.55851562 27.06609375 -9.296875 26.01953125 C-9.1316333 25.35832275 -8.9663916 24.69711426 -8.79614258 24.01586914 C-8.43315762 22.56441963 -8.06970981 21.11308579 -7.70581055 19.66186523 C-6.84914949 16.24315655 -5.9997758 12.82331261 -5.16796875 9.3984375 C-4.77738281 7.79548828 -4.77738281 7.79548828 -4.37890625 6.16015625 C-4.14816406 5.20238281 -3.91742188 4.24460937 -3.6796875 3.2578125 C-2.79223886 0.13195836 -2.79223886 0.13195836 0 0 Z " fill="#FEF6F8" transform="translate(114.06640625,19.90234375)"/>
<path d="M0 0 C3.47899158 1.39159663 4.48052501 2.63251488 6 6 C5.37351562 6.68707031 4.74703125 7.37414062 4.1015625 8.08203125 C3.28429687 8.98308594 2.46703125 9.88414062 1.625 10.8125 C0.81289062 11.70582031 0.00078125 12.59914062 -0.8359375 13.51953125 C-3.09072907 15.99632674 -3.09072907 15.99632674 -5 19 C-4.6878236 21.64632287 -4.6878236 21.64632287 -4 24 C-2.35 24.33 -0.7 24.66 1 25 C5.23841458 20.15609762 9.19695186 15.19210472 13 10 C14.98 11.32 16.96 12.64 19 14 C15.3217451 21.04998855 10.69077011 28.53948659 4 33 C0.43210768 33.55966938 -1.98356898 33.58160403 -5.1640625 31.76171875 C-9.58638481 28.52136258 -12.58213076 26.12733432 -13.6875 20.5 C-13.57924858 13.9928869 -8.10420437 9.545882 -4 5 C-2.65554291 3.34229355 -1.31852916 1.67840294 0 0 Z " fill="#FEF5F7" transform="translate(67,179)"/>
<path d="M0 0 C3.47089251 1.71029486 4.94133785 3.00426112 6.51171875 6.5546875 C6.69734375 7.4621875 6.88296875 8.3696875 7.07421875 9.3046875 C4.43421875 9.3046875 1.79421875 9.3046875 -0.92578125 9.3046875 C-1.25578125 8.3146875 -1.58578125 7.3246875 -1.92578125 6.3046875 C-6.2580784 7.1651014 -6.2580784 7.1651014 -9.92578125 9.3046875 C-10.34031838 15.619686 -10.34031838 15.619686 -7.92578125 21.3046875 C-5.94578125 21.3046875 -3.96578125 21.3046875 -1.92578125 21.3046875 C-1.26578125 19.9846875 -0.60578125 18.6646875 0.07421875 17.3046875 C2.71421875 17.3046875 5.35421875 17.3046875 8.07421875 17.3046875 C7.57177035 21.70111098 6.10125934 24.0995857 3.07421875 27.3046875 C-2.37190759 29.12006295 -8.53908433 29.19969885 -13.92578125 27.1796875 C-17.95828591 23.39921438 -19.11367471 19.71450709 -19.30078125 14.3046875 C-19.13695594 9.94038122 -18.5790824 6.89948261 -15.92578125 3.3046875 C-11.15028171 -0.64404597 -6.0541391 -2.18587578 0 0 Z " fill="#FEF3F5" transform="translate(136.92578125,202.6953125)"/>
<path d="M0 0 C0 4 0 4 -2 7 C-5.625 8.1875 -5.625 8.1875 -9 9 C-9.50265692 11.78839304 -9.50265692 11.78839304 -9 15 C-6.20726173 17.98758047 -4.34268404 19.78639118 -0.25 20.4375 C2.19260663 20.18015448 2.19260663 20.18015448 4 18 C3.96777545 15.9698531 3.93370796 13.9395932 3.87109375 11.91015625 C4 10 4 10 5.5 8 C5.995 7.67 6.49 7.34 7 7 C10 8 10 8 12 11 C12.34491014 15.64302116 11.61971804 19.76317739 8.6875 23.4375 C4.93915707 27.01150139 3.41642796 27.83475007 -1.75 28.4375 C-6.75472278 28.28810529 -10.28046941 26.25151018 -14 23 C-16.89445429 19.73283516 -18.33765753 16.39775773 -18.125 12 C-17.24322985 7.32752724 -14.53694626 4.06480121 -11 1 C-7.09086065 -1.42475443 -4.47073588 -0.8597569 0 0 Z " fill="#FEF3F5" transform="translate(56,54)"/>
<path d="M0 0 C4.04301175 1.48518799 7.61146256 3.42877998 11.3125 5.625 C12.38113281 6.25664063 13.44976562 6.88828125 14.55078125 7.5390625 C15.76314453 8.26222656 15.76314453 8.26222656 17 9 C16.34 10.65 15.68 12.3 15 14 C10.76570244 12.68938409 6.92592596 11.05643741 3 9 C3 10.32 3 11.64 3 13 C4.74477633 14.57518451 4.74477633 14.57518451 7 15.75 C7.7425 16.17796875 8.485 16.6059375 9.25 17.046875 C9.8275 17.36140625 10.405 17.6759375 11 18 C10.01 20.475 10.01 20.475 9 23 C4.94718288 21.77472971 1.55639236 20.30119506 -2 18 C-2 19.65 -2 21.3 -2 23 C0.97 24.65 3.94 26.3 7 28 C6.01 30.475 6.01 30.475 5 33 C0.57676318 32.41734728 -2.5155864 30.73233789 -6.3125 28.4375 C-7.91544922 27.47650391 -7.91544922 27.47650391 -9.55078125 26.49609375 C-10.35902344 26.00238281 -11.16726562 25.50867188 -12 25 C-11.41641771 21.40811445 -10.4605568 18.59656571 -8.75 15.390625 C-8.3065625 14.55402344 -7.863125 13.71742187 -7.40625 12.85546875 C-6.9421875 11.99566406 -6.478125 11.13585937 -6 10.25 C-5.5359375 9.37472656 -5.071875 8.49945313 -4.59375 7.59765625 C-1.16071429 1.16071429 -1.16071429 1.16071429 0 0 Z " fill="#FEF3F6" transform="translate(167,28)"/>
<path d="M0 0 C1.32 0.99 2.64 1.98 4 3 C2.55746343 6.36591866 0.66735273 8.51047079 -2 11 C-1.67 11.99 -1.34 12.98 -1 14 C2.36591866 12.55746343 4.51047079 10.66735273 7 8 C8.32 8.66 9.64 9.32 11 10 C10.52797514 14.24822374 8.03344482 16.19989709 5 19 C5.33 19.99 5.66 20.98 6 22 C10.04420651 20.22054913 13.46078487 17.60470327 17 15 C17.99 15.99 18.98 16.98 20 18 C18.38989473 22.07376031 15.46177729 24.76507069 12.375 27.75 C11.859375 28.25660156 11.34375 28.76320312 10.8125 29.28515625 C9.54616661 30.52803902 8.2736856 31.76465276 7 33 C3.8376284 31.62803835 2.0063782 30.1434878 -0.1875 27.5 C-3.0503729 24.11434161 -5.96502513 20.79028665 -8.9375 17.5 C-9.70964844 16.6440625 -10.48179687 15.788125 -11.27734375 14.90625 C-11.84582031 14.2771875 -12.41429687 13.648125 -13 13 C-9.13242719 8.04467233 -4.81123996 4.03523352 0 0 Z " fill="#FEF5F7" transform="translate(185,175)"/>
<path d="M0 0 C1.65 0.33 3.3 0.66 5 1 C6.25955231 4.77865693 5.48087189 6.03411786 4.0625 9.6875 C3.68222656 10.68136719 3.30195312 11.67523438 2.91015625 12.69921875 C2.60980469 13.45847656 2.30945312 14.21773437 2 15 C4.43543541 14.85559248 4.43543541 14.85559248 7 14 C8.46172477 11.94773448 8.46172477 11.94773448 9.3125 9.4375 C9.63863281 8.61121094 9.96476562 7.78492187 10.30078125 6.93359375 C10.53152344 6.29550781 10.76226562 5.65742187 11 5 C13.475 5.495 13.475 5.495 16 6 C15.34 9.96 14.68 13.92 14 18 C16.64 18.99 19.28 19.98 22 21 C21.67 23.31 21.34 25.62 21 28 C14.63569826 26.68764148 8.57878972 24.98780585 2.4375 22.875 C1.61958984 22.59785156 0.80167969 22.32070312 -0.04101562 22.03515625 C-2.02876568 21.36094863 -4.01459349 20.68107796 -6 20 C-4.93289875 14.83612041 -3.75176931 9.87965919 -1.875 4.9375 C-1.34519531 3.52791016 -1.34519531 3.52791016 -0.8046875 2.08984375 C-0.53914063 1.40019531 -0.27359375 0.71054688 0 0 Z " fill="#FEF2F5" transform="translate(29,79)"/>
<path d="M0 0 C2.31 0 4.62 0 7 0 C8.96189209 3.6678852 10.39301257 6.87248551 11 11 C11.763125 10.236875 12.52625 9.47375 13.3125 8.6875 C14.199375 7.800625 15.08625 6.91375 16 6 C16.6496875 5.0409375 16.6496875 5.0409375 17.3125 4.0625 C19 3 19 3 20.9609375 3.265625 C22.99487867 3.7651895 25.00036154 4.37716179 27 5 C24.02441005 9.19634481 21.09637123 13.00237601 17.25 16.4375 C13.81394271 19.70024739 13.01955471 22.53621652 12.484375 27.1796875 C12.32453125 27.78039062 12.1646875 28.38109375 12 29 C8.71023192 30.09658936 7.28696233 29.79953138 4 29 C4.13019531 28.3915625 4.26039063 27.783125 4.39453125 27.15625 C5.67401542 19.02494872 3.78425634 12.89054842 1.12890625 5.30859375 C0 2 0 2 0 0 Z " fill="#FEF3F6" transform="translate(134,20)"/>
<path d="M0 0 C4.4995905 2.24979525 4.4995905 2.24979525 6.4375 5.265625 C6.85773438 5.90886719 7.27796875 6.55210937 7.7109375 7.21484375 C8.13632813 7.88644531 8.56171875 8.55804688 9 9.25 C9.42539063 9.90613281 9.85078125 10.56226563 10.2890625 11.23828125 C11.1297178 12.53536596 11.96576072 13.83545312 12.796875 15.13867188 C13.93714301 16.90275534 15.1194754 18.63074956 16.3125 20.359375 C18 23 18 23 18 25 C15.56427941 25.83887056 13.12666783 26.67126529 10.6875 27.5 C9.99720703 27.73847656 9.30691406 27.97695312 8.59570312 28.22265625 C5.61068511 29.23208263 3.17341086 30 0 30 C0 20.1 0 10.2 0 0 Z " fill="#2A6DFD" transform="translate(135,159)"/>
<path d="M0 0 C3.32302309 3.32302309 5.77395748 5.83867575 8.33203125 9.57421875 C8.90244141 10.40630859 9.47285156 11.23839844 10.06054688 12.09570312 C10.63869141 12.95099609 11.21683594 13.80628906 11.8125 14.6875 C12.7087207 15.9878418 12.7087207 15.9878418 13.62304688 17.31445312 C18 23.74232143 18 23.74232143 18 26 C12.06 26 6.12 26 0 26 C0 17.42 0 8.84 0 0 Z " fill="#2E70FD" transform="translate(116,164)"/>
<path d="M0 0 C0 10.56 0 21.12 0 32 C-3.31150589 28.68849411 -5.54935763 25.87382253 -8.0625 22 C-10.28592314 18.58591457 -12.51042193 15.22636908 -15 12 C-13.50819618 8.16030039 -11.37986478 6.57720591 -8 4.3125 C-7.113125 3.71050781 -6.22625 3.10851562 -5.3125 2.48828125 C-1.44619423 0 -1.44619423 0 0 0 Z " fill="#2C6EFD" transform="translate(96,67)"/>
<path d="M0 0 C2.0524094 3.07861409 2.24417966 3.59085923 2.15975952 7.036026 C2.14516693 7.85555252 2.13057434 8.67507904 2.11553955 9.5194397 C2.08949646 10.41544891 2.06345337 11.31145813 2.03662109 12.23461914 C1.99725844 14.1980014 1.95798665 16.16138548 1.91879272 18.12477112 C1.89433453 19.1681772 1.86987633 20.21158329 1.84467697 21.28660774 C1.72301587 26.83440278 1.6618961 32.38301982 1.58984375 37.93164062 C1.49442238 44.98289444 1.38188708 52.03255841 1.20458984 59.08227539 C1.06275276 64.78520751 0.98183126 70.48632217 0.93935013 76.19082451 C0.91242561 78.35059174 0.86400666 80.51021572 0.79236984 82.66896248 C0.27259621 98.79539317 3.50321444 108.61603286 14 121 C10.31684509 122.2277183 9.37044582 121.6026666 5.875 120.125 C4.98554687 119.75632812 4.09609375 119.38765625 3.1796875 119.0078125 C1 118 1 118 0 117 C-4.60851873 78.82325838 -0.64054327 38.41560426 0 0 Z " fill="#6293FD" transform="translate(96,66)"/>
<path d="M0 0 C1.77260631 0.45142775 3.5430368 0.91140523 5.3125 1.375 C6.79169922 1.75785156 6.79169922 1.75785156 8.30078125 2.1484375 C11 3 11 3 14 5 C14.50732422 7.77148438 14.50732422 7.77148438 14.6796875 11.59375 C14.71270966 12.32444702 14.74573181 13.05514404 14.77975464 13.8079834 C15.27228531 26.62813111 15.14681745 39.47468772 15.12695312 52.3024292 C15.12438624 55.19057391 15.12918148 58.07868682 15.13382339 60.96682739 C15.16128945 81.32861999 14.73638176 101.65154256 14 122 C11.9475906 118.92138591 11.75582034 118.40914077 11.84024048 114.963974 C11.85483307 114.14444748 11.86942566 113.32492096 11.88446045 112.4805603 C11.91050354 111.58455109 11.93654663 110.68854187 11.96337891 109.76538086 C12.00274156 107.8019986 12.04201335 105.83861452 12.08120728 103.87522888 C12.10566547 102.8318228 12.13012367 101.78841671 12.15532303 100.71339226 C12.27698413 95.16559722 12.3381039 89.61698018 12.41015625 84.06835938 C12.50557762 77.01710556 12.61811292 69.96744159 12.79541016 62.91772461 C12.93724724 57.21479249 13.01816874 51.51367783 13.06064987 45.80917549 C13.08757439 43.64940826 13.13599334 41.48978428 13.20763016 39.33103752 C13.70538411 23.88778666 11.02673236 14.40895951 1.08408165 2.39251041 C0 1 0 1 0 0 Z " fill="#6093FD" transform="translate(140,62)"/>
<path d="M0 0 C0.66 0.33 1.32 0.66 2 1 C1.53211063 5.92363582 0.24618633 8.49635897 -2.9375 12.25 C-3.64777344 13.10078125 -4.35804687 13.9515625 -5.08984375 14.828125 C-6.34856229 16.259306 -7.65228871 17.65228871 -9 19 C-12.29714793 18.67028521 -13.6226839 18.3773161 -16 16 C-15.79856704 11.32675537 -13.50259643 8.73107418 -10.5625 5.25 C-9.75941406 4.28578125 -8.95632812 3.3215625 -8.12890625 2.328125 C-5.14525163 -0.934734 -4.09742533 -1.28044541 0 0 Z " fill="#ED093F" transform="translate(77,186)"/>
<path d="M0 0 C7.88888889 7.88888889 7.88888889 7.88888889 8.125 12.375 C6.41293872 16.36980965 3.85322551 19.73338102 1 23 C0.67 23 0.34 23 0 23 C0 15.41 0 7.82 0 0 Z " fill="#2D70FD" transform="translate(173,145)"/>
<path d="M0 0 C0.33 0 0.66 0 1 0 C1 7.59 1 15.18 1 23 C-6.88888889 15.11111111 -6.88888889 15.11111111 -7.125 10.625 C-5.41293872 6.63019035 -2.85322551 3.26661898 0 0 Z " fill="#2D70FD" transform="translate(76,82)"/>
<path d="M0 0 C1.9375 0.6875 1.9375 0.6875 4 2 C4.75 4.625 4.75 4.625 5 7 C2.6875 7.6875 2.6875 7.6875 0 8 C-1.8125 6.5625 -1.8125 6.5625 -3 5 C-1.125 1.125 -1.125 1.125 0 0 Z " fill="#ED093F" transform="translate(194,55)"/>
<path d="M0 0 C0.33 1.32 0.66 2.64 1 4 C-2 6 -2 6 -4.1875 5.625 C-4.785625 5.41875 -5.38375 5.2125 -6 5 C-6.33 3.68 -6.66 2.36 -7 1 C-4.53721199 -0.231394 -2.7204945 -0.07159196 0 0 Z " fill="#ED0D42" transform="translate(92,44)"/>
<path d="M0 0 C-0.33 1.65 -0.66 3.3 -1 5 C-2.65 5.33 -4.3 5.66 -6 6 C-6.66 4.68 -7.32 3.36 -8 2 C-4.77208445 -0.1519437 -3.71599191 -0.20086443 0 0 Z " fill="#EE1045" transform="translate(88,34)"/>
<path d="M0 0 C2.50298434 2.93828597 3.46930939 5.17902761 4 9 C2.35 9 0.7 9 -1 9 C-0.67 6.03 -0.34 3.06 0 0 Z " fill="#EE1649" transform="translate(116,28)"/>
<path d="M0 0 C0.99 0.66 1.98 1.32 3 2 C3 2.66 3 3.32 3 4 C1 5.625 1 5.625 -1 7 C-1.66 6.67 -2.32 6.34 -3 6 C-2.01 4.02 -1.02 2.04 0 0 Z " fill="#FCE1E8" transform="translate(75,185)"/>
</svg>
