<?xml version="1.0" encoding="UTF-8"?>
<svg version="1.1" xmlns="http://www.w3.org/2000/svg" width="250" height="250">
<path d="M0 0 C24.38192175 21.37376258 39.79601856 52.04135492 42.0078125 84.51171875 C43.68605858 119.30535626 33.2150032 152.61847175 9.6953125 178.57421875 C-9.91854107 199.61410533 -35.27756747 214.2318967 -63.9921875 218.51171875 C-64.70503906 218.62257812 -65.41789063 218.7334375 -66.15234375 218.84765625 C-99.5235628 223.08345421 -132.75480211 214.38043886 -159.58203125 194.19921875 C-186.30148075 173.4521726 -203.18421824 144.07693363 -207.9921875 110.51171875 C-209.98994695 73.2514383 -202.80716551 39.92727983 -177.5546875 11.38671875 C-176.04122276 9.75485371 -174.52053225 8.12965612 -172.9921875 6.51171875 C-172.30640625 5.76148438 -171.620625 5.01125 -170.9140625 4.23828125 C-155.87770049 -11.6334342 -135.84906275 -21.70808488 -114.9921875 -27.48828125 C-113.80367188 -27.82859375 -112.61515625 -28.16890625 -111.390625 -28.51953125 C-71.51313338 -37.90247046 -30.85118349 -25.65561864 0 0 Z " fill="#041787" transform="translate(207.9921875,30.48828125)"/>
<path d="M0 0 C1.59775269 0.00737183 1.59775269 0.00737183 3.2277832 0.01489258 C10.60408701 0.12510476 17.22280939 0.74439874 24.1875 3.3125 C25.24710937 3.67601562 26.30671875 4.03953125 27.3984375 4.4140625 C39.6064623 8.82488731 49.46559891 14.71998774 59.1875 23.3125 C59.81269531 23.84230469 60.43789062 24.37210938 61.08203125 24.91796875 C74.83500554 37.44702495 83.92377568 57.35501149 85.47338867 75.69628906 C85.58687396 79.09444734 85.59756884 82.47527087 85.5625 85.875 C85.57410156 87.00357422 85.58570313 88.13214844 85.59765625 89.29492188 C85.51832228 112.28854985 75.13647455 132.34083843 59.1875 148.3125 C58.45660156 149.055 57.72570312 149.7975 56.97265625 150.5625 C39.26370788 167.44700943 16.61401767 171.85992536 -7.01171875 171.58203125 C-27.04083014 171.0243698 -43.83568545 162.10740239 -58.8125 149.3125 C-59.48667969 148.74015625 -60.16085938 148.1678125 -60.85546875 147.578125 C-74.45186397 135.00845985 -84.68768902 114.20569125 -85.98950195 95.81152344 C-86.56828618 70.87998922 -82.3556912 51.31265446 -66.8125 31.3125 C-66.39097656 30.72726563 -65.96945313 30.14203125 -65.53515625 29.5390625 C-55.06044118 15.97605758 -37.35421696 6.08019216 -20.8125 2.3125 C-19.88667114 2.06415405 -19.88667114 2.06415405 -18.94213867 1.81079102 C-12.60497092 0.2121045 -6.51734641 -0.03545108 0 0 Z " fill="#FDFDFD" transform="translate(124.8125,38.6875)"/>
<path d="M0 0 C1.0209375 1.1446875 1.0209375 1.1446875 2.0625 2.3125 C6.18943533 6.08820679 10.33815697 7.5493307 15.6875 9 C18.83313746 9.9496264 20.73192287 10.64119979 23 13 C23 14.32 23 15.64 23 17 C22.34 17 21.68 17 21 17 C20.71125 17.804375 20.4225 18.60875 20.125 19.4375 C19 22 19 22 17 23 C15.33380554 23.0396713 13.66608987 23.04384447 12 23 C11.67 24.32 11.34 25.64 11 27 C12.32 27 13.64 27 15 27 C15 28.98 15 30.96 15 33 C13.865625 32.979375 12.73125 32.95875 11.5625 32.9375 C8.18424326 32.58422523 8.18424326 32.58422523 7 34 C6.74996036 37.45821402 6.74996036 37.45821402 7 41 C7.66 41.66 8.32 42.32 9 43 C12.09926819 42.67801034 12.09926819 42.67801034 15 42 C16.33143786 48.41510967 16.33143786 48.41510967 14.9375 50.875 C12.37585287 52.36240801 9.90805938 52.56596129 7 53 C7.25394531 54.00417969 7.50789063 55.00835937 7.76953125 56.04296875 C7.93453125 56.69894043 8.09953125 57.35491211 8.26953125 58.03076172 C8.63359313 59.47686005 8.99949987 60.92249509 9.3671875 62.36767578 C10.80089492 68.05112257 12.00733615 73.76258511 13.09375 79.5234375 C13.76668142 82.14103084 13.76668142 82.14103084 16.03125 83.2890625 C16.6809375 83.52367187 17.330625 83.75828125 18 84 C18.33 84.33 18.66 84.66 19 85 C20.68608966 85.07205511 22.37500659 85.08386068 24.0625 85.0625 C24.98160156 85.05347656 25.90070313 85.04445313 26.84765625 85.03515625 C27.55792969 85.02355469 28.26820313 85.01195312 29 85 C29.42796462 78.79451302 28.96333041 76.03450079 25 71 C24.54496094 70.49210937 24.08992188 69.98421875 23.62109375 69.4609375 C19.98652716 65.09117368 19.12139857 61.39952558 19.37890625 55.71875 C20.72020751 49.84739353 25.15675843 46.32232547 29.875 42.9375 C32.83599064 40.23777324 32.77556254 37.89024937 33 34 C30.08347826 33.83318891 30.08347826 33.83318891 27 34 C26.01 34.99 26.01 34.99 25 36 C25.2909126 32.60601966 26.02283417 30.96886249 28.0625 28.1875 C31.16983651 25.873526 33.10929244 25.23623662 36.99609375 25.53125 C39.73432703 26.1717724 41.89311574 27.2946462 43.9296875 29.2421875 C46.16807644 32.91837372 45.76816126 36.900874 45 41 C42.55269176 45.57540237 38.14860502 48.32278502 34.0234375 51.3515625 C31.77539566 53.01761836 31.77539566 53.01761836 30 56 C30.66 55.67 31.32 55.34 32 55 C36.52901224 54.45723036 39.98987752 54.46401664 44.0625 56.625 C46 59 46 59 46.4375 62 C46.02914449 64.80015206 45.47068318 66.61013983 44 69 C43.34 69 42.68 69 42 69 C41.01 65.535 41.01 65.535 40 62 C37.64632287 61.3121764 37.64632287 61.3121764 35 61 C31.76502717 62.65559342 31.76502717 62.65559342 31.4375 65.5625 C32.26250184 70.60417794 35.05763394 73.92470075 38 78 C39.55024464 81.10048928 39.28992015 83.57894218 39 87 C36.86320715 90.38939556 35.8225233 91.72582557 32 93 C25.65875096 93.51765298 20.50268114 93.56930669 15 90 C15.23933561 93.2310308 16.27353938 94.30089331 18.5 96.75 C22.3672822 99.83439337 26.27021642 99.47297836 31 99 C30.57847656 99.680625 30.15695313 100.36125 29.72265625 101.0625 C24.77992205 109.80823205 24.02488539 117.19515675 24 127 C23.21625 127.28875 22.4325 127.5775 21.625 127.875 C18.90328368 128.84912254 18.90328368 128.84912254 17 131 C17 130.01 17 129.02 17 128 C13.535 128.99 13.535 128.99 10 130 C10 129.34 10 128.68 10 128 C4.6913151 128.58174845 4.6913151 128.58174845 0 131 C-1.72217143 128.36609075 -2.00455315 127.07588583 -1.8125 123.875 C-1 121 -1 121 2 119 C5.02329256 118.7389212 7.95876242 118.91184819 11 119 C11 115.37 11 111.74 11 108 C9.948125 107.62875 8.89625 107.2575 7.8125 106.875 C4.79681376 105.63004737 3.3546866 104.41727505 1.5 101.75 C0.675 100.8425 -0.15 99.935 -1 99 C-4.69329729 98.93632246 -6.90329505 99.28028737 -10 101.3125 C-11.18522726 102.9690869 -11.18522726 102.9690869 -10.9375 105.0625 C-9.73944098 107.53848865 -8.51570636 108.02617818 -6 109 C-6 109.66 -6 110.32 -6 111 C-6.763125 111.433125 -7.52625 111.86625 -8.3125 112.3125 C-12.14535352 114.71917546 -13.42913088 117.55603693 -15.0625 121.6875 C-16 124 -16 124 -18 126 C-19.66666667 126.66666667 -21.33333333 127.33333333 -23 128 C-23.66 128.66 -24.32 129.32 -25 130 C-25.33 128.68 -25.66 127.36 -26 126 C-29.37503669 127.1858237 -31.64722731 128.27573689 -34 131 C-34 129.68 -34 128.36 -34 127 C-36.64 127.33 -39.28 127.66 -42 128 C-42 127.01 -42 126.02 -42 125 C-42.66 125 -43.32 125 -44 125 C-43.625 122.5625 -43.625 122.5625 -43 120 C-40.48677688 118.74338844 -38.49082323 118.78432284 -35.6875 118.625 C-29.59523209 118.09212539 -26.68053312 116.99847182 -22.6875 112.25 C-20.71802696 108.45694081 -20.44298178 106.21742366 -21 102 C-22.45833358 100.37485532 -22.45833358 100.37485532 -24 99 C-24.5 96.625 -24.5 96.625 -24 94 C-20.21768399 89.50348944 -16.15899684 87.32570066 -10.9375 84.9375 C-4.27317719 81.95208289 -4.27317719 81.95208289 1 77 C1.16977494 74.34872531 1.16977494 74.34872531 0 72 C-1.96758273 70.63979849 -1.96758273 70.63979849 -4 70 C-3.67 71.98 -3.34 73.96 -3 76 C-6 78 -6 78 -10 78 C-11.75 75.5 -11.75 75.5 -13 73 C-15.43874429 74.08388635 -17.25285366 75.21185036 -19.3125 76.9375 C-22.44437763 79.34103399 -25.33619552 80.56321393 -29 82 C-29.495 81.505 -29.495 81.505 -30 81 C-35.32498418 80.39371945 -35.32498418 80.39371945 -39.875 82.5 C-40.24625 82.995 -40.6175 83.49 -41 84 C-41.66 84 -42.32 84 -43 84 C-43.33 83.34 -43.66 82.68 -44 82 C-45.32 82 -46.64 82 -48 82 C-48 81.01 -48 80.02 -48 79 C-50.475 79.99 -50.475 79.99 -53 81 C-53 79.35 -53 77.7 -53 76 C-53.66 75.67 -54.32 75.34 -55 75 C-51.77768107 71.54751543 -49.21095152 70.75465718 -44.6875 70.25 C-34.95478625 68.92500184 -26.50541831 63.64764463 -18.14453125 58.7421875 C-15 57 -15 57 -13 57 C-13 56.34 -13 55.68 -13 55 C-15.64 55 -18.28 55 -21 55 C-21.33 54.01 -21.66 53.02 -22 52 C-23.03125 52.66 -24.0625 53.32 -25.125 54 C-28.53576826 55.97282726 -31.0201643 56.38827665 -35 56 C-35.33 55.34 -35.66 54.68 -36 54 C-34.02 53.505 -34.02 53.505 -32 53 C-32.33665915 50.51751876 -32.33665915 50.51751876 -34 48 C-36.97 47.01 -39.94 46.02 -43 45 C-43 52.26 -43 59.52 -43 67 C-43.99 67 -44.98 67 -46 67 C-46.33 59.74 -46.66 52.48 -47 45 C-48.65 44.34 -50.3 43.68 -52 43 C-53.39143731 33.17431193 -53.39143731 33.17431193 -52 29 C-51.34 28.34 -50.68 27.68 -50 27 C-50.66 26.34 -51.32 25.68 -52 25 C-51.67 24.34 -51.34 23.68 -51 23 C-51.61875 22.731875 -52.2375 22.46375 -52.875 22.1875 C-55 21 -55 21 -57 18 C-57.73446576 13.43948005 -57.59262059 9.98088926 -55.1875 6 C-51.5358862 2.66138167 -47.95015683 2.6685655 -43.2265625 2.70703125 C-39.93194303 3.14053381 -38.23482784 4.62549542 -36 7 C-34.39367277 10.21265446 -34.52068056 13.51521812 -35 17 C-37.01502889 20.75212276 -38.45466142 22.63644095 -42 25 C-42.73343428 28.06556598 -42.73343428 28.06556598 -43 31 C-42.195625 31.103125 -41.39125 31.20625 -40.5625 31.3125 C-37.72263111 31.86054487 -35.32688269 32.54005901 -32.625 33.5 C-28.39573384 34.97198568 -24.45351034 35.59513542 -20 36 C-19.01 33.03 -18.02 30.06 -17 27 C-17.66 27 -18.32 27 -19 27 C-19.495 23.535 -19.495 23.535 -20 20 C-18.329375 20.309375 -18.329375 20.309375 -16.625 20.625 C-15.42875 20.74875 -14.2325 20.8725 -13 21 C-10.69337401 19.11340125 -10.69337401 19.11340125 -10.6875 16 C-10.8421875 14.515 -10.8421875 14.515 -11 13 C-11.99 12.34 -12.98 11.68 -14 11 C-9.375 7 -9.375 7 -6 7 C-5.7525 6.401875 -5.505 5.80375 -5.25 5.1875 C-3.83629988 2.71352479 -2.34944617 1.56629745 0 0 Z " fill="#04188A" transform="translate(135,58)"/>
<path d="M0 0 C24.38192175 21.37376258 39.79601856 52.04135492 42.0078125 84.51171875 C43.68605858 119.30535626 33.2150032 152.61847175 9.6953125 178.57421875 C-9.91854107 199.61410533 -35.27756747 214.2318967 -63.9921875 218.51171875 C-64.70503906 218.62257812 -65.41789063 218.7334375 -66.15234375 218.84765625 C-99.5235628 223.08345421 -132.75480211 214.38043886 -159.58203125 194.19921875 C-186.30148075 173.4521726 -203.18421824 144.07693363 -207.9921875 110.51171875 C-209.98994695 73.2514383 -202.80716551 39.92727983 -177.5546875 11.38671875 C-176.04122276 9.75485371 -174.52053225 8.12965612 -172.9921875 6.51171875 C-172.30640625 5.76148438 -171.620625 5.01125 -170.9140625 4.23828125 C-155.87770049 -11.6334342 -135.84906275 -21.70808488 -114.9921875 -27.48828125 C-113.80367188 -27.82859375 -112.61515625 -28.16890625 -111.390625 -28.51953125 C-71.51313338 -37.90247046 -30.85118349 -25.65561864 0 0 Z M-156.9921875 -1.48828125 C-157.82000732 -0.82868408 -157.82000732 -0.82868408 -158.66455078 -0.15576172 C-171.34540016 10.033019 -180.96205662 21.24524405 -188.9921875 35.51171875 C-189.59933594 36.57777344 -190.20648438 37.64382812 -190.83203125 38.7421875 C-204.61437532 64.46721921 -208.27231463 95.9215918 -200.4296875 124.07421875 C-200.16720215 125.02022949 -199.9047168 125.96624023 -199.63427734 126.94091797 C-190.76600814 157.62214417 -170.7506604 183.58396038 -142.9921875 199.51171875 C-133.74720185 204.47920532 -124.12672826 208.73678497 -113.9921875 211.51171875 C-112.99703125 211.80949219 -112.001875 212.10726562 -110.9765625 212.4140625 C-81.92722236 219.74395414 -49.40242283 213.91158889 -23.4296875 199.63671875 C6.15112341 181.48725569 26.87566222 154.29957052 35.04296875 120.421875 C40.83471728 93.22390033 37.44686239 65.25067927 25.0078125 40.51171875 C24.52441406 39.52042969 24.04101562 38.52914062 23.54296875 37.5078125 C9.42357883 10.01215845 -15.55279576 -10.36864491 -44.5546875 -20.17578125 C-83.01609537 -32.50722233 -124.99739266 -27.16311661 -156.9921875 -1.48828125 Z " fill="#D69E13" transform="translate(207.9921875,30.48828125)"/>
<path d="M0 0 C1.59775269 0.00737183 1.59775269 0.00737183 3.2277832 0.01489258 C10.60408701 0.12510476 17.22280939 0.74439874 24.1875 3.3125 C25.24710937 3.67601562 26.30671875 4.03953125 27.3984375 4.4140625 C39.6064623 8.82488731 49.46559891 14.71998774 59.1875 23.3125 C59.81269531 23.84230469 60.43789062 24.37210938 61.08203125 24.91796875 C74.83500554 37.44702495 83.92377568 57.35501149 85.47338867 75.69628906 C85.58687396 79.09444734 85.59756884 82.47527087 85.5625 85.875 C85.57410156 87.00357422 85.58570313 88.13214844 85.59765625 89.29492188 C85.51832228 112.28854985 75.13647455 132.34083843 59.1875 148.3125 C58.45660156 149.055 57.72570312 149.7975 56.97265625 150.5625 C39.26370788 167.44700943 16.61401767 171.85992536 -7.01171875 171.58203125 C-27.04083014 171.0243698 -43.83568545 162.10740239 -58.8125 149.3125 C-59.48667969 148.74015625 -60.16085938 148.1678125 -60.85546875 147.578125 C-74.45186397 135.00845985 -84.68768902 114.20569125 -85.98950195 95.81152344 C-86.56828618 70.87998922 -82.3556912 51.31265446 -66.8125 31.3125 C-66.39097656 30.72726563 -65.96945313 30.14203125 -65.53515625 29.5390625 C-55.06044118 15.97605758 -37.35421696 6.08019216 -20.8125 2.3125 C-19.88667114 2.06415405 -19.88667114 2.06415405 -18.94213867 1.81079102 C-12.60497092 0.2121045 -6.51734641 -0.03545108 0 0 Z M-52.8125 21.3125 C-53.60914062 21.96734375 -54.40578125 22.6221875 -55.2265625 23.296875 C-68.60285565 34.69299182 -80.73789734 53.44414808 -82.8125 71.3125 C-83.75615688 86.8210808 -84.26747315 102.93953062 -77.625 117.3125 C-77.31675293 117.99328613 -77.00850586 118.67407227 -76.69091797 119.37548828 C-71.9121203 129.67407664 -65.76315116 138.21285878 -57.8125 146.3125 C-56.81669922 147.34503906 -56.81669922 147.34503906 -55.80078125 148.3984375 C-44.95278445 158.85384013 -31.21008459 164.63512378 -16.8125 168.3125 C-15.65041016 168.61220703 -15.65041016 168.61220703 -14.46484375 168.91796875 C7.96122148 172.25380467 31.49781431 166.66433787 49.73925781 153.1640625 C67.45099413 139.60926965 79.85086969 119.54381931 83.1875 97.3125 C85.4413517 73.75251255 79.86398033 52.7210389 65.375 33.90234375 C58.2578658 25.47616523 50.84666208 18.67713666 41.1875 13.3125 C40.36507812 12.85230469 39.54265625 12.39210938 38.6953125 11.91796875 C9.96135965 -3.27522357 -28.02057363 -0.23660055 -52.8125 21.3125 Z " fill="#D09D21" transform="translate(124.8125,38.6875)"/>
<path d="M0 0 C2.4375 0.6875 2.4375 0.6875 5 2 C6.125 4.3125 6.125 4.3125 6 7 C2.15377053 11.63382716 -2.37435329 14.10410206 -7.6875 16.8125 C-8.45900391 17.21919922 -9.23050781 17.62589844 -10.02539062 18.04492188 C-15.71205357 21 -15.71205357 21 -18 21 C-18.73013413 24.9863056 -18.73013413 24.9863056 -19 29 C-17.58333333 30.58333333 -17.58333333 30.58333333 -16 32 C-15.43315224 36.29184734 -15.69093904 38.44582172 -17.8125 42.25 C-22.16494845 47.72164948 -22.16494845 47.72164948 -26 49 C-29.35489435 49.19231878 -32.70779056 49.31719724 -36.06640625 49.42578125 C-39.12335146 49.66858082 -39.12335146 49.66858082 -40.40234375 52.04296875 C-40.69818359 53.01169922 -40.69818359 53.01169922 -41 54 C-40.979375 53.071875 -40.95875 52.14375 -40.9375 51.1875 C-40.84230396 47.97713989 -40.84230396 47.97713989 -42 45 C-44.00016466 43.79117904 -44.00016466 43.79117904 -46 43 C-45.814375 42.195625 -45.62875 41.39125 -45.4375 40.5625 C-45.293125 39.716875 -45.14875 38.87125 -45 38 C-45.33 37.67 -45.66 37.34 -46 37 C-46.07516195 35.26582595 -46.08315772 33.52864793 -46.0625 31.79296875 C-46.05476563 30.73142578 -46.04703125 29.66988281 -46.0390625 28.57617188 C-46.0131559 26.32877448 -45.98711565 24.08137862 -45.9609375 21.83398438 C-45.94933594 20.23586914 -45.94933594 20.23586914 -45.9375 18.60546875 C-45.92589844 17.62731201 -45.91429688 16.64915527 -45.90234375 15.64135742 C-45.99056593 13.25516813 -46.31517634 11.2772409 -47 9 C-46.01 9 -45.02 9 -44 9 C-43.67 9.66 -43.34 10.32 -43 11 C-40.97536745 11.65213292 -40.97536745 11.65213292 -39 12 C-39 12.66 -39 13.32 -39 14 C-38.34 14 -37.68 14 -37 14 C-36.67 13.01 -36.34 12.02 -36 11 C-33.75487738 9.87743869 -32.48543351 9.86586238 -30 9.875 C-28.948125 9.87113281 -28.948125 9.87113281 -27.875 9.8671875 C-26 10 -26 10 -24 11 C-19.04628837 8.90567018 -14.50608038 6.11583349 -11 2 C-10.01 2.33 -9.02 2.66 -8 3 C-6.8125 5.5625 -6.8125 5.5625 -6 8 C-4.02 7.34 -2.04 6.68 0 6 C0 4.02 0 2.04 0 0 Z " fill="#CCCED2" transform="translate(131,128)"/>
<path d="M0 0 C1.32 0.99 2.64 1.98 4 3 C3.67 4.32 3.34 5.64 3 7 C2.34 7 1.68 7 1 7 C1 7.66 1 8.32 1 9 C2.65 8.67 4.3 8.34 6 8 C5.690625 8.928125 5.690625 8.928125 5.375 9.875 C5.25125 10.57625 5.1275 11.2775 5 12 C5.66 12.66 6.32 13.32 7 14 C5.68 15.32 4.36 16.64 3 18 C3.33 18.33 3.66 18.66 4 19 C4.99 19 5.98 19 7 19 C7.99 19 8.98 19 10 19 C10.33 19.33 10.66 19.66 11 20 C10.8725541 24.39157326 10.47250624 26.46394466 7.53125 29.80078125 C6.5309375 30.62964844 5.530625 31.45851563 4.5 32.3125 C-0.31806083 35.9656803 -0.31806083 35.9656803 -2.30859375 41.3203125 C-2.65808203 48.92433022 -1.01450903 52.43682968 4 58 C6.72942692 61.82119769 7.61633629 64.27475508 7 69 C6 70.875 6 70.875 4 72 C-0.48096996 72.50591596 -2.8374286 72.62003808 -6.8125 70.5 C-13.79816988 62.51637728 -14.63261423 49.12639463 -16 39 C-13.36 38.34 -10.72 37.68 -8 37 C-8 34.69 -8 32.38 -8 30 C-8.66 30 -9.32 30 -10 30 C-14.70588235 29.29411765 -14.70588235 29.29411765 -17 27 C-17.25 23.5 -17.25 23.5 -17 20 C-16.34 19.34 -15.68 18.68 -15 18 C-11.375 18.375 -11.375 18.375 -8 19 C-8 17.02 -8 15.04 -8 13 C-9.32 13 -10.64 13 -12 13 C-11.67 11.35 -11.34 9.7 -11 8 C-9.6078125 8.1546875 -9.6078125 8.1546875 -8.1875 8.3125 C-7.135625 8.209375 -6.08375 8.10625 -5 8 C-3.21030974 5.57327433 -3.21030974 5.57327433 -2 3 C-1.34 3 -0.68 3 0 3 C0 2.01 0 1.02 0 0 Z " fill="#F9F9FA" transform="translate(158,72)"/>
<path d="M0 0 C0.99 0.33 1.98 0.66 3 1 C3 8.26 3 15.52 3 23 C3.99 23 4.98 23 6 23 C6 15.74 6 8.48 6 1 C15 3 15 3 17 5 C17 6.32 17 7.64 17 9 C16.01 9.66 15.02 10.32 14 11 C15.41750563 10.88490339 16.83401169 10.75746342 18.25 10.625 C19.03890625 10.55539063 19.8278125 10.48578125 20.640625 10.4140625 C23.085877 9.98492887 24.84836903 9.21399362 27 8 C27.495 8.99 27.495 8.99 28 10 C29.89533342 10.46523063 29.89533342 10.46523063 32.0625 10.625 C33.361875 10.74875 34.66125 10.8725 36 11 C36 11.66 36 12.32 36 13 C32.46281042 14.96650149 28.91950646 16.92172217 25.375 18.875 C24.37597656 19.43058594 23.37695312 19.98617187 22.34765625 20.55859375 C21.37441406 21.09355469 20.40117188 21.62851563 19.3984375 22.1796875 C18.50817871 22.67194824 17.61791992 23.16420898 16.70068359 23.67138672 C12.3671598 25.80328299 8.25727593 27.1529694 3.4375 27.4375 C-0.3788552 27.78561348 -2.86733998 28.67576837 -6 31 C-5.02533455 28.82574631 -4.30353502 27.25394691 -2.45776367 25.7097168 C-0.41331354 23.31191337 -0.57082317 21.57711583 -0.48828125 18.45703125 C-0.45283203 17.38388672 -0.41738281 16.31074219 -0.38085938 15.20507812 C-0.35830078 14.08552734 -0.33574219 12.96597656 -0.3125 11.8125 C-0.27833984 10.68134766 -0.24417969 9.55019531 -0.20898438 8.38476562 C-0.12643686 5.5899426 -0.05730818 2.79543602 0 0 Z " fill="#6B7AB5" transform="translate(86,102)"/>
<path d="M0 0 C0.89203125 0.01804688 1.7840625 0.03609375 2.703125 0.0546875 C3.71632813 0.08949219 3.71632813 0.08949219 4.75 0.125 C4.9975 0.764375 5.245 1.40375 5.5 2.0625 C6.56562433 4.31241541 6.56562433 4.31241541 8.875 4.875 C9.49375 4.9575 10.1125 5.04 10.75 5.125 C12.3470516 13.90878378 12.3470516 13.90878378 10.0625 18.5625 C9.299375 19.408125 8.53625 20.25375 7.75 21.125 C7.193125 21.74375 6.63625 22.3625 6.0625 23 C2.29013689 24.83520367 -1.15711665 24.95045547 -5.25 24.125 C-9.04894338 22.26429304 -11.5677273 19.980244 -13.04296875 15.96875 C-13.748241 11.89074017 -13.48257451 8.87404306 -11.5625 5.1875 C-8.12877777 0.64013813 -5.6075163 -0.14756622 0 0 Z " fill="#FFD7D7" transform="translate(26.25,138.875)"/>
<path d="M0 0 C3.63 0 7.26 0 11 0 C11 0.66 11 1.32 11 2 C12.32 2 13.64 2 15 2 C18.06143433 6.65338018 18.4616342 10.21866484 17.69140625 15.5859375 C16.75089649 18.86975123 15.47454444 20.80038548 12.875 23 C9.28818784 24.91296648 5.91182845 24.81875479 2 24 C-1.46069403 22.30111384 -3.36595034 21.03753581 -5.375 17.75 C-6.22881532 13.99321259 -6.24907074 10.8605965 -6 7 C-5.34 6.01 -4.68 5.02 -4 4 C-3.01 4 -2.02 4 -1 4 C-0.67 2.68 -0.34 1.36 0 0 Z " fill="#F0CED5" transform="translate(219,139)"/>
<path d="M0 0 C0.66 0 1.32 0 2 0 C2 0.99 2 1.98 2 3 C-0.1953125 4.54296875 -0.1953125 4.54296875 -3.125 6.1875 C-8.30715996 9.36366256 -12.31881363 12.44144289 -15 18 C-15.75413353 21.75643424 -15.75413353 21.75643424 -15 25 C-14.01 25.66 -13.02 26.32 -12 27 C-12.08785338 28.41777182 -12.19604647 29.83429039 -12.3125 31.25 C-12.37050781 32.03890625 -12.42851563 32.8278125 -12.48828125 33.640625 C-13.11260742 36.51919756 -13.87737931 37.95185723 -16 40 C-18.48046875 40.390625 -18.48046875 40.390625 -21.1875 40.25 C-22.08855469 40.21390625 -22.98960938 40.1778125 -23.91796875 40.140625 C-24.60503906 40.09421875 -25.29210937 40.0478125 -26 40 C-26.66 38.35 -27.32 36.7 -28 35 C-27.34 35 -26.68 35 -26 35 C-26 33.35 -26 31.7 -26 30 C-26.66 30 -27.32 30 -28 30 C-28 24.72 -28 19.44 -28 14 C-27.34 14 -26.68 14 -26 14 C-25.896875 13.401875 -25.79375 12.80375 -25.6875 12.1875 C-24.86684202 9.57631553 -24.25738505 8.55681728 -22 7 C-18.95252535 6.7350022 -16.54004521 6.84457235 -13.59765625 7.69140625 C-10.19183823 8.09600719 -9.05153313 7.17318276 -6.3125 5.1875 C-5.54550781 4.64480469 -4.77851562 4.10210937 -3.98828125 3.54296875 C-1.9241823 2.00759249 -1.9241823 2.00759249 0 0 Z " fill="#FCFCFD" transform="translate(123,134)"/>
<path d="M0 0 C3.60229744 2.14604954 5.43861353 4.1528 7 8 C7.32364968 12.63897872 6.58005227 16.1299216 4 20 C0.03740187 22.64173209 -3.25444796 23.4260971 -8 23 C-11.54597709 21.32371992 -13.37259581 20.05517977 -15.375 16.6875 C-17.17415976 8.95111305 -17.17415976 8.95111305 -14.94921875 5.25390625 C-10.50209544 -0.21644897 -6.77363191 -0.8554933 0 0 Z " fill="#FF7A7A" transform="translate(30,87)"/>
<path d="M0 0 C3.57545703 0.02280993 5.54438404 0.46007439 8.3125 2.75 C11.98733665 6.60857848 12.15570334 8.9592891 12.09765625 14.1171875 C11.67183373 17.48876856 10.27772826 19.11520743 7.8125 21.375 C4.54315722 23.66353994 1.7426848 23.84662218 -2.1875 23.375 C-5.8453218 21.33506092 -7.85696174 19.87080738 -10.1875 16.375 C-10.73343928 12.98442974 -10.73900778 9.76515077 -10.1875 6.375 C-7.75 3.3125 -7.75 3.3125 -5.1875 1.375 C-3.63766739 -0.17483261 -2.15081622 0.09367039 0 0 Z " fill="#FF2222" transform="translate(223.1875,86.625)"/>
<path d="M0 0 C1.28027344 1.82592773 1.28027344 1.82592773 2.359375 4.18359375 C2.75253906 5.02857422 3.14570312 5.87355469 3.55078125 6.74414062 C3.94652344 7.63294922 4.34226562 8.52175781 4.75 9.4375 C5.16121094 10.32244141 5.57242188 11.20738281 5.99609375 12.11914062 C9 18.67084977 9 18.67084977 9 21 C6.8748967 22.29024129 5.44654501 23 2.9375 23 C-0.04789216 21.45915243 -0.72425519 18.99800031 -2 16 C-3.32 16 -4.64 16 -6 16 C-4.68 19.3 -3.36 22.6 -2 26 C-4.31 26.99 -6.62 27.98 -9 29 C-11.29851676 26.16603332 -12.72452296 23.53690108 -14 20.125 C-15.1431904 17.12798734 -16.31071623 14.4107106 -17.8125 11.5625 C-19 9 -19 9 -18 6 C-14.9375 4.8125 -14.9375 4.8125 -12 4 C-11.01 5.98 -10.02 7.96 -9 10 C-8.01 10 -7.02 10 -6 10 C-6.58803797 6.97580475 -7.22678118 3.98241547 -8 1 C-4.9345358 -0.86117469 -3.36458845 -1.37489691 0 0 Z " fill="#EADAB7" transform="translate(86,18)"/>
<path d="M0 0 C0.07476562 0.6290625 0.14953125 1.258125 0.2265625 1.90625 C1.28214908 8.77791165 3.57380266 12.74757916 8 18 C10.72942692 21.82119769 11.61633629 24.27475508 11 29 C10 30.875 10 30.875 8 32 C2.42607683 32.70779977 2.42607683 32.70779977 0 32 C-3.65437882 28.43714408 -4.57143004 25.56229675 -5.125 20.5625 C-5.64099481 16.10283055 -6.54020002 12.24179583 -8 8 C-8.125 5.125 -8.125 5.125 -8 3 C-1.125 0 -1.125 0 0 0 Z " fill="#FCFCFD" transform="translate(154,112)"/>
<path d="M0 0 C2.4375 0.6875 2.4375 0.6875 5 2 C6.125 4.3125 6.125 4.3125 6 7 C2.15377053 11.63382716 -2.37435329 14.10410206 -7.6875 16.8125 C-8.45900391 17.21919922 -9.23050781 17.62589844 -10.02539062 18.04492188 C-15.71205357 21 -15.71205357 21 -18 21 C-18.73013413 24.9863056 -18.73013413 24.9863056 -19 29 C-17.58333333 30.58333333 -17.58333333 30.58333333 -16 32 C-15.43315224 36.29184734 -15.69093904 38.44582172 -17.8125 42.25 C-22.16494845 47.72164948 -22.16494845 47.72164948 -26 49 C-29.35489435 49.19231878 -32.70779056 49.31719724 -36.06640625 49.42578125 C-39.12335146 49.66858082 -39.12335146 49.66858082 -40.40234375 52.04296875 C-40.69818359 53.01169922 -40.69818359 53.01169922 -41 54 C-40.68398677 51.07687766 -40.45816883 49.45280386 -38.33203125 47.3515625 C-35.38364412 45.64278202 -33.32447945 45.700091 -29.9375 45.6875 C-26.79326052 45.55939435 -26.79326052 45.55939435 -24 45 C-21.04447012 41.36892044 -20.54705283 37.5952438 -20 33 C-21.32 32.34 -22.64 31.68 -24 31 C-24.57122495 26.43020044 -24.2836595 23.82369007 -21.625 20 C-15.90033466 13.04669187 -8.5051722 8.67755421 0 6 C0 4.02 0 2.04 0 0 Z " fill="#6C7BB6" transform="translate(131,128)"/>
<path d="M0 0 C-0.33 1.65 -0.66 3.3 -1 5 C-2.7015625 5.2165625 -2.7015625 5.2165625 -4.4375 5.4375 C-7.80777201 5.61171478 -7.80777201 5.61171478 -9 7 C-9.55775398 11.09019588 -9.31625995 12.57530807 -6.8125 15.9375 C-4.21070012 18.29771627 -4.21070012 18.29771627 -1.25 17.875 C0.93516519 17.19908102 0.93516519 17.19908102 2 16 C2.36760731 13.67182036 2.70241581 11.3381615 3 9 C4.65 9 6.3 9 8 9 C8.44933921 17.83700441 8.44933921 17.83700441 5 22 C1.54021662 24.86667766 -1.50539982 25.54304397 -6.0078125 25.34765625 C-9.42741551 24.750902 -11.43200379 23.269392 -14 21 C-16.64201025 16.94891762 -17.70236884 13.8162435 -17 9 C-12.50518681 0.81301883 -8.90459668 -0.51372673 0 0 Z " fill="#EAD8AE" transform="translate(62,34)"/>
<path d="M0 0 C0 1.65 0 3.3 0 5 C-1.98 5.33 -3.96 5.66 -6 6 C-6.33 7.32 -6.66 8.64 -7 10 C-4.36 9.67 -1.72 9.34 1 9 C1 10.65 1 12.3 1 14 C-1.31 14.33 -3.62 14.66 -6 15 C-5.67 16.65 -5.34 18.3 -5 20 C-2.36 19.34 0.28 18.68 3 18 C3.33 19.65 3.66 21.3 4 23 C2.27318563 23.50806447 0.54342021 24.00610467 -1.1875 24.5 C-2.15042969 24.7784375 -3.11335938 25.056875 -4.10546875 25.34375 C-6.85345876 25.96677608 -9.19598416 26.12302812 -12 26 C-12.67507066 22.93929066 -13.33854922 19.8761791 -14 16.8125 C-14.19078125 15.94818359 -14.3815625 15.08386719 -14.578125 14.19335938 C-14.75859375 13.35224609 -14.9390625 12.51113281 -15.125 11.64453125 C-15.29257813 10.87471924 -15.46015625 10.10490723 -15.6328125 9.31176758 C-16.02550915 6.83939753 -16.06185285 4.49924191 -16 2 C-10.61972975 0.80911014 -5.54708616 -0.2919519 0 0 Z " fill="#DBC38D" transform="translate(111,11)"/>
<path d="M0 0 C4.62 2.31 9.24 4.62 14 7 C13.34 8.32 12.68 9.64 12 11 C6.25 9.125 6.25 9.125 4 8 C3.67 9.32 3.34 10.64 3 12 C4.98 12.66 6.96 13.32 9 14 C8.67 15.65 8.34 17.3 8 19 C5.23723823 18.47731534 2.6739124 17.89130413 0 17 C0 18.32 0 19.64 0 21 C2.42672567 22.78969026 2.42672567 22.78969026 5 24 C4.67 25.32 4.34 26.64 4 28 C0.14974121 27.39644592 -2.86101159 26.23227397 -6.3125 24.4375 C-7.19550781 23.98246094 -8.07851562 23.52742188 -8.98828125 23.05859375 C-9.65214844 22.70925781 -10.31601563 22.35992187 -11 22 C-9.48968084 16.73877829 -7.09625809 12.32767414 -4.375 7.625 C-3.95476562 6.88894531 -3.53453125 6.15289062 -3.1015625 5.39453125 C-2.07247236 3.5936235 -1.03689244 1.79642682 0 0 Z " fill="#E4D0A2" transform="translate(170,19)"/>
<path d="M0 0 C2.4375 1.8125 2.4375 1.8125 4 4 C4 5.32 4 6.64 4 8 C2.35 8.33 0.7 8.66 -1 9 C-1.33 8.01 -1.66 7.02 -2 6 C-2.99 5.67 -3.98 5.34 -5 5 C-4.4946875 5.49628906 -3.989375 5.99257813 -3.46875 6.50390625 C1.82358958 12.03776132 1.82358958 12.03776132 2.6875 16.75 C2 20 2 20 0.5625 22.4375 C-3.22775222 24.7486294 -6.67432741 24.79370139 -11 24 C-13.5625 22.25 -13.5625 22.25 -15 20 C-15 18.68 -15 17.36 -15 16 C-13.35 15.67 -11.7 15.34 -10 15 C-9.67 15.99 -9.34 16.98 -9 18 C-8.01 18.33 -7.02 18.66 -6 19 C-6 17.68 -6 16.36 -6 15 C-6.598125 14.7525 -7.19625 14.505 -7.8125 14.25 C-10.42242763 12.75861278 -11.59357486 11.66480553 -13 9 C-13 5.11795363 -12.43493704 3.49889836 -9.875 0.5625 C-6.05084989 -1.51584245 -4.13649584 -1.20334424 0 0 Z " fill="#E5D1A3" transform="translate(155,13)"/>
<path d="M0 0 C3.5 0.25 3.5 0.25 5.5 2.25 C6.08731286 6.61289554 5.92142026 8.62425477 3.4375 12.3125 C0.87185131 15.06140931 -1.9945441 17.4386222 -4.94921875 19.7578125 C-7.81831651 22.51850606 -8.47198297 24.73635438 -8.6875 28.6875 C-8.05654904 33.13736466 -5.56311692 36.18482068 -2.9375 39.6875 C-0.13643972 43.44594652 2.14723681 46.52932014 2.25 51.375 C1.31004581 56.23142997 1.31004581 56.23142997 -1.5 58.25 C-6.59865979 59.12608551 -11.12630204 59.04674481 -15.625 56.4375 C-17.5 54.25 -17.5 54.25 -18.5 51.25 C-14.625 53.125 -14.625 53.125 -13.5 54.25 C-11.81391034 54.32205511 -10.12499341 54.33386068 -8.4375 54.3125 C-7.51839844 54.30347656 -6.59929687 54.29445312 -5.65234375 54.28515625 C-4.94207031 54.27355469 -4.23179687 54.26195312 -3.5 54.25 C-3.07203538 48.04451302 -3.53666959 45.28450079 -7.5 40.25 C-7.95503906 39.74210937 -8.41007813 39.23421875 -8.87890625 38.7109375 C-12.51347284 34.34117368 -13.37860143 30.64952558 -13.12109375 24.96875 C-11.77979249 19.09739353 -7.34324157 15.57232547 -2.625 12.1875 C0.33599064 9.48777324 0.27556254 7.14024937 0.5 3.25 C-2.47 2.755 -2.47 2.755 -5.5 2.25 C-3.5 0.25 -3.5 0.25 0 0 Z " fill="#6E7DB7" transform="translate(167.5,88.75)"/>
<path d="M0 0 C-2.56303449 9.15048279 -5.79531223 18.06006196 -9 27 C-11.46800047 25.84826645 -13.04783565 24.95216435 -15 23 C-15.125 19.375 -15.125 19.375 -15 16 C-18.28976808 14.90341064 -19.71303767 15.20046862 -23 16 C-23.66 14.68 -24.32 13.36 -25 12 C-21.91702588 10.37431783 -18.83355811 8.74957416 -15.75 7.125 C-14.87730469 6.66480469 -14.00460938 6.20460938 -13.10546875 5.73046875 C-12.26113281 5.28574219 -11.41679687 4.84101562 -10.546875 4.3828125 C-9.77182617 3.97434082 -8.99677734 3.56586914 -8.19824219 3.14501953 C-7.47282227 2.76716309 -6.74740234 2.38930664 -6 2 C-5.2874707 1.62085449 -4.57494141 1.24170898 -3.84082031 0.85107422 C-2 0 -2 0 0 0 Z " fill="#FDFBF6" transform="translate(202,36)"/>
<path d="M0 0 C9 2 9 2 11 4 C11 5.32 11 6.64 11 8 C10.01 8.66 9.02 9.32 8 10 C9.41750563 9.88490339 10.83401169 9.75746342 12.25 9.625 C13.03890625 9.55539063 13.8278125 9.48578125 14.640625 9.4140625 C17.085877 8.98492887 18.84836903 8.21399362 21 7 C21.33 7.99 21.66 8.98 22 10 C19.81395715 11.41895708 17.62622986 12.83519792 15.4375 14.25 C14.82841797 14.64574219 14.21933594 15.04148437 13.59179688 15.44921875 C1.8942751 23 1.8942751 23 0 23 C0 15.41 0 7.82 0 0 Z " fill="#F9F9FA" transform="translate(92,103)"/>
<path d="M0 0 C2.64 0 5.28 0 8 0 C8 6.27 8 12.54 8 19 C10.64 19 13.28 19 16 19 C16 20.65 16 22.3 16 24 C10.72 24 5.44 24 0 24 C0 16.08 0 8.16 0 0 Z " fill="#E5D09E" transform="translate(120,10)"/>
<path d="M0 0 C0.33 0.66 0.66 1.32 1 2 C2.65 1.67 4.3 1.34 6 1 C5.47599609 2.03060547 5.47599609 2.03060547 4.94140625 3.08203125 C4.48636719 3.98308594 4.03132813 4.88414062 3.5625 5.8125 C3.11003906 6.70582031 2.65757812 7.59914062 2.19140625 8.51953125 C0.08468185 12.90566237 -0.29012188 16.9052547 -0.5625 21.6875 C-0.60568359 22.38939453 -0.64886719 23.09128906 -0.69335938 23.81445312 C-0.7991736 25.54275206 -0.90006581 27.2713511 -1 29 C-2.175625 29.433125 -2.175625 29.433125 -3.375 29.875 C-6.09671632 30.84912254 -6.09671632 30.84912254 -8 33 C-8.33 32.01 -8.66 31.02 -9 30 C-10.98491642 30.26676204 -10.98491642 30.26676204 -13 31 C-13.495 32.485 -13.495 32.485 -14 34 C-14.66 34 -15.32 34 -16 34 C-16.33 32.68 -16.66 31.36 -17 30 C-19.47266765 30.34444881 -19.47266765 30.34444881 -22 31 C-22.33 31.66 -22.66 32.32 -23 33 C-23.66 33 -24.32 33 -25 33 C-25.66 31.35 -26.32 29.7 -27 28 C-25 26 -25 26 -21.5 25.875 C-20.345 25.91625 -19.19 25.9575 -18 26 C-17.34 26 -16.68 26 -16 26 C-13.66666667 26 -11.33333333 26 -9 26 C-7.66216607 25.68521554 -6.32796291 25.35412344 -5 25 C-4.97421875 23.94941406 -4.9484375 22.89882812 -4.921875 21.81640625 C-4.6314736 13.81846609 -4.21093444 7.05086696 0 0 Z " fill="#CCCFD3" transform="translate(163,160)"/>
<path d="M0 0 C0.66 0 1.32 0 2 0 C2 0.99 2 1.98 2 3 C2.99 3.66 3.98 4.32 5 5 C4.071875 5.4125 3.14375 5.825 2.1875 6.25 C-1.01294731 8.00710833 -2.260803 8.8694454 -4 12 C-4.226875 13.155 -4.45375 14.31 -4.6875 15.5 C-6.13753949 19.36677196 -6.49844493 19.6279681 -10 21.3125 C-10.70125 21.59738281 -11.4025 21.88226563 -12.125 22.17578125 C-14.19017187 22.94832411 -14.19017187 22.94832411 -16 25 C-16.66 24.34 -17.32 23.68 -18 23 C-19.32 23 -20.64 23 -22 23 C-22.33 23.99 -22.66 24.98 -23 26 C-23.99 25.67 -24.98 25.34 -26 25 C-26 24.34 -26 23.68 -26 23 C-26.66 22.67 -27.32 22.34 -28 22 C-26.25 19.5 -26.25 19.5 -24 17 C-22.68 17 -21.36 17 -20 17 C-19.34 17.66 -18.68 18.32 -18 19 C-17.34 18.34 -16.68 17.68 -16 17 C-15.21625 16.814375 -14.4325 16.62875 -13.625 16.4375 C-9.98394727 14.44359017 -9.46631242 11.94916337 -7.96875 8.19921875 C-6.76878177 5.47509733 -5.3896009 3.7729297 -3 2 C-2.01 2 -1.02 2 0 2 C0 1.34 0 0.68 0 0 Z " fill="#C8CBD2" transform="translate(129,167)"/>
<path d="M0 0 C1.32 0.99 2.64 1.98 4 3 C3.67 4.32 3.34 5.64 3 7 C2.34 7 1.68 7 1 7 C1 7.66 1 8.32 1 9 C2.65 8.67 4.3 8.34 6 8 C5.67 9.32 5.34 10.64 5 12 C-2.42857143 13.28571429 -2.42857143 13.28571429 -6 12 C-6.33 13.65 -6.66 15.3 -7 17 C-6.01 17 -5.02 17 -4 17 C-4 18.98 -4 20.96 -4 23 C-6.31 22.67 -8.62 22.34 -11 22 C-11.66 24.31 -12.32 26.62 -13 29 C-12.01 29.33 -11.02 29.66 -10 30 C-14.75 29.25 -14.75 29.25 -17 27 C-17.25 23.5 -17.25 23.5 -17 20 C-16.34 19.34 -15.68 18.68 -15 18 C-11.375 18.375 -11.375 18.375 -8 19 C-8 17.02 -8 15.04 -8 13 C-9.32 13 -10.64 13 -12 13 C-11.67 11.35 -11.34 9.7 -11 8 C-9.6078125 8.1546875 -9.6078125 8.1546875 -8.1875 8.3125 C-7.135625 8.209375 -6.08375 8.10625 -5 8 C-3.21030974 5.57327433 -3.21030974 5.57327433 -2 3 C-1.34 3 -0.68 3 0 3 C0 2.01 0 1.02 0 0 Z " fill="#CCCFD4" transform="translate(158,72)"/>
<path d="M0 0 C2.3125 -0.3125 2.3125 -0.3125 5 0 C6.81883009 2.3832946 8 3.95818337 8 7 C9.65 6.67 11.3 6.34 13 6 C12.67 6.78375 12.34 7.5675 12 8.375 C10.88133489 10.84332497 10.88133489 10.84332497 11 13 C11.66 13 12.32 13 13 13 C13.99 15.31 14.98 17.62 16 20 C13.69 20.99 11.38 21.98 9 23 C6.70148324 20.16603332 5.27547704 17.53690108 4 14.125 C2.8568096 11.12798734 1.68928377 8.4107106 0.1875 5.5625 C-1 3 -1 3 0 0 Z " fill="#EBDCBA" transform="translate(68,24)"/>
<path d="M0 0 C2.97 0 5.94 0 9 0 C9.66 1.32 10.32 2.64 11 4 C12.86911962 5.00887131 12.86911962 5.00887131 15 5.5625 C18.47625497 6.59131811 18.84203265 6.76304898 21 10 C21.16283293 14.14060889 20.29188433 18.06597014 19.0625 22 C16.11013175 24.86290255 13.37894044 24.60448005 9.375 24.6640625 C6.52302863 25.06746635 5.79215701 25.81314174 4 28 C3.34 28.66 2.68 29.32 2 30 C2.3125 27.125 2.3125 27.125 3 24 C7.2024454 21.19836974 10.00104935 21.85510288 15 22 C15 18.37 15 14.74 15 11 C13.948125 10.62875 12.89625 10.2575 11.8125 9.875 C7.59900987 8.09597083 5.75210788 5.59302973 3 2 C2.01 1.34 1.02 0.68 0 0 Z " fill="#6F7DB6" transform="translate(131,155)"/>
<path d="M0 0 C3.57545703 0.02280993 5.54438404 0.46007439 8.3125 2.75 C11.98733665 6.60857848 12.15570334 8.9592891 12.09765625 14.1171875 C11.67183373 17.48876856 10.27772826 19.11520743 7.8125 21.375 C4.54315722 23.66353994 1.7426848 23.84662218 -2.1875 23.375 C-5.8453218 21.33506092 -7.85696174 19.87080738 -10.1875 16.375 C-10.73343928 12.98442974 -10.73900778 9.76515077 -10.1875 6.375 C-7.75 3.3125 -7.75 3.3125 -5.1875 1.375 C-3.63766739 -0.17483261 -2.15081622 0.09367039 0 0 Z M-7.1875 4.375 C-8.14794102 6.45190578 -8.14794102 6.45190578 -8.1875 8.375 C-6.5375 8.375 -4.8875 8.375 -3.1875 8.375 C-4.1775 8.705 -5.1675 9.035 -6.1875 9.375 C-5.93469023 13.67276606 -5.53706023 15.92151646 -2.875 19.375 C-0.44202836 21.64602243 -0.44202836 21.64602243 2.0625 21.1875 C2.64 20.919375 3.2175 20.65125 3.8125 20.375 C4.8125 20.375 5.8125 20.375 6.8125 20.375 C7.10125 19.75625 7.39 19.1375 7.6875 18.5 C8.8125 16.375 8.8125 16.375 10.8125 14.375 C10.46463292 12.39963255 10.46463292 12.39963255 9.8125 10.375 C9.8125 9.385 9.8125 8.395 9.8125 7.375 C8.90089379 4.86808292 8.20999142 3.64913201 6 2.125 C0.86767223 0.36534476 -2.66504099 1.49707154 -7.1875 4.375 Z " fill="#ECCDD5" transform="translate(223.1875,86.625)"/>
<path d="M0 0 C1.9375 1.125 1.9375 1.125 3 3 C3.5 5.875 3.5 5.875 3 9 C0.875 11.9375 0.875 11.9375 -2 14 C-5.95320924 13.92093582 -7.69645615 13.20236257 -11 11 C-11.50235639 7.12467931 -11.57171759 4.89187945 -9.4375 1.5625 C-6.09493717 -0.58016848 -3.89504791 -0.49573337 0 0 Z " fill="#D4BC88" transform="translate(66,202)"/>
<path d="M0 0 C0.66 0.33 1.32 0.66 2 1 C2.33 1.99 2.66 2.98 3 4 C5.49759982 5.69882448 5.49759982 5.69882448 8 7 C5.26821192 15.35927152 5.26821192 15.35927152 3.875 18.6875 C2.87355562 21.09584065 2.87355562 21.09584065 2.5 24.1875 C2 27 2 27 0 29 C-0.99 29 -1.98 29 -3 29 C-3.185625 27.783125 -3.37125 26.56625 -3.5625 25.3125 C-4.43290689 21.68258091 -5.57281445 20.1396129 -8.625 18 C-9.73875 17.34 -10.8525 16.68 -12 16 C-7.70272603 14.69339643 -4.39784135 15.3403238 0 16 C0.99 13.03 1.98 10.06 3 7 C2.34 7 1.68 7 1 7 C0.67 4.69 0.34 2.38 0 0 Z " fill="#6D7CB6" transform="translate(115,78)"/>
<path d="M0 0 C0.99 0 1.98 0 3 0 C4.96263236 5.5415502 5.01603857 9.20858017 4 15 C3.67 15 3.34 15 3 15 C2.67 13.02 2.34 11.04 2 9 C1.01 9.66 0.02 10.32 -1 11 C-2.32 11 -3.64 11 -5 11 C-4.72285156 12.134375 -4.44570312 13.26875 -4.16015625 14.4375 C-3.79404291 15.95827848 -3.42817037 17.47911495 -3.0625 19 C-2.78889648 20.11568359 -2.78889648 20.11568359 -2.50976562 21.25390625 C-1.33622791 26.1614276 -0.54165676 30.98254788 0 36 C-0.66 36 -1.32 36 -2 36 C-5.89453226 26.72730415 -7.65855432 16.93429109 -9 7 C-6.36 6.34 -3.72 5.68 -1 5 C-0.67 3.35 -0.34 1.7 0 0 Z " fill="#CBCED5" transform="translate(151,104)"/>
<path d="M0 0 C3.91211733 1.15585285 6.8745041 2.35534962 10 5 C9.67 6.98 9.34 8.96 9 11 C6.36 10.67 3.72 10.34 1 10 C2.98 10.66 4.96 11.32 7 12 C7 13.98 7 15.96 7 18 C4.875 18.4375 4.875 18.4375 2 18 C-0.57994675 16.01178416 -2.42909987 13.8531543 -4 11 C-4.07928861 6.32197219 -3.16971994 3.44534776 0 0 Z " fill="#FF2E2E" transform="translate(19,90)"/>
<path d="M0 0 C3 2 3 2 3.43359375 4.05859375 C3.44400026 10.39615964 3.44400026 10.39615964 1.4375 13.125 C-2.04906873 14.37658877 -4.45212472 13.91981952 -8 13 C-10.32749345 9.50875983 -10.50299316 8.10777749 -10 4 C-7.19031195 -0.10646715 -4.84054225 -0.61794156 0 0 Z " fill="#E1CD9E" transform="translate(79,210)"/>
<path d="M0 0 C0.66 0 1.32 0 2 0 C5.87143083 5.56518182 7.19459574 10.21091137 6 17 C3.80873184 20.09799981 2.58943664 20.80352112 -1 22 C-7.21481787 22.42134358 -11.28374518 21.4498235 -17 19 C-17.66 19.66 -18.32 20.32 -19 21 C-20.32 19.02 -21.64 17.04 -23 15 C-22.67 14.34 -22.34 13.68 -22 13 C-21.401875 13.474375 -20.80375 13.94875 -20.1875 14.4375 C-15.32876354 17.90802604 -9.73800968 17.48655638 -4 17 C-0.88062031 15.62747293 0.4897715 15.020457 2 12 C2.25785684 7.44452917 1.99851462 4.1219364 0 0 Z " fill="#C8CBD2" transform="translate(171,133)"/>
<path d="M0 0 C6.45748769 0.60919695 6.45748769 0.60919695 8.74609375 2.2578125 C10.41941001 4.58273166 10.17351053 5.76825121 9.75 8.5625 C9.64171875 9.34753906 9.5334375 10.13257813 9.421875 10.94140625 C9 13 9 13 8 15 C0.25 15.125 0.25 15.125 -2 14 C-1.85866501 12.22880197 -1.71176792 10.45804713 -1.5625 8.6875 C-1.48128906 7.70136719 -1.40007812 6.71523437 -1.31640625 5.69921875 C-1 3 -1 3 0 0 Z " fill="#C0A773" transform="translate(98,218)"/>
<path d="M0 0 C3.63 0 7.26 0 11 0 C11 0.66 11 1.32 11 2 C12.32 2 13.64 2 15 2 C18.62926746 7.51648654 18.01924246 11.78630501 17 18 C16.67 17.01 16.34 16.02 16 15 C13.36 15 10.72 15 8 15 C7.67 13.35 7.34 11.7 7 10 C6.34 10 5.68 10 5 10 C4.01 11.485 4.01 11.485 3 13 C3 11.35 3 9.7 3 8 C3.66 8 4.32 8 5 8 C5.33 7.01 5.66 6.02 6 5 C6 5.66 6 6.32 6 7 C8.2477975 4.94766315 9.0022242 3.99332739 10 1 C8.54119891 1.14107747 7.08296449 1.28802415 5.625 1.4375 C4.81289062 1.51871094 4.00078125 1.59992188 3.1640625 1.68359375 C0.95727195 1.89090114 0.95727195 1.89090114 -1 3 C-0.67 2.01 -0.34 1.02 0 0 Z " fill="#F1D3D9" transform="translate(219,139)"/>
<path d="M0 0 C0.94875 0.04125 1.8975 0.0825 2.875 0.125 C3.205 1.115 3.535 2.105 3.875 3.125 C5.87516466 4.33382096 5.87516466 4.33382096 7.875 5.125 C7.875 6.775 7.875 8.425 7.875 10.125 C7.235625 10.393125 6.59625 10.66125 5.9375 10.9375 C3.54368314 12.01167752 3.54368314 12.01167752 2.875 15.125 C1.7694811 14.18909496 0.66564547 13.25120142 -0.4375 12.3125 C-1.05238281 11.79042969 -1.66726562 11.26835937 -2.30078125 10.73046875 C-3.97924679 9.25327531 -5.56382034 7.72460869 -7.125 6.125 C-4.34782609 0.17391304 -4.34782609 0.17391304 0 0 Z " fill="#D4BB85" transform="translate(197.125,191.875)"/>
<path d="M0 0 C0.66 0 1.32 0 2 0 C4.4654521 3.69817815 4.8134666 7.70854866 4 12 C1.8125 15.1875 1.8125 15.1875 -1 18 C-1.7425 18.9075 -2.485 19.815 -3.25 20.75 C-6.49258121 23.40302099 -8.95195642 23.958312 -13.01171875 24.640625 C-15.06553756 24.91568717 -15.06553756 24.91568717 -17 26 C-15.52761526 22.46470188 -13.58999241 20.52595994 -10.6875 18.0625 C-9.88699219 17.36125 -9.08648437 16.66 -8.26171875 15.9375 C-6.52943842 14.4535431 -4.77030961 13.00087656 -3 11.5625 C-0.1681496 7.93419168 -0.10788441 4.50172212 0 0 Z " fill="#C7CAD1" transform="translate(180,90)"/>
<path d="M0 0 C0.89203125 0.01804688 1.7840625 0.03609375 2.703125 0.0546875 C3.71632813 0.08949219 3.71632813 0.08949219 4.75 0.125 C4.9975 0.764375 5.245 1.40375 5.5 2.0625 C6.56562433 4.31241541 6.56562433 4.31241541 8.875 4.875 C9.49375 4.9575 10.1125 5.04 10.75 5.125 C12.3470516 13.90878378 12.3470516 13.90878378 10.0625 18.5625 C9.299375 19.408125 8.53625 20.25375 7.75 21.125 C7.193125 21.74375 6.63625 22.3625 6.0625 23 C2.29013689 24.83520367 -1.15711665 24.95045547 -5.25 24.125 C-9.04894338 22.26429304 -11.5677273 19.980244 -13.04296875 15.96875 C-13.748241 11.89074017 -13.48257451 8.87404306 -11.5625 5.1875 C-8.12877777 0.64013813 -5.6075163 -0.14756622 0 0 Z M-9.25 4.125 C-11.34543806 7.11848295 -11.4499733 9.52548059 -11.25 13.125 C-10.26 13.62 -10.26 13.62 -9.25 14.125 C-9.58 15.445 -9.91 16.765 -10.25 18.125 C-7.94433317 20.25302546 -7.94433317 20.25302546 -5.25 22.125 C-4.26 21.795 -3.27 21.465 -2.25 21.125 C-1.51676204 19.10991642 -1.51676204 19.10991642 -1.25 17.125 C-0.92 18.775 -0.59 20.425 -0.25 22.125 C4.22883696 21.67796014 4.22883696 21.67796014 7.75 19.125 C7.4314823 17.01679203 7.4314823 17.01679203 6.75 15.125 C8.07 14.795 9.39 14.465 10.75 14.125 C10.42 11.485 10.09 8.845 9.75 6.125 C6.70086772 5.11388907 6.70086772 5.11388907 3.75 6.125 C3.935625 5.485625 4.12125 4.84625 4.3125 4.1875 C4.456875 3.506875 4.60125 2.82625 4.75 2.125 C3.54225747 0.69775594 3.54225747 0.69775594 0 0.875 C-3.86345353 0.93039001 -6.19882712 1.6122694 -9.25 4.125 Z " fill="#E2D1DE" transform="translate(26.25,138.875)"/>
<path d="M0 0 C2 0 2 0 3.54296875 1.5390625 C8 7.19239905 8 7.19239905 8 11.4375 C7 14 7 14 5 15 C2.25 15.5 2.25 15.5 -1 15 C-3.32348966 12.89729442 -5.17344285 10.53904399 -7 8 C-6.34 6.68 -5.68 5.36 -5 4 C-1.18315774 5.55500981 1.19195732 8.03595495 4 11 C3.62746094 10.45730469 3.25492188 9.91460937 2.87109375 9.35546875 C2.39800781 8.64003906 1.92492187 7.92460937 1.4375 7.1875 C0.72400391 6.12595703 0.72400391 6.12595703 -0.00390625 5.04296875 C-1 3 -1 3 0 0 Z " fill="#E4D1A5" transform="translate(186,199)"/>
<path d="M0 0 C2 2 2 2 2.1953125 5.9140625 C2.18200376 7.48449351 2.15813602 9.05486221 2.125 10.625 C2.11597656 11.42679688 2.10695313 12.22859375 2.09765625 13.0546875 C2.07406223 15.03658523 2.03819065 17.01832981 2 19 C2.66 19 3.32 19 4 19 C4 23.19161906 3.86556277 26.88857686 3 31 C1.02 31 -0.96 31 -3 31 C-3.70074844 27.846632 -4 25.27275026 -4 22 C-2.68 21.67 -1.36 21.34 0 21 C0 14.07 0 7.14 0 0 Z " fill="#03178A" transform="translate(89,141)"/>
<path d="M0 0 C0 0.99 0 1.98 0 3 C-1.98 3 -3.96 3 -6 3 C-5.34 4.98 -4.68 6.96 -4 9 C-3.01 9 -2.02 9 -1 9 C-0.67 8.01 -0.34 7.02 0 6 C0.99 6 1.98 6 3 6 C2.67694236 8.98828314 2.34810879 10.61321245 0.3125 12.875 C-2.89829508 14.43700842 -4.63513237 14.07389392 -8 13 C-10.56078044 10.6952976 -10.95505383 9.36706039 -11.375 5.9375 C-11 3 -11 3 -10 1.125 C-6.74686316 -0.70488947 -3.68609891 -0.18128355 0 0 Z " fill="#DED0B4" transform="translate(168,214)"/>
<path d="M0 0 C1.60488281 0.00773437 1.60488281 0.00773437 3.2421875 0.015625 C11.03234578 0.09411526 11.03234578 0.09411526 14.5 1.25 C14.995 2.735 14.995 2.735 15.5 4.25 C14.60804932 4.23952637 13.71609863 4.22905273 12.79711914 4.21826172 C9.44797109 4.1839204 6.09901359 4.15897606 2.74975586 4.14013672 C1.30766829 4.13015687 -0.13439946 4.11656816 -1.57641602 4.09912109 C-9.4646071 4.00615801 -16.84051033 4.07624539 -24.5 6.25 C-24.17 5.26 -23.84 4.27 -23.5 3.25 C-16.07179223 -0.13380515 -8.00152588 -0.15883922 0 0 Z " fill="#CE9A1D" transform="translate(125.5,38.75)"/>
<path d="M0 0 C0.66 0 1.32 0 2 0 C2 0.66 2 1.32 2 2 C3.98 1.67 5.96 1.34 8 1 C7.67 1.66 7.34 2.32 7 3 C6.34 3 5.68 3 5 3 C5 3.66 5 4.32 5 5 C5.53109375 4.7834375 6.0621875 4.566875 6.609375 4.34375 C7.31578125 4.0653125 8.0221875 3.786875 8.75 3.5 C9.44609375 3.2215625 10.1421875 2.943125 10.859375 2.65625 C13 2 13 2 17 2 C16.42618522 5.32812571 15.40619252 6.69842455 13 9 C13 9.66 13 10.32 13 11 C12.34 11 11.68 11 11 11 C10.67 10.67 10.34 10.34 10 10 C9.67 10.66 9.34 11.32 9 12 C6.08264362 11.68461012 4.42948813 11.39881041 2.25 9.375 C0.62780937 6.29283781 0.3310304 3.44271613 0 0 Z " fill="#FF3434" transform="translate(217,96)"/>
<path d="M0 0 C0.99 0 1.98 0 3 0 C3.33 0.66 3.66 1.32 4 2 C6.02463255 2.65213292 6.02463255 2.65213292 8 3 C8 3.66 8 4.32 8 5 C8.66 5 9.32 5 10 5 C10 5.66 10 6.32 10 7 C9.34 7 8.68 7 8 7 C8 12.28 8 17.56 8 23 C7.67 23 7.34 23 7 23 C6.67 17.39 6.34 11.78 6 6 C5.67 12.27 5.34 18.54 5 25 C3.68 25.33 2.36 25.66 1 26 C1.00523682 25.35450195 1.01047363 24.70900391 1.01586914 24.04394531 C1.03668657 21.11264015 1.04967534 18.18135057 1.0625 15.25 C1.07087891 14.23421875 1.07925781 13.2184375 1.08789062 12.171875 C1.09111328 11.1921875 1.09433594 10.2125 1.09765625 9.203125 C1.10289307 8.30239258 1.10812988 7.40166016 1.11352539 6.47363281 C1.00762312 4.16610196 0.65132813 2.20865595 0 0 Z " fill="#6674B2" transform="translate(84,137)"/>
<path d="M0 0 C2.85185693 2.72786315 3.88631105 4.17169476 4.4375 8.1875 C3.85151111 13.29397463 1.5653641 15.49929276 -2 19 C-2.66 19.66 -3.32 20.32 -4 21 C-3.67 21.66 -3.34 22.32 -3 23 C-4.65 22.67 -6.3 22.34 -8 22 C-8.3125 19.25 -8.3125 19.25 -8 16 C-5.625 13.875 -5.625 13.875 -3 12 C-0.44582534 8.42415547 -0.42642826 4.2642826 0 0 Z " fill="#C4C8D0" transform="translate(100,67)"/>
<path d="M0 0 C-0.33 1.65 -0.66 3.3 -1 5 C-2.7015625 5.2165625 -2.7015625 5.2165625 -4.4375 5.4375 C-7.80777201 5.61171478 -7.80777201 5.61171478 -9 7 C-9.04346799 8.99952758 -9.039992 11.00039988 -9 13 C-9 13.99 -9 14.98 -9 16 C-11.15377564 13.37801226 -12.40072174 11.35595828 -13 8 C-14.49743119 9.49743119 -14.33202693 10.98824239 -14.5625 13.0625 C-14.7790625 15.0115625 -14.7790625 15.0115625 -15 17 C-17 15 -17 15 -17.375 12.25 C-16.81846351 7.42668379 -14.49273468 4.65859409 -11.3125 1.125 C-7.66574774 -0.64909569 -3.98371984 -0.22982999 0 0 Z " fill="#D2B574" transform="translate(62,34)"/>
<path d="M0 0 C2 2 2 2 2.125 5.125 C2.08375 6.07375 2.0425 7.0225 2 8 C2.66 8 3.32 8 4 8 C4.66 5.03 5.32 2.06 6 -1 C8.0625 0.625 8.0625 0.625 10 3 C10.08918366 7.1916319 9.26388909 8.69652755 6.5 11.875 C4 14 4 14 3 14 C3 12.35 3 10.7 3 9 C2.01 9 1.02 9 0 9 C-0.3403125 7.7934375 -0.3403125 7.7934375 -0.6875 6.5625 C-1.74834038 3.76560716 -1.74834038 3.76560716 -4.5 3.125 C-6.99906947 2.79481757 -6.99906947 2.79481757 -9 4 C-6.77704343 -0.92226099 -5.22239102 -1.43615753 0 0 Z " fill="#D1D3D6" transform="translate(175,119)"/>
<path d="M0 0 C1.73546076 2.60319113 2.65175233 4.52267237 3.625 7.4375 C3.88539062 8.19933594 4.14578125 8.96117187 4.4140625 9.74609375 C5 12 5 12 5 16 C3.35 15.67 1.7 15.34 0 15 C0 14.34 0 13.68 0 13 C-0.99 13 -1.98 13 -3 13 C-3.33 13.99 -3.66 14.98 -4 16 C-4.99 16 -5.98 16 -7 16 C-6.40165275 11.85701333 -4.99335715 8.81805623 -2.9375 5.1875 C-2.11572266 3.72376953 -2.11572266 3.72376953 -1.27734375 2.23046875 C-0.85582031 1.49441406 -0.43429688 0.75835937 0 0 Z " fill="#CBAC69" transform="translate(116,219)"/>
<path d="M0 0 C1.98 1.65 3.96 3.3 6 5 C5.67 6.32 5.34 7.64 5 9 C4.01 8.67 3.02 8.34 2 8 C2 8.99 2 9.98 2 11 C1.01 11 0.02 11 -1 11 C-3.01151741 11.63106429 -5.01363702 12.29373761 -7 13 C-7.66 11.68 -8.32 10.36 -9 9 C-6.03 6.03 -3.06 3.06 0 0 Z " fill="#C8A75D" transform="translate(52,191)"/>
<path d="M0 0 C9 2 9 2 11 4 C11 5.32 11 6.64 11 8 C9.35 8.33 7.7 8.66 6 9 C6.99 7.68 7.98 6.36 9 5 C6.03 4.505 6.03 4.505 3 4 C3.33 9.94 3.66 15.88 4 22 C2.68 22.33 1.36 22.66 0 23 C0 15.41 0 7.82 0 0 Z " fill="#C0C4CF" transform="translate(92,103)"/>
<path d="M0 0 C0.99 0.33 1.98 0.66 3 1 C3 8.59 3 16.18 3 24 C2.34 24.33 1.68 24.66 1 25 C1.33 25.66 1.66 26.32 2 27 C-1.96 28.98 -1.96 28.98 -6 31 C-4 27 -4 27 -2.40698242 25.59643555 C-0.37319485 23.28879423 -0.56864614 21.49482399 -0.48828125 18.45703125 C-0.45283203 17.38388672 -0.41738281 16.31074219 -0.38085938 15.20507812 C-0.35830078 14.08552734 -0.33574219 12.96597656 -0.3125 11.8125 C-0.27833984 10.68134766 -0.24417969 9.55019531 -0.20898438 8.38476562 C-0.12643686 5.5899426 -0.05730818 2.79543602 0 0 Z " fill="#7A88BC" transform="translate(86,102)"/>
<path d="M0 0 C1.65 0 3.3 0 5 0 C5 3.63 5 7.26 5 11 C6.65 11 8.3 11 10 11 C10 11.99 10 12.98 10 14 C6.7 14 3.4 14 0 14 C0 9.38 0 4.76 0 0 Z " fill="#AD8A45" transform="translate(124,221)"/>
<path d="M0 0 C1.32 0 2.64 0 4 0 C5.1577506 3.47325181 5.06866652 6.36067448 5 10 C6.65 10 8.3 10 10 10 C10 10.99 10 11.98 10 13 C5.545 13.495 5.545 13.495 1 14 C0.14778004 10.59112017 -0.10783755 8.19565369 -0.0625 4.75 C-0.05347656 3.85796875 -0.04445312 2.9659375 -0.03515625 2.046875 C-0.02355469 1.37140625 -0.01195312 0.6959375 0 0 Z " fill="#D8C292" transform="translate(136,220)"/>
<path d="M0 0 C1.8125 0.125 1.8125 0.125 4 1 C5.75 4.0625 5.75 4.0625 7 7 C8.65 7 10.3 7 12 7 C12.33 7.99 12.66 8.98 13 10 C7.375 13 7.375 13 4 13 C3.13083113 11.59248779 2.28014851 10.1735479 1.4375 8.75 C0.72400391 7.56664062 0.72400391 7.56664062 -0.00390625 6.359375 C-1.13022151 3.69155375 -1.0169313 2.65498232 0 0 Z " fill="#EADCBA" transform="translate(171,209)"/>
<path d="M0 0 C6.75 0.875 6.75 0.875 9 2 C9 2.99 9 3.98 9 5 C8.01 5.33 7.02 5.66 6 6 C4.98245132 7.8653245 4.98245132 7.8653245 4.3125 10.0625 C4.06113281 10.79597656 3.80976562 11.52945313 3.55078125 12.28515625 C3.36902344 12.85105469 3.18726562 13.41695312 3 14 C1.68 13.67 0.36 13.34 -1 13 C-0.835 11.906875 -0.67 10.81375 -0.5 9.6875 C0.06718184 6.12474127 0.06718184 6.12474127 0 3 C0 2.01 0 1.02 0 0 Z " fill="#CFB272" transform="translate(86,215)"/>
<path d="M0 0 C1.32 0.99 2.64 1.98 4 3 C3.67 4.32 3.34 5.64 3 7 C2.34 7 1.68 7 1 7 C1 7.66 1 8.32 1 9 C2.65 8.67 4.3 8.34 6 8 C5.67 9.32 5.34 10.64 5 12 C1.75 12.75 1.75 12.75 -2 13 C-4.4375 11.0625 -4.4375 11.0625 -6 9 C-4.7260411 6.96166576 -3.38938077 4.96147874 -2 3 C-1.34 3 -0.68 3 0 3 C0 2.01 0 1.02 0 0 Z " fill="#CAC0C8" transform="translate(158,72)"/>
<path d="M0 0 C1.7325 0.061875 1.7325 0.061875 3.5 0.125 C4.16 0.125 4.82 0.125 5.5 0.125 C7.16666667 0.125 8.83333333 0.125 10.5 0.125 C10.83 1.445 11.16 2.765 11.5 4.125 C10.51 4.455 9.52 4.785 8.5 5.125 C8.17 6.115 7.84 7.105 7.5 8.125 C6.84 8.125 6.18 8.125 5.5 8.125 C5.17 6.805 4.84 5.485 4.5 4.125 C2.02733235 4.46944881 2.02733235 4.46944881 -0.5 5.125 C-0.83 5.785 -1.16 6.445 -1.5 7.125 C-2.16 7.125 -2.82 7.125 -3.5 7.125 C-4.16 5.475 -4.82 3.825 -5.5 2.125 C-3.5 0.125 -3.5 0.125 0 0 Z " fill="#A7ADC7" transform="translate(141.5,185.875)"/>
<path d="M0 0 C-2.56303449 9.15048279 -5.79531223 18.06006196 -9 27 C-11.46800047 25.84826645 -13.04783565 24.95216435 -15 23 C-15.125 19.375 -15.125 19.375 -15 16 C-18.28976808 14.90341064 -19.71303767 15.20046862 -23 16 C-23.33 15.34 -23.66 14.68 -24 14 C-22.56589632 13.75045995 -21.12739928 13.52607358 -19.6875 13.3125 C-18.88699219 13.18488281 -18.08648437 13.05726562 -17.26171875 12.92578125 C-15 13 -15 13 -13.1875 14.28125 C-12 16 -12 16 -12.3125 19.1875 C-12.539375 20.115625 -12.76625 21.04375 -13 22 C-12.01 22.66 -11.02 23.32 -10 24 C-7.69 17.07 -5.38 10.14 -3 3 C-3.99 2.67 -4.98 2.34 -6 2 C-2.25 0 -2.25 0 0 0 Z " fill="#CFA43D" transform="translate(202,36)"/>
<path d="M0 0 C3.59466836 2.14150456 5.45944718 4.14861794 7 8 C7.08203125 10.2890625 7.08203125 10.2890625 6.8125 12.625 C6.73644531 13.40101562 6.66039063 14.17703125 6.58203125 14.9765625 C6 17 6 17 3 19 C3.66 15.7 4.32 12.4 5 9 C3.35 9 1.7 9 0 9 C1.32 8.34 2.64 7.68 4 7 C3.34 6.34 2.68 5.68 2 5 C1.67 4.34 1.34 3.68 1 3 C-3.12342025 1.88759657 -6.78463396 1.31820929 -10.5625 3.4375 C-11.2740625 4.2109375 -11.2740625 4.2109375 -12 5 C-11.67 5.66 -11.34 6.32 -11 7 C-11.99 7 -12.98 7 -14 7 C-14.33 9.31 -14.66 11.62 -15 14 C-15.33 14 -15.66 14 -16 14 C-16.59865471 8.01345291 -16.59865471 8.01345291 -14.95703125 5.234375 C-10.46262771 -0.19581345 -6.79121254 -0.85771369 0 0 Z " fill="#E6D6E1" transform="translate(30,87)"/>
<path d="M0 0 C11.22 0 22.44 0 34 0 C34 0.66 34 1.32 34 2 C30.56016847 3.0485577 27.3945 3.12910559 23.80859375 3.1328125 C22.61685547 3.13410156 21.42511719 3.13539063 20.19726562 3.13671875 C18.95654297 3.13285156 17.71582031 3.12898437 16.4375 3.125 C15.19291016 3.12886719 13.94832031 3.13273438 12.66601562 3.13671875 C10.8803418 3.13478516 10.8803418 3.13478516 9.05859375 3.1328125 C7.96861084 3.13168457 6.87862793 3.13055664 5.75561523 3.12939453 C3 3 3 3 0 2 C0 1.34 0 0.68 0 0 Z " fill="#D69E16" transform="translate(108,207)"/>
<path d="M0 0 C0.66 0 1.32 0 2 0 C3.08332541 3.24997622 3.12927538 5.64047508 3.1328125 9.05859375 C3.13410156 10.24904297 3.13539063 11.43949219 3.13671875 12.66601562 C3.13285156 13.91060547 3.12898437 15.15519531 3.125 16.4375 C3.12886719 17.67822266 3.13273438 18.91894531 3.13671875 20.19726562 C3.13478516 21.98487305 3.13478516 21.98487305 3.1328125 23.80859375 C3.13168457 24.89970459 3.13055664 25.99081543 3.12939453 27.11499023 C3.01832721 29.5913723 2.71911343 31.64092233 2 34 C1.34 34 0.68 34 0 34 C0 22.78 0 11.56 0 0 Z " fill="#D59D14" transform="translate(207,108)"/>
<path d="M0 0 C2 0.6875 2 0.6875 4 2.6875 C3.875 5.6875 3.875 5.6875 3 8.6875 C0.9375 10.0625 0.9375 10.0625 -1 10.6875 C-1 10.0275 -1 9.3675 -1 8.6875 C-2.32 8.0275 -3.64 7.3675 -5 6.6875 C-4.625 3.75 -4.625 3.75 -4 0.6875 C-2 -0.3125 -2 -0.3125 0 0 Z " fill="#6F7DB5" transform="translate(91,67.3125)"/>
<path d="M0 0 C-0.08378906 0.62648437 -0.16757813 1.25296875 -0.25390625 1.8984375 C-0.35574219 2.71570313 -0.45757812 3.53296875 -0.5625 4.375 C-0.66691406 5.18710938 -0.77132812 5.99921875 -0.87890625 6.8359375 C-1.18237328 9.04899186 -1.18237328 9.04899186 0 11 C-3.375 10.6875 -3.375 10.6875 -7 10 C-9.29013653 6.5647952 -9.17842973 5.014669 -9 1 C-7.515 1.99 -7.515 1.99 -6 3 C-5.566875 2.505 -5.13375 2.01 -4.6875 1.5 C-3 0 -3 0 0 0 Z " fill="#DCC38B" transform="translate(78,213)"/>
<path d="M0 0 C3.375 -0.125 3.375 -0.125 7 0 C7.66 0.66 8.32 1.32 9 2 C8.9765625 4.1640625 8.9765625 4.1640625 8.625 6.625 C8.45871094 7.85089844 8.45871094 7.85089844 8.2890625 9.1015625 C8.14597656 10.04128906 8.14597656 10.04128906 8 11 C5.69 11.33 3.38 11.66 1 12 C1.99 11.67 2.98 11.34 4 11 C4.33 8.03 4.66 5.06 5 2 C4.01 2 3.02 2 2 2 C2 2.99 2 3.98 2 5 C1.01 5.33 0.02 5.66 -1 6 C-0.67 4.02 -0.34 2.04 0 0 Z " fill="#F0E4C7" transform="translate(99,220)"/>
<path d="M0 0 C0.99 0.33 1.98 0.66 3 1 C3.48339973 7.40504648 3.48339973 7.40504648 1.375 10 C-1.83596428 11.35198496 -3.69946166 11.00451167 -7 10 C-9 7 -9 7 -8.625 4.8125 C-8.41875 4.214375 -8.2125 3.61625 -8 3 C-7.67 4.32 -7.34 5.64 -7 7 C-4.52372901 6.36078035 -4.52372901 6.36078035 -2 5 C-0.63921965 2.47627099 -0.63921965 2.47627099 0 0 Z " fill="#E5D4AC" transform="translate(65,205)"/>
<path d="M0 0 C0.33 1.32 0.66 2.64 1 4 C1.99 4 2.98 4 4 4 C4 7.33333333 4 10.66666667 4 14 C2.02 14.99 0.04 15.98 -2 17 C-2.28875 16.360625 -2.5775 15.72125 -2.875 15.0625 C-3.82823451 12.84793921 -3.82823451 12.84793921 -6 12 C-4.35 11.67 -2.7 11.34 -1 11 C-1.33 9.02 -1.66 7.04 -2 5 C-1.34 5 -0.68 5 0 5 C0 3.35 0 1.7 0 0 Z " fill="#C6C9D2" transform="translate(93,160)"/>
<path d="M0 0 C1.32 0 2.64 0 4 0 C4.14285714 7.42857143 4.14285714 7.42857143 3 11 C-1.75 12.125 -1.75 12.125 -4 11 C-3.39301257 6.87248551 -1.96189209 3.6678852 0 0 Z " fill="#F88E91" transform="translate(31,96)"/>
<path d="M0 0 C0.66 0.99 1.32 1.98 2 3 C1.071875 3.4125 0.14375 3.825 -0.8125 4.25 C-3.88054681 5.93441786 -5.19040465 7.08454083 -7 10 C-8.32 9.34 -9.64 8.68 -11 8 C-10.8125 5.6875 -10.8125 5.6875 -10 3 C-6.7586899 0.38894465 -4.15481738 -0.67375417 0 0 Z " fill="#C6C9D0" transform="translate(134,156)"/>
<path d="M0 0 C1.65 0 3.3 0 5 0 C3.68 0.33 2.36 0.66 1 1 C1.41572266 2.7015625 1.41572266 2.7015625 1.83984375 4.4375 C2.20595709 5.95827848 2.57182963 7.47911495 2.9375 9 C3.11990234 9.74378906 3.30230469 10.48757812 3.49023438 11.25390625 C4.66377209 16.1614276 5.45834324 20.98254788 6 26 C5.34 26 4.68 26 4 26 C1.32518354 19.13851429 -0.13767842 13.63016399 -0.0625 6.1875 C-0.05347656 5.02605469 -0.04445312 3.86460938 -0.03515625 2.66796875 C-0.02355469 1.78753906 -0.01195312 0.90710938 0 0 Z " fill="#D2D5D8" transform="translate(145,114)"/>
<path d="M0 0 C0.99 1.98 1.98 3.96 3 6 C3.99 6 4.98 6 6 6 C6.66 5.01 7.32 4.02 8 3 C8.103125 3.763125 8.20625 4.52625 8.3125 5.3125 C9.0690983 8.27011154 9.81772825 8.99230999 12 11 C13.25 13 13.25 13 14 15 C13.67 15.99 13.34 16.98 13 18 C12.01 16.02 11.02 14.04 10 12 C8.68 12 7.36 12 6 12 C5.67 12.99 5.34 13.98 5 15 C4 12 4 12 5 9 C4.01 9 3.02 9 2 9 C1.566875 8.05125 1.13375 7.1025 0.6875 6.125 C-0.79302201 2.79958063 -0.79302201 2.79958063 -4 1 C-2 0 -2 0 0 0 Z " fill="#CEA84F" transform="translate(74,22)"/>
<path d="M0 0 C0.66 0 1.32 0 2 0 C2.33 0.66 2.66 1.32 3 2 C3.66 1.67 4.32 1.34 5 1 C6.99960012 0.960008 9.00047242 0.95653201 11 1 C10.67 2.65 10.34 4.3 10 6 C9.01 6.33 8.02 6.66 7 7 C6.67 7.66 6.34 8.32 6 9 C4 9 4 9 1.875 7.3125 C0 5 0 5 -0.25 2.25 C-0.1675 1.5075 -0.085 0.765 0 0 Z " fill="#AAB1CB" transform="translate(91,183)"/>
<path d="M0 0 C1.65 0 3.3 0 5 0 C6.25541557 3.76624671 5.37061958 5.37188934 4 9 C4.99 9 5.98 9 7 9 C7 10.98 7 12.96 7 15 C5.0625 14.6875 5.0625 14.6875 3 14 C1.84058962 10.52176885 2.29179116 8.54104422 3 5 C1.68 5 0.36 5 -1 5 C-0.67 3.35 -0.34 1.7 0 0 Z " fill="#B7BCCC" transform="translate(147,80)"/>
<path d="M0 0 C0.33 0.99 0.66 1.98 1 3 C-3.33664919 6.11696661 -6.80408388 6.55966813 -12 7 C-11.08137175 3.82655696 -10.61971964 2.35173277 -7.6875 0.6875 C-4.99859913 -0.00035836 -2.76192463 -0.15782426 0 0 Z " fill="#FF5959" transform="translate(227,88)"/>
<path d="M0 0 C0 0.99 0 1.98 0 3 C-1.98 3 -3.96 3 -6 3 C-6 4.65 -6 6.3 -6 8 C-6.99 7.67 -7.98 7.34 -9 7 C-9.33 8.32 -9.66 9.64 -10 11 C-11.39935013 8.20129973 -11.25265405 6.09501208 -11 3 C-8.70019487 -1.31213463 -4.28166314 -0.2105736 0 0 Z " fill="#DDC795" transform="translate(168,214)"/>
<path d="M0 0 C2 0 2 0 3.54296875 1.5390625 C8.02759292 7.22739815 8.02759292 7.22739815 7.875 11.5 C7.441875 12.7375 7.441875 12.7375 7 14 C6.34 13.67 5.68 13.34 5 13 C3.67139075 12.64830932 2.33841672 12.31229724 1 12 C1.33 11.34 1.66 10.68 2 10 C2.66 10.33 3.32 10.66 4 11 C3.62746094 10.45730469 3.25492188 9.91460937 2.87109375 9.35546875 C2.16146484 8.28232422 2.16146484 8.28232422 1.4375 7.1875 C0.72400391 6.12595703 0.72400391 6.12595703 -0.00390625 5.04296875 C-1 3 -1 3 0 0 Z " fill="#CBB076" transform="translate(186,199)"/>
<path d="M0 0 C2.0625 0.4375 2.0625 0.4375 4 1 C4.33 3.64 4.66 6.28 5 9 C3.02 9 1.04 9 -1 9 C-1 8.01 -1 7.02 -1 6 C-1.66 5.67 -2.32 5.34 -3 5 C-1.125 1.125 -1.125 1.125 0 0 Z " fill="#FF1A1A" transform="translate(32,144)"/>
<path d="M0 0 C2.14855454 0.6155803 4.29379625 1.24273431 6.4375 1.875 C8.22994141 2.39707031 8.22994141 2.39707031 10.05859375 2.9296875 C13 4 13 4 14 6 C10.43528609 7.18823797 7.7441664 7.26274852 4 7 C1.5625 5.75 1.5625 5.75 0 4 C0 2.68 0 1.36 0 0 Z " fill="#F1F2F7" transform="translate(153,151)"/>
<path d="M0 0 C2.97 0 5.94 0 9 0 C8.67 1.65 8.34 3.3 8 5 C6.02 5.66 4.04 6.32 2 7 C0 4 0 4 0 0 Z " fill="#FF1010" transform="translate(220,140)"/>
<path d="M0 0 C1.32 0 2.64 0 4 0 C4.33 0.33 4.66 0.66 5 1 C5.66 1 6.32 1 7 1 C7 2.98 7 4.96 7 7 C2.72290301 7 1.44069624 6.29379749 -2 4 C-1.34 2.68 -0.68 1.36 0 0 Z " fill="#FF1717" transform="translate(218,154)"/>
<path d="M0 0 C1.875 0.25 1.875 0.25 4 1 C6.02755186 3.93995019 6 5.27704003 6 9 C4.35 9 2.7 9 1 9 C0.67 8.01 0.34 7.02 0 6 C-0.66 5.67 -1.32 5.34 -2 5 C-1.34 3.35 -0.68 1.7 0 0 Z " fill="#FF1313" transform="translate(230,143)"/>
<path d="M0 0 C1.32 0 2.64 0 4 0 C4.33 1.65 4.66 3.3 5 5 C4.01 5.33 3.02 5.66 2 6 C1.67 6.99 1.34 7.98 1 9 C0.01 8.67 -0.98 8.34 -2 8 C-2 7.34 -2 6.68 -2 6 C-2.66 5.67 -3.32 5.34 -4 5 C-2.25 2.5 -2.25 2.5 0 0 Z " fill="#BCC0CF" transform="translate(105,184)"/>
<path d="M0 0 C1.875 0.25 1.875 0.25 4 1 C5.25 3.0625 5.25 3.0625 6 5 C5.01 5.33 4.02 5.66 3 6 C3.33 6.66 3.66 7.32 4 8 C2.02 8.33 0.04 8.66 -2 9 C-1.125 2.25 -1.125 2.25 0 0 Z " fill="#FF1111" transform="translate(17,143)"/>
<path d="M0 0 C2.64 0 5.28 0 8 0 C8.33 1.32 8.66 2.64 9 4 C7.68 4.99 6.36 5.98 5 7 C4.67 6.34 4.34 5.68 4 5 C3.01 5.33 2.02 5.66 1 6 C0.67 4.02 0.34 2.04 0 0 Z " fill="#FF0C0C" transform="translate(22,140)"/>
<path d="M0 0 C2.43929746 1.92576115 4.80090595 3.80090595 7 6 C9.08333333 5.83333333 9.08333333 5.83333333 11 5 C11.33 4.34 11.66 3.68 12 3 C12 3.99 12 4.98 12 6 C13.65 6 15.3 6 17 6 C16.67 6.66 16.34 7.32 16 8 C11.36893984 9.38444325 7.88984667 9.4131431 3.5 7.375 C0.81031452 4.8197988 0.20245185 3.64413322 0 0 Z " fill="#E0BECC" transform="translate(15,101)"/>
<path d="M0 0 C2.42447165 1.742589 3.82692422 3.10799408 4.40625 6.09375 C4.56959279 10.17731985 4.33612046 12.44366269 2.1875 16 C0 18 0 18 -3 19 C-3.66 17.68 -4.32 16.36 -5 15 C-4.34 15 -3.68 15 -3 15 C-3 15.66 -3 16.32 -3 17 C-2.34 17 -1.68 17 -1 17 C-1.33 16.01 -1.66 15.02 -2 14 C-1.360625 13.566875 -0.72125 13.13375 -0.0625 12.6875 C2.26746003 11.08760823 2.26746003 11.08760823 3 8 C2.34 7.67 1.68 7.34 1 7 C1.33 6.34 1.66 5.68 2 5 C1.01 4.34 0.02 3.68 -1 3 C-0.67 2.01 -0.34 1.02 0 0 Z " fill="#F1D2D8" transform="translate(231,90)"/>
<path d="M0 0 C2.97 0.495 2.97 0.495 6 1 C6 1.99 6 2.98 6 4 C1.77142857 8 1.77142857 8 -2 8 C-2.33 6.02 -2.66 4.04 -3 2 C-2.01 2 -1.02 2 0 2 C0 1.34 0 0.68 0 0 Z " fill="#FF1010" transform="translate(229,153)"/>
<path d="M0 0 C2.76223278 2.76223278 2.57856291 5.20706617 3 9 C2.01 9 1.02 9 0 9 C-0.3403125 7.7934375 -0.3403125 7.7934375 -0.6875 6.5625 C-1.74834038 3.76560716 -1.74834038 3.76560716 -4.5 3.125 C-6.99906947 2.79481757 -6.99906947 2.79481757 -9 4 C-6.77704343 -0.92226099 -5.22239102 -1.43615753 0 0 Z " fill="#6B7AB4" transform="translate(175,119)"/>
<path d="M0 0 C0.66 0.33 1.32 0.66 2 1 C1.484375 1.825 0.96875 2.65 0.4375 3.5 C-1.44250781 8.07741032 -1.00872441 10.18916051 0 15 C0.93786348 17.38740541 0.93786348 17.38740541 2 19 C-1.16115776 17.63016497 -1.9927092 17.0109362 -4 14 C-4.75447546 9.31523374 -4.61752228 5.94558099 -2 1.9375 C-1.34 1.298125 -0.68 0.65875 0 0 Z " fill="#7583BA" transform="translate(82,62)"/>
<path d="M0 0 C2.475 0.99 2.475 0.99 5 2 C4.6875 3.875 4.6875 3.875 4 6 C1 8 1 8 -3 8 C-3 6.02 -3 4.04 -3 2 C-2.01 2.495 -2.01 2.495 -1 3 C-0.67 2.01 -0.34 1.02 0 0 Z " fill="#FF1010" transform="translate(29,153)"/>
<path d="M0 0 C1.65 0 3.3 0 5 0 C5.33 0.66 5.66 1.32 6 2 C6.33 2 6.66 2 7 2 C7 3.65 7 5.3 7 7 C2.73173127 7 2.06117568 6.62386487 -1 4 C-0.67 2.68 -0.34 1.36 0 0 Z " fill="#FF0D0D" transform="translate(17,153)"/>
<path d="M0 0 C1.32 0.66 2.64 1.32 4 2 C4 6 4 6 3 9 C1.35 9 -0.3 9 -2 9 C-1.125 1.125 -1.125 1.125 0 0 Z " fill="#FF0707" transform="translate(216,144)"/>
<path d="M0 0 C1.67542976 0.28604898 3.34385343 0.61781233 5 1 C5.33 1.99 5.66 2.98 6 4 C5.01 4.33 4.02 4.66 3 5 C2.67 6.65 2.34 8.3 2 10 C-0.0625 8.3125 -0.0625 8.3125 -2 6 C-1.7 1.7 -1.7 1.7 0 0 Z " fill="#CACDD3" transform="translate(168,121)"/>
<path d="M0 0 C2.64 0.33 5.28 0.66 8 1 C8 1.66 8 2.32 8 3 C7.01 3 6.02 3 5 3 C5 3.66 5 4.32 5 5 C5.66 5.33 6.32 5.66 7 6 C5.02 6.66 3.04 7.32 1 8 C0.67 5.36 0.34 2.72 0 0 Z " fill="#4555A5" transform="translate(82,93)"/>
<path d="M0 0 C0.99 0 1.98 0 3 0 C3 3.63 3 7.26 3 11 C4.65 11 6.3 11 8 11 C8 11.33 8 11.66 8 12 C5.36 12 2.72 12 0 12 C0 8.04 0 4.08 0 0 Z " fill="#FAF2E0" transform="translate(125,222)"/>
<path d="M0 0 C-2.51066469 3.05906926 -4.90059933 3.75191278 -8.6875 4.6875 C-9.68136719 4.93886719 -10.67523438 5.19023437 -11.69921875 5.44921875 C-12.45847656 5.63097656 -13.21773437 5.81273437 -14 6 C-14 5.34 -14 4.68 -14 4 C-14.66 3.67 -15.32 3.34 -16 3 C-13.71068726 2.30364247 -11.4191243 1.61765623 -9.125 0.9375 C-8.47402344 0.73833984 -7.82304687 0.53917969 -7.15234375 0.33398438 C-2.2265625 -1.11328125 -2.2265625 -1.11328125 0 0 Z " fill="#D7A52B" transform="translate(156,203)"/>
<path d="M0 0 C0.66 0 1.32 0 2 0 C2.33 0.99 2.66 1.98 3 3 C1.7636832 3.89422914 0.51028438 4.76487891 -0.75 5.625 C-1.44609375 6.11226563 -2.1421875 6.59953125 -2.859375 7.1015625 C-5 8 -5 8 -7.265625 7.1484375 C-7.83796875 6.76945312 -8.4103125 6.39046875 -9 6 C-7.38371879 2.76743757 -4.23006285 2.32663296 -1 1 C-0.67 0.67 -0.34 0.34 0 0 Z " fill="#C6C9D1" transform="translate(111,110)"/>
<path d="M0 0 C-2.47398137 2.65069433 -4.57642251 4.71615844 -8 6 C-9.32 6 -10.64 6 -12 6 C-12 5.34 -12 4.68 -12 4 C-10.390625 2.67578125 -10.390625 2.67578125 -8.25 1.3125 C-7.55390625 0.85488281 -6.8578125 0.39726563 -6.140625 -0.07421875 C-3.60909275 -1.16906025 -2.53899138 -0.9435441 0 0 Z " fill="#FF0909" transform="translate(234,95)"/>
<path d="M0 0 C1.875 0.8125 1.875 0.8125 2.875 2.8125 C1.885 3.1425 0.895 3.4725 -0.125 3.8125 C-0.970625 4.658125 -1.81625 5.50375 -2.6875 6.375 C-3.8940625 7.5815625 -3.8940625 7.5815625 -5.125 8.8125 C-5.785 8.8125 -6.445 8.8125 -7.125 8.8125 C-4.46534417 -0.39400096 -4.46534417 -0.39400096 0 0 Z " fill="#F6EDD7" transform="translate(52.125,193.1875)"/>
<path d="M0 0 C0.33 0 0.66 0 1 0 C1.33 8.25 1.66 16.5 2 25 C1.01 24.67 0.02 24.34 -1 24 C-0.67 16.08 -0.34 8.16 0 0 Z " fill="#E2B648" transform="translate(41,116)"/>
<path d="M0 0 C-1.3954067 2.79081339 -3.01419041 3.03903006 -5.875 4.1875 C-6.75929688 4.55230469 -7.64359375 4.91710938 -8.5546875 5.29296875 C-11 6 -11 6 -14 5 C-11.85073619 2.60894402 -10.00963087 1.36721146 -7 0.25 C-5.9790625 -0.14445312 -5.9790625 -0.14445312 -4.9375 -0.546875 C-3 -1 -3 -1 0 0 Z " fill="#CE9A1D" transform="translate(102,43)"/>
<path d="M0 0 C0.33 0.99 0.66 1.98 1 3 C-7.25 2.67 -15.5 2.34 -24 2 C-24 1.67 -24 1.34 -24 1 C-21.50018262 0.8301095 -19.00020399 0.66402047 -16.5 0.5 C-15.80390625 0.45230469 -15.1078125 0.40460937 -14.390625 0.35546875 C-9.58304475 0.04386633 -4.81771254 -0.04340282 0 0 Z " fill="#E2B648" transform="translate(140,40)"/>
<path d="M0 0 C4.35522853 0.50642192 7.44239635 1.38411497 11 4 C11 4.66 11 5.32 11 6 C6.94393835 5.53199289 3.53411321 5.12046792 0 3 C0 2.01 0 1.02 0 0 Z " fill="#FF0C0C" transform="translate(17,95)"/>
<path d="M0 0 C0 0.66 0 1.32 0 2 C-0.45375 2.4125 -0.9075 2.825 -1.375 3.25 C-3.53986646 5.58139465 -4.12705877 7.97828036 -5 11 C-5.99 10.01 -6.98 9.02 -8 8 C-7.67 7.01 -7.34 6.02 -7 5 C-7.99 4.67 -8.98 4.34 -10 4 C-8.71086513 3.32845067 -7.41859796 2.66291141 -6.125 2 C-5.40570313 1.62875 -4.68640625 1.2575 -3.9453125 0.875 C-2 0 -2 0 0 0 Z " fill="#E0BE6B" transform="translate(196,39)"/>
<path d="M0 0 C0.99 0 1.98 0 3 0 C2.67 2.64 2.34 5.28 2 8 C0.68 8 -0.64 8 -2 8 C-2.125 5.125 -2.125 5.125 -2 2 C-1.34 1.34 -0.68 0.68 0 0 Z " fill="#323570" transform="translate(75,213)"/>
<path d="M0 0 C1.33804688 0.04060547 1.33804688 0.04060547 2.703125 0.08203125 C3.37859375 0.11683594 4.0540625 0.15164062 4.75 0.1875 C1.14313031 2.18033668 -2.19232099 2.7997561 -6.2265625 3.4296875 C-8.44069706 4.02284522 -8.44069706 4.02284522 -9.5234375 6.2578125 C-9.76320313 6.89460937 -10.00296875 7.53140625 -10.25 8.1875 C-9.9299297 5.22684968 -9.71276664 3.63343877 -7.53125 1.53125 C-4.7845053 -0.08669551 -3.15927814 -0.12470835 0 0 Z " fill="#7F8CBF" transform="translate(100.25,173.8125)"/>
<path d="M0 0 C0.66 0.33 1.32 0.66 2 1 C2 1.99 2 2.98 2 4 C-1 6 -1 6 -4 7 C-4.99 6.67 -5.98 6.34 -7 6 C-6 3 -6 3 -3.0625 1.25 C-2.051875 0.8375 -1.04125 0.425 0 0 Z " fill="#E3CD9A" transform="translate(184,44)"/>
<path d="M0 0 C2.97 0.33 5.94 0.66 9 1 C9 1.66 9 2.32 9 3 C2.375 4.125 2.375 4.125 -1 3 C-0.67 2.01 -0.34 1.02 0 0 Z " fill="#FF6060" transform="translate(22,88)"/>
<path d="M0 0 C0.6875 2.75 0.6875 2.75 1 6 C-0.4375 8.375 -0.4375 8.375 -2 10 C-2.66 9.67 -3.32 9.34 -4 9 C-3.67 8.67 -3.34 8.34 -3 8 C-2.66659529 5.04195427 -2.66659529 5.04195427 -3 2 C-3.99 1.34 -4.98 0.68 -6 0 C-3 -1 -3 -1 0 0 Z " fill="#7987BD" transform="translate(127,69)"/>
<path d="M0 0 C1.32 0 2.64 0 4 0 C3.25 4.75 3.25 4.75 1 7 C0.01 7 -0.98 7 -2 7 C-1.42415568 4.61435923 -0.77772405 2.33317216 0 0 Z " fill="#15217D" transform="translate(61,205)"/>
<path d="M0 0 C0.99 0 1.98 0 3 0 C3.88099735 2.97818634 4.06705164 5.45292865 3.87890625 8.546875 C3.83056641 9.39121094 3.78222656 10.23554688 3.73242188 11.10546875 C3.67634766 11.97816406 3.62027344 12.85085937 3.5625 13.75 C3.51029297 14.63816406 3.45808594 15.52632812 3.40429688 16.44140625 C3.27498267 18.62799196 3.14003358 20.81407894 3 23 C2.67 23 2.34 23 2 23 C1.97494385 22.44538086 1.9498877 21.89076172 1.92407227 21.31933594 C1.80772073 18.79601157 1.68517246 16.27302464 1.5625 13.75 C1.52318359 12.87730469 1.48386719 12.00460938 1.44335938 11.10546875 C1.40146484 10.26113281 1.35957031 9.41679687 1.31640625 8.546875 C1.27974854 7.77182617 1.24309082 6.99677734 1.20532227 6.19824219 C1.00396985 4.0425024 0.58270703 2.08198525 0 0 Z " fill="#8390C1" transform="translate(84,137)"/>
<path d="M0 0 C-0.66 1.32 -1.32 2.64 -2 4 C-4.875 4.125 -4.875 4.125 -8 4 C-8.66 3.34 -9.32 2.68 -10 2 C-6.3558226 -0.4294516 -4.28758728 -0.16179575 0 0 Z " fill="#6171B1" transform="translate(96,125)"/>
<path d="M0 0 C0.33 0.66 0.66 1.32 1 2 C-0.0625 3.5625 -0.0625 3.5625 -2 5 C-5.6875 4.6875 -5.6875 4.6875 -9 4 C-9 3.01 -9 2.02 -9 1 C-7.88625 1.020625 -6.7725 1.04125 -5.625 1.0625 C-2.16784079 1.26380718 -2.16784079 1.26380718 0 0 Z " fill="#FE0E0E" transform="translate(163,80)"/>
<path d="M0 0 C1.4540625 0.0309375 1.4540625 0.0309375 2.9375 0.0625 C3.2675 1.0525 3.5975 2.0425 3.9375 3.0625 C2.9475 3.3925 1.9575 3.7225 0.9375 4.0625 C0.6075 4.7225 0.2775 5.3825 -0.0625 6.0625 C-0.7225 6.0625 -1.3825 6.0625 -2.0625 6.0625 C-2.7225 4.4125 -3.3825 2.7625 -4.0625 1.0625 C-3.0625 0.0625 -3.0625 0.0625 0 0 Z " fill="#D0D3D6" transform="translate(140.0625,186.9375)"/>
<path d="M0 0 C2.95183101 2.95183101 3.08663988 5.95511947 4 10 C3.01 10 2.02 10 1 10 C1 9.01 1 8.02 1 7 C0.34 6.67 -0.32 6.34 -1 6 C-0.67 5.01 -0.34 4.02 0 3 C-0.66 3 -1.32 3 -2 3 C-2 2.34 -2 1.68 -2 1 C-1.34 0.67 -0.68 0.34 0 0 Z " fill="#FDFAF4" transform="translate(116,224)"/>
<path d="M0 0 C2.475 0.495 2.475 0.495 5 1 C5 1.66 5 2.32 5 3 C5.99 3 6.98 3 8 3 C8.33 4.65 8.66 6.3 9 8 C8.01 8.495 8.01 8.495 7 9 C6.67 8.01 6.34 7.02 6 6 C5.01 5.67 4.02 5.34 3 5 C2.67 4.01 2.34 3.02 2 2 C1.34 1.34 0.68 0.68 0 0 Z " fill="#FDFCF7" transform="translate(195,193)"/>
<path d="M0 0 C0 0.66 0 1.32 0 2 C-1.258125 2.2475 -2.51625 2.495 -3.8125 2.75 C-6.83557727 3.48837994 -7.8059483 3.79382006 -10 6.125 C-10.33 6.74375 -10.66 7.3625 -11 8 C-10.6875 5.125 -10.6875 5.125 -10 2 C-6.3558226 -0.4294516 -4.28758728 -0.16179575 0 0 Z " fill="#7C89BE" transform="translate(144,177)"/>
<path d="M0 0 C0.66 0 1.32 0 2 0 C5.07692308 6.4 5.07692308 6.4 4.6875 9.4375 C4.460625 9.953125 4.23375 10.46875 4 11 C0.85041169 7.57653445 0.43820891 4.55737263 0 0 Z " fill="#FF1111" transform="translate(217,96)"/>
<path d="M0 0 C2.475 0.99 2.475 0.99 5 2 C1.25 4 1.25 4 -1 4 C-1.2165625 5.175625 -1.2165625 5.175625 -1.4375 6.375 C-2 9 -2 9 -3 11 C-3.66 11 -4.32 11 -5 11 C-3.77472971 6.94718288 -2.30119506 3.55639236 0 0 Z " fill="#E1BD68" transform="translate(170,19)"/>
<path d="M0 0 C1.98 1.65 3.96 3.3 6 5 C5.67 6.32 5.34 7.64 5 9 C4.01 8.34 3.02 7.68 2 7 C1.01 7.495 1.01 7.495 0 8 C0 7.01 0 6.02 0 5 C0.66 4.67 1.32 4.34 2 4 C1.01 3.01 0.02 2.02 -1 1 C-0.67 0.67 -0.34 0.34 0 0 Z " fill="#B99A59" transform="translate(52,191)"/>
<path d="M0 0 C0.33 0.99 0.66 1.98 1 3 C3.64 2.67 6.28 2.34 9 2 C9 2.99 9 3.98 9 5 C6.69 5.33 4.38 5.66 2 6 C2 5.34 2 4.68 2 4 C1.34 4 0.68 4 0 4 C0 2.68 0 1.36 0 0 Z " fill="#F7ECCF" transform="translate(102,19)"/>
<path d="M0 0 C0.33 1.32 0.66 2.64 1 4 C1.99 4 2.98 4 4 4 C4 5.32 4 6.64 4 8 C3.01 8 2.02 8 1 8 C0.67 8.66 0.34 9.32 0 10 C-0.66 8.35 -1.32 6.7 -2 5 C-1.34 5 -0.68 5 0 5 C0 3.35 0 1.7 0 0 Z " fill="#BBBFCC" transform="translate(93,160)"/>
<path d="M0 0 C0.99 0 1.98 0 3 0 C2.625 2.4375 2.625 2.4375 2 5 C0 6 0 6 -3.125 5.0625 C-4.07375 4.711875 -5.0225 4.36125 -6 4 C-5.67 3.34 -5.34 2.68 -5 2 C-3.02 2.495 -3.02 2.495 -1 3 C-0.67 2.01 -0.34 1.02 0 0 Z " fill="#D5B569" transform="translate(168,220)"/>
<path d="M0 0 C0.99 0.33 1.98 0.66 3 1 C2.67 2.65 2.34 4.3 2 6 C0.68 6 -0.64 6 -2 6 C-1.125 1.125 -1.125 1.125 0 0 Z " fill="#6A79B5" transform="translate(87,165)"/>
<path d="M0 0 C0.33 0 0.66 0 1 0 C0.50769231 6.4 0.50769231 6.4 -2.0625 9.4375 C-2.701875 9.953125 -3.34125 10.46875 -4 11 C-3.39301257 6.87248551 -1.96189209 3.6678852 0 0 Z " fill="#FF0909" transform="translate(31,96)"/>
<path d="M0 0 C0 0.99 0 1.98 0 3 C-2.64 3.33 -5.28 3.66 -8 4 C-8.33 3.01 -8.66 2.02 -9 1 C-5.846632 0.29925156 -3.27275026 0 0 0 Z " fill="#F8EDD2" transform="translate(110,12)"/>
<path d="M0 0 C-5.75 5 -5.75 5 -8 5 C-7.67 3.35 -7.34 1.7 -7 0 C-3.86650268 -1.04449911 -3.01031744 -0.93423645 0 0 Z " fill="#F8EFDA" transform="translate(78,212)"/>
<path d="M0 0 C3.20078172 2.52693294 6.11887921 5.11887921 9 8 C5.81390075 7.64598897 4.20933322 7.16972964 1.6875 5.125 C0 3 0 3 0 0 Z " fill="#ECDCE4" transform="translate(15,101)"/>
<path d="M0 0 C1.33332095 2.6666419 0.67102033 4.16680303 0 7 C-2.31 7 -4.62 7 -7 7 C-6.01 6.67 -5.02 6.34 -4 6 C-2.90833725 4.06669397 -2.90833725 4.06669397 -2 2 C-1.34 1.34 -0.68 0.68 0 0 Z " fill="#7E8BC0" transform="translate(133,59)"/>
<path d="M0 0 C0.33 1.32 0.66 2.64 1 4 C1.66 4 2.32 4 3 4 C3.33 3.01 3.66 2.02 4 1 C4 2.65 4 4.3 4 6 C3.01 5.67 2.02 5.34 1 5 C0.67 6.32 0.34 7.64 0 9 C-1.36623674 6.26752652 -1.128426 4.01801098 -1 1 C-0.67 0.67 -0.34 0.34 0 0 Z " fill="#BEA36C" transform="translate(158,216)"/>
<path d="M0 0 C1.98 0 3.96 0 6 0 C6.33 0.99 6.66 1.98 7 3 C5.02 3.66 3.04 4.32 1 5 C0.67 3.35 0.34 1.7 0 0 Z " fill="#CFB06A" transform="translate(177,216)"/>
<path d="M0 0 C1.98 0.495 1.98 0.495 4 1 C4 2.32 4 3.64 4 5 C2.35 4.67 0.7 4.34 -1 4 C-0.67 2.68 -0.34 1.36 0 0 Z " fill="#FF1B1B" transform="translate(24,148)"/>
<path d="M0 0 C2.475 0.495 2.475 0.495 5 1 C4.67 2.32 4.34 3.64 4 5 C2.68 4.67 1.36 4.34 0 4 C0 2.68 0 1.36 0 0 Z " fill="#C7CAD1" transform="translate(87,69)"/>
<path d="M0 0 C0.7425 0.0825 1.485 0.165 2.25 0.25 C2.25 1.24 2.25 2.23 2.25 3.25 C-2.205 3.745 -2.205 3.745 -6.75 4.25 C-3.42692308 0.31153846 -3.42692308 0.31153846 0 0 Z " fill="#F7EBCD" transform="translate(111.75,30.75)"/>
<path d="M0 0 C0.66 0 1.32 0 2 0 C2.66 3.3 3.32 6.6 4 10 C2 8.375 2 8.375 0 6 C-0.25 2.75 -0.25 2.75 0 0 Z " fill="#FF1111" transform="translate(214,96)"/>
<path d="M0 0 C0.66 0.33 1.32 0.66 2 1 C1.67 3.31 1.34 5.62 1 8 C0.01 8.33 -0.98 8.66 -2 9 C-1.34 6.03 -0.68 3.06 0 0 Z " fill="#DCA829" transform="translate(204,148)"/>
<path d="M0 0 C0 0.99 0 1.98 0 3 C-2.97 4.65 -5.94 6.3 -9 8 C-7.70948419 4.12845257 -4.40863591 0 0 0 Z " fill="#E4E6EF" transform="translate(125,134)"/>
<path d="M0 0 C0.66 0.33 1.32 0.66 2 1 C1.01 1.33 0.02 1.66 -1 2 C-1 2.66 -1 3.32 -1 4 C0.32 4.33 1.64 4.66 3 5 C1.68 5.99 0.36 6.98 -1 8 C-2.4606285 5.35261084 -3 4.10551666 -3 1 C-2.01 0.67 -1.02 0.34 0 0 Z " fill="#FFA1A1" transform="translate(223,97)"/>
<path d="M0 0 C-1.32 0.99 -2.64 1.98 -4 3 C-5.32 2.34 -6.64 1.68 -8 1 C-8 0.34 -8 -0.32 -8 -1 C-4.59745511 -2.2151946 -3.06748874 -1.86240388 0 0 Z " fill="#D5CCD0" transform="translate(165,86)"/>
<path d="M0 0 C0.33 0 0.66 0 1 0 C1.25 6.625 1.25 6.625 -1 10 C-1.66 10 -2.32 10 -3 10 C-2.01 6.7 -1.02 3.4 0 0 Z " fill="#FF1313" transform="translate(34,96)"/>
<path d="M0 0 C0.93065133 2.60582371 1.14917407 3.64198224 0.0625 6.25 C-0.4634375 7.11625 -0.4634375 7.11625 -1 8 C-1.66 8 -2.32 8 -3 8 C-2.45276317 4.62537285 -1.9451 2.91765 0 0 Z " fill="#FDFBF5" transform="translate(89,220)"/>
<path d="M0 0 C0.99 0.33 1.98 0.66 3 1 C3 2.32 3 3.64 3 5 C1.68 5 0.36 5 -1 5 C-0.67 3.35 -0.34 1.7 0 0 Z " fill="#FF0C0C" transform="translate(224,148)"/>
<path d="M0 0 C0.99 0 1.98 0 3 0 C3 1.98 3 3.96 3 6 C1.68 5.34 0.36 4.68 -1 4 C-0.67 2.68 -0.34 1.36 0 0 Z " fill="#D2D4D5" transform="translate(151,89)"/>
<path d="M0 0 C0.66 0.33 1.32 0.66 2 1 C0.68 3.31 -0.64 5.62 -2 8 C-2.99 8 -3.98 8 -5 8 C-4.45773019 4.20411134 -2.79872437 2.52788007 0 0 Z " fill="#D7A429" transform="translate(53,79)"/>
<path d="M0 0 C1.98 0.495 1.98 0.495 4 1 C3.67 1.66 3.34 2.32 3 3 C2.34 2.67 1.68 2.34 1 2 C1.33 3.65 1.66 5.3 2 7 C0.4375 5.75 0.4375 5.75 -1 4 C-0.6875 1.8125 -0.6875 1.8125 0 0 Z " fill="#CBA95E" transform="translate(171,209)"/>
<path d="M0 0 C0.66 0.33 1.32 0.66 2 1 C2 2.65 2 4.3 2 6 C2.99 6.33 3.98 6.66 5 7 C3.35 7 1.7 7 0 7 C-1.33332095 4.3333581 -0.67102033 2.83319697 0 0 Z " fill="#F7B5B8" transform="translate(24,155)"/>
<path d="M0 0 C2.375 -0.1875 2.375 -0.1875 5 0 C5.66 0.99 6.32 1.98 7 3 C5.02 3 3.04 3 1 3 C0.67 2.01 0.34 1.02 0 0 Z " fill="#6C7BB6" transform="translate(83,89)"/>
<path d="M0 0 C2.5722047 1.28610235 3.00974907 2.33393981 4 5 C3.625 7.25 3.625 7.25 3 9 C3 8.34 3 7.68 3 7 C2.34 7 1.68 7 1 7 C0.67 4.69 0.34 2.38 0 0 Z " fill="#7B89BE" transform="translate(115,78)"/>
<path d="M0 0 C0.99 0.33 1.98 0.66 3 1 C2.01 2.32 1.02 3.64 0 5 C-0.99 4.67 -1.98 4.34 -3 4 C-2.01 2.68 -1.02 1.36 0 0 Z " fill="#D7A324" transform="translate(71,57)"/>
<path d="M0 0 C-1 2 -1 2 -4.0625 3.125 C-5.031875 3.41375 -6.00125 3.7025 -7 4 C-6.6875 2.0625 -6.6875 2.0625 -6 0 C-3 -1 -3 -1 0 0 Z " fill="#C69522" transform="translate(102,43)"/>
</svg>
